<?xml version="1.0" standalone="no"?>
<!DOCTYPE svg PUBLIC "-//W3C//DTD SVG 1.1//EN" "http://www.w3.org/Graphics/SVG/1.1/DTD/svg11.dtd" >
<svg xmlns="http://www.w3.org/2000/svg" xmlns:xlink="http://www.w3.org/1999/xlink" version="1.1">
<metadata>
Created by FontForge 20170731 at Mon Jun 25 16:15:35 2018
 By Aleksey,,,
Copyright (c) 2017 by Tokotype. All rights reserved.
</metadata>
<defs>
<font id="Gramatika-Bold" horiz-adv-x="0" >
  <font-face 
    font-family="Gramatika-Bold"
    font-weight="400"
    font-stretch="normal"
    units-per-em="1000"
    panose-1="0 0 8 0 0 0 0 0 0 0"
    ascent="777"
    descent="-223"
    x-height="490"
    cap-height="700"
    bbox="-383 -424 1336 1084"
    underline-thickness="88"
    underline-position="-296"
    unicode-range="U+000D-FB02"
  />
<missing-glyph horiz-adv-x="577" 
d="M87 700h402v-700h-402v700zM439 50v600h-302v-600h302z" />
    <glyph glyph-name="fi" unicode="fi" horiz-adv-x="692" 
d="M558 558q-37 0 -62.5 25.5t-25.5 61.5t25.5 61.5t62.5 25.5t63 -25.5t26 -61.5t-26 -61.5t-63 -25.5zM103 0v373h-88v117h88v39q0 91 55.5 136t138.5 45q61 0 120 -17l-18 -107q-38 13 -76 13q-83 0 -83 -80v-29h387v-490h-137v373h-250v-373h-137z" />
    <glyph glyph-name="fl" unicode="fl" horiz-adv-x="675" 
d="M103 0v373h-88v117h88v39q0 91 55.5 136t138.5 45q61 0 120 -17l-18 -107q-38 13 -76 13q-83 0 -83 -80v-29h166v-117h-166v-373h-137zM482 0v700h137v-700h-137z" />
    <glyph glyph-name="f_f" unicode="ff" horiz-adv-x="850" 
d="M103 0v373h-88v117h88v39q0 91 55.5 136t138.5 45q61 0 120 -17l-18 -107q-38 13 -76 13q-83 0 -83 -80v-29h288v39q0 91 55.5 136t138.5 45q61 0 120 -17l-18 -107q-39 13 -76 13q-83 0 -83 -80v-29h166v-117h-166v-373h-137v373h-288v-373h-137z" />
    <glyph glyph-name="f_f_i" unicode="ffi" horiz-adv-x="1117" 
d="M982 558q-37 0 -62.5 25.5t-25.5 61.5t25.5 61.5t62.5 25.5t63.5 -25.5t26.5 -61.5t-26.5 -61.5t-63.5 -25.5zM103 0v373h-88v117h88v39q0 91 55.5 136t138.5 45q61 0 120 -17l-18 -107q-38 13 -76 13q-83 0 -83 -80v-29h288v39q0 91 55.5 136t138.5 45q61 0 120 -17
l-18 -107q-39 13 -76 13q-83 0 -83 -80v-29h386v-490h-137v373h-249v-373h-137v373h-288v-373h-137z" />
    <glyph glyph-name="f_f_l" unicode="ffl" horiz-adv-x="1100" 
d="M103 0v373h-88v117h88v39q0 91 55.5 136t138.5 45q61 0 120 -17l-18 -107q-38 13 -76 13q-83 0 -83 -80v-29h288v39q0 91 55.5 136t138.5 45q61 0 120 -17l-18 -107q-39 13 -76 13q-83 0 -83 -80v-29h166v-117h-166v-373h-137v373h-288v-373h-137zM907 0v700h137v-700
h-137z" />
    <glyph glyph-name=".notdef" horiz-adv-x="577" 
d="M87 700h402v-700h-402v700zM439 50v600h-302v-600h302z" />
    <glyph glyph-name=".null" 
 />
    <glyph glyph-name="nonmarkingreturn" horiz-adv-x="333" 
 />
    <glyph glyph-name="CR" unicode="&#xd;" horiz-adv-x="600" 
 />
    <glyph glyph-name="space" unicode=" " horiz-adv-x="240" 
 />
    <glyph glyph-name="exclam" unicode="!" horiz-adv-x="304" 
d="M89 227l-12 473h147l-12 -473h-123zM151 -5q-35 0 -59.5 24t-24.5 59q0 34 24.5 58.5t59.5 24.5t60 -24.5t25 -58.5t-25 -58.5t-60 -24.5z" />
    <glyph glyph-name="quotedbl" unicode="&#x22;" horiz-adv-x="525" 
d="M87 411v309h134l-24 -309h-110zM316 411v309h133l-24 -309h-109z" />
    <glyph glyph-name="numbersign" unicode="#" horiz-adv-x="734" 
d="M109 0l27 154h-107l16 114h111l30 168h-113l16 113h117l27 151h120l-26 -151h144l27 151h120l-27 -151h114l-15 -113h-119l-30 -168h121l-16 -114h-125l-27 -154h-120l27 154h-144l-28 -154h-120zM277 268h144l30 168h-145z" />
    <glyph glyph-name="dollar" unicode="$" horiz-adv-x="625" 
d="M266 -100v94q-85 12 -144 58t-76 122l128 39q18 -66 92 -87v171q-46 12 -77.5 24.5t-67 35.5t-54 59.5t-18.5 85.5q0 87 61 142.5t156 63.5v72h87v-74q78 -13 132.5 -58.5t70.5 -121.5l-128 -39q-18 62 -75 83v-162q33 -7 59.5 -14.5t60 -24t56 -37.5t38.5 -54.5
t16 -75.5q0 -92 -62 -148t-168 -63v-91h-87zM266 429v150q-65 -16 -65 -73q0 -54 65 -77zM353 121q79 14 79 78q0 31 -20 48t-59 28v-154z" />
    <glyph glyph-name="percent" unicode="%" horiz-adv-x="940" 
d="M221 343q-83 0 -135.5 50t-52.5 131q0 83 52.5 134.5t135.5 51.5t136 -51.5t53 -134.5q0 -81 -53 -131t-136 -50zM159 0l502 700h120l-501 -700h-121zM221 440q35 0 59.5 24.5t24.5 61.5q0 38 -24.5 62.5t-59.5 24.5q-34 0 -58.5 -24.5t-24.5 -62.5t24 -62t59 -24z
M718 -10q-82 0 -135 50.5t-53 130.5q0 84 52.5 135t135.5 51t136 -51t53 -135q0 -80 -53.5 -130.5t-135.5 -50.5zM718 87q34 0 59 24.5t25 62.5q0 37 -24.5 61.5t-59.5 24.5q-34 0 -58.5 -24t-24.5 -62t24.5 -62.5t58.5 -24.5z" />
    <glyph glyph-name="ampersand" unicode="&#x26;" horiz-adv-x="712" 
d="M286 -10q-111 0 -181.5 57.5t-70.5 154.5q0 127 141 193q-57 74 -57 138q0 71 56 124t151 53q93 0 152 -52.5t59 -132.5q0 -123 -166 -180l122 -129q33 54 36 109h118q0 -99 -74 -195l121 -130h-155l-55 58q-84 -68 -197 -68zM299 426q51 26 76 48.5t25 55.5
q0 32 -21 52.5t-52 20.5q-32 0 -52.5 -21.5t-20.5 -57.5q0 -41 45 -98zM297 97q57 0 105 46l-157 167q-68 -41 -68 -100q0 -51 34.5 -82t85.5 -31z" />
    <glyph glyph-name="quotesingle" unicode="'" horiz-adv-x="297" 
d="M87 411v309h134l-24 -309h-110z" />
    <glyph glyph-name="parenleft" unicode="(" horiz-adv-x="314" 
d="M192 -153q-157 171 -157 437t157 437l116 -47q-136 -167 -136 -390t136 -390z" />
    <glyph glyph-name="parenright" unicode=")" horiz-adv-x="314" 
d="M134 -153l-116 47q136 167 136 390t-136 390l116 47q157 -171 157 -437t-157 -437z" />
    <glyph glyph-name="asterisk" unicode="*" horiz-adv-x="466" 
d="M149 356l-72 53l85 108l-122 43l26 81l124 -44v113h86v-113l123 40l26 -81l-120 -39l83 -113l-71 -52l-87 114z" />
    <glyph glyph-name="plus" unicode="+" horiz-adv-x="579" 
d="M539 386v-120h-190v-198h-119v198h-190v120h190v195h119v-195h190z" />
    <glyph glyph-name="comma" unicode="," horiz-adv-x="295" 
d="M118 -126l-54 54q50 40 57 74q-23 9 -37 30t-14 46q0 34 25 58.5t59 24.5q35 0 60 -24.5t25 -65.5q0 -89 -121 -197z" />
    <glyph glyph-name="hyphen" unicode="-" horiz-adv-x="425" 
d="M62 209v119h301v-119h-301z" />
    <glyph glyph-name="period" unicode="." horiz-adv-x="313" 
d="M156 -5q-35 0 -59.5 24t-24.5 59q0 34 24.5 58.5t59.5 24.5t59.5 -24.5t24.5 -58.5q0 -35 -24.5 -59t-59.5 -24z" />
    <glyph glyph-name="slash" unicode="/" horiz-adv-x="401" 
d="M-13 -70l291 800h136l-292 -800h-135z" />
    <glyph glyph-name="zero" unicode="0" horiz-adv-x="667" 
d="M334 -10q-132 0 -211.5 96.5t-79.5 263.5t79.5 263.5t210.5 96.5q132 0 211.5 -96.5t79.5 -263.5t-79.5 -263.5t-210.5 -96.5zM334 114q69 0 109 62.5t40 173.5t-40.5 174t-109.5 63t-109 -62.5t-40 -174.5t40 -174t110 -62z" />
    <glyph glyph-name="one" unicode="1" horiz-adv-x="387" 
d="M165 0v556q-77 -30 -146 -30v121q87 0 168 53h119v-700h-141z" />
    <glyph glyph-name="two" unicode="2" horiz-adv-x="556" 
d="M23 0v83l177 178q7 7 28 27.5t28.5 28.5t25 26t24.5 27t20 24.5t18 26t12 24t9.5 25t2.5 23.5q0 40 -28.5 67t-75.5 27q-42 0 -71.5 -23t-36.5 -65l-120 36q17 85 81.5 130t154.5 45q104 0 171 -55.5t67 -141.5q0 -38 -14 -75.5t-44 -76.5t-47 -57.5t-53 -55.5l-127 -128
h289v-120h-491z" />
    <glyph glyph-name="three" unicode="3" horiz-adv-x="570" 
d="M270 -10q-96 0 -161.5 45.5t-80.5 129.5l120 36q7 -43 38 -65.5t78 -22.5q50 0 84 24.5t34 71.5t-34.5 71.5t-89.5 24.5h-67v109h67q50 0 82 21.5t32 62.5q0 43 -33 66t-80 23q-43 0 -73.5 -23.5t-37.5 -64.5l-120 36q17 84 81.5 129.5t158.5 45.5q110 0 177 -58t67 -151
q0 -96 -84 -144q94 -51 94 -155q0 -95 -70.5 -153.5t-181.5 -58.5z" />
    <glyph glyph-name="four" unicode="4" horiz-adv-x="621" 
d="M368 0v135h-350v117l353 448h138v-445h90v-120h-90v-135h-141zM165 255h203v253z" />
    <glyph glyph-name="five" unicode="5" horiz-adv-x="585" 
d="M293 -10q-89 0 -155 44t-82 124l121 36q7 -38 36.5 -59.5t71.5 -21.5q52 0 86 34t34 89q0 54 -33.5 88t-84.5 34q-41 0 -69 -20t-36 -57l-114 37v382h444v-120h-324v-134q43 34 107 34q109 0 180 -68.5t71 -176.5t-71 -176.5t-182 -68.5z" />
    <glyph glyph-name="six" unicode="6" horiz-adv-x="577" 
d="M320 479q98 0 164 -70.5t66 -172.5q0 -108 -75.5 -177t-186.5 -69q-109 0 -184 68.5t-75 174.5q0 55 30 124l155 343h139l-100 -231q33 10 67 10zM289 113q51 0 85.5 33.5t34.5 87.5q0 55 -34.5 89.5t-85.5 34.5q-50 0 -84.5 -34.5t-34.5 -89.5q0 -54 34.5 -87.5
t84.5 -33.5z" />
    <glyph glyph-name="seven" unicode="7" horiz-adv-x="523" 
d="M73 0l264 573h-319v127h489v-83l-274 -617h-160z" />
    <glyph glyph-name="eight" unicode="8" horiz-adv-x="604" 
d="M302 -10q-116 0 -186.5 59.5t-70.5 149.5q0 107 101 158q-88 50 -88 148q0 88 66 146.5t178 58.5q113 0 178.5 -58.5t65.5 -146.5q0 -98 -87 -148q101 -51 101 -158q0 -90 -71 -149.5t-187 -59.5zM302 414q45 0 74 23t29 62q0 40 -29.5 64t-73.5 24t-74 -24t-30 -64
q0 -39 29.5 -62t74.5 -23zM302 113q51 0 84 26t33 70t-33 70t-84 26t-84 -26t-33 -70t33 -70t84 -26z" />
    <glyph glyph-name="nine" unicode="9" horiz-adv-x="577" 
d="M289 710q109 0 184 -68.5t75 -174.5q0 -58 -29 -124l-156 -343h-139l100 231q-33 -10 -66 -10q-98 0 -164 70.5t-66 172.5q0 108 75 177t186 69zM288 342q50 0 85 34.5t35 89.5q0 53 -35 87t-85 34t-84.5 -33.5t-34.5 -87.5q0 -55 34.5 -89.5t84.5 -34.5z" />
    <glyph glyph-name="colon" unicode=":" horiz-adv-x="293" 
d="M146 329q-35 0 -59.5 24t-24.5 58q0 35 24.5 59t59.5 24t59.5 -24.5t24.5 -58.5t-24.5 -58t-59.5 -24zM146 -5q-35 0 -59.5 24t-24.5 59q0 34 24.5 58t59.5 24t59.5 -23.5t24.5 -58.5t-24.5 -59t-59.5 -24z" />
    <glyph glyph-name="semicolon" unicode=";" horiz-adv-x="299" 
d="M149 494q36 0 60.5 -24t24.5 -59q0 -34 -24.5 -58.5t-60.5 -24.5q-34 0 -59 24.5t-25 58.5t24.5 58.5t59.5 24.5zM116 -126l-54 54q50 40 57 74q-23 9 -37 30t-14 46q0 34 24.5 58.5t59.5 24.5t60 -24.5t25 -65.5q0 -89 -121 -197z" />
    <glyph glyph-name="less" unicode="&#x3c;" horiz-adv-x="582" 
d="M520 584v-143l-366 -145l366 -145v-143l-481 220v137z" />
    <glyph glyph-name="equal" unicode="=" horiz-adv-x="647" 
d="M553 484v-106h-460v106h460zM553 265v-106h-460v106h460z" />
    <glyph glyph-name="greater" unicode="&#x3e;" horiz-adv-x="582" 
d="M62 584l481 -219v-137l-481 -220v143l366 145l-366 145v143z" />
    <glyph glyph-name="question" unicode="?" horiz-adv-x="527" 
d="M186 227v180h33q55 0 97.5 22t42.5 70q0 39 -27.5 61t-72.5 22q-94 0 -116 -92l-128 41q17 87 85 133t158 46q112 0 177.5 -55t65.5 -140q0 -69 -50 -119t-141 -72v-97h-124zM248 -5q-35 0 -59.5 24t-24.5 59q0 34 24.5 58.5t59.5 24.5t60 -24.5t25 -58.5t-25 -58.5
t-60 -24.5z" />
    <glyph glyph-name="at" unicode="@" horiz-adv-x="920" 
d="M428 -185q-161 0 -272 112t-111 299q0 197 122.5 318.5t308.5 121.5q176 0 290 -111.5t114 -293.5q0 -69 -18.5 -122t-49.5 -83t-66 -44.5t-72 -14.5q-49 0 -84.5 26.5t-44.5 79.5q-53 -76 -144 -76q-67 0 -115.5 52t-48.5 140q0 104 62.5 177t146.5 73q86 0 124 -74
l8 64h94l-39 -292q-6 -42 7 -71t49 -29q52 0 83.5 48t31.5 136q0 166 -93.5 254.5t-235.5 88.5q-155 0 -255 -99t-100 -267q0 -160 89 -250t222 -90q64 0 126.5 19.5t102.5 50.5l42 -60q-51 -38 -126 -60.5t-148 -22.5zM429 109q52 0 88 47.5t36 115.5q0 56 -26 86t-68 30
q-54 0 -90 -46t-36 -114q0 -55 26 -87t70 -32z" />
    <glyph glyph-name="A" unicode="A" horiz-adv-x="730" 
d="M444 700l281 -700h-149l-60 156h-302l-60 -156h-149l281 700h158zM262 283h205l-102 263z" />
    <glyph glyph-name="B" unicode="B" horiz-adv-x="647" 
d="M65 0v700h307q105 0 163.5 -51t58.5 -139q0 -90 -85 -136q103 -52 103 -165q0 -99 -61.5 -154t-178.5 -55h-307zM206 425h152q43 0 66.5 20.5t23.5 57.5q0 78 -90 78h-152v-156zM206 118h155q51 0 78.5 26t27.5 70q0 43 -28 68t-78 25h-155v-189z" />
    <glyph glyph-name="C" unicode="C" horiz-adv-x="741" 
d="M388 -10q-153 0 -253 100.5t-100 260.5t100 259.5t253 99.5q117 0 206.5 -57.5t115.5 -162.5l-137 -41q-14 56 -64.5 91t-120.5 35q-90 0 -148 -62.5t-58 -162.5t58 -162.5t148 -62.5q71 0 121.5 35t64.5 91l136 -41q-26 -105 -115.5 -162.5t-206.5 -57.5z" />
    <glyph glyph-name="D" unicode="D" horiz-adv-x="703" 
d="M65 0v700h246q169 0 263 -91.5t94 -256.5t-94.5 -258.5t-262.5 -93.5h-246zM206 129h103q101 0 157 59.5t56 163.5t-56 161.5t-157 57.5h-103v-442z" />
    <glyph glyph-name="E" unicode="E" horiz-adv-x="598" 
d="M65 0v700h475v-127h-334v-159h317v-126h-317v-161h341v-127h-482z" />
    <glyph glyph-name="F" unicode="F" horiz-adv-x="578" 
d="M65 0v700h475v-127h-334v-165h312v-127h-312v-281h-141z" />
    <glyph glyph-name="G" unicode="G" horiz-adv-x="765" 
d="M309 367h406v-367h-127v67q-75 -77 -199 -77q-153 0 -253.5 100.5t-100.5 260.5t100 259.5t253 99.5q117 0 206.5 -57.5t115.5 -162.5l-137 -41q-14 56 -64.5 91t-120.5 35q-90 0 -148 -62.5t-58 -162.5q0 -101 59 -163t154 -62q70 0 123 33.5t70 84.5h-279v124z" />
    <glyph glyph-name="H" unicode="H" horiz-adv-x="707" 
d="M65 0v700h141v-287h295v287h141v-700h-141v287h-295v-287h-141z" />
    <glyph glyph-name="I" unicode="I" horiz-adv-x="273" 
d="M66 0v700h141v-700h-141z" />
    <glyph glyph-name="J" unicode="J" horiz-adv-x="529" 
d="M151 257v-41q0 -42 23.5 -66.5t62.5 -24.5q42 0 65.5 26t23.5 72v477h141v-477q0 -114 -61.5 -173.5t-168.5 -59.5q-100 0 -162.5 58.5t-62.5 160.5v19z" />
    <glyph glyph-name="K" unicode="K" horiz-adv-x="647" 
d="M65 0v700h141v-301l267 301h168l-261 -303l272 -397h-176l-199 292l-71 -72v-220h-141z" />
    <glyph glyph-name="L" unicode="L" horiz-adv-x="556" 
d="M65 0v700h141v-573h339v-127h-480z" />
    <glyph glyph-name="M" unicode="M" horiz-adv-x="892" 
d="M652 700h174v-700h-141v433l-178 -433h-122l-179 435v-435h-141v700h174l207 -493z" />
    <glyph glyph-name="N" unicode="N" horiz-adv-x="732" 
d="M526 700h140v-700h-129l-331 452v-452h-141v700h130l331 -453v453z" />
    <glyph glyph-name="O" unicode="O" horiz-adv-x="789" 
d="M394 -10q-156 0 -257.5 100.5t-101.5 260.5t101.5 259.5t257.5 99.5t258 -99.5t102 -259.5t-102 -260.5t-258 -100.5zM394 125q94 0 153.5 62t59.5 163t-59.5 163t-153.5 62t-153 -62t-59 -163t59 -163t153 -62z" />
    <glyph glyph-name="P" unicode="P" horiz-adv-x="628" 
d="M65 0v700h275q123 0 190.5 -63.5t67.5 -172.5q0 -108 -67.5 -172t-190.5 -64h-134v-228h-141zM206 355h138q52 0 81 29t29 80t-29 80t-81 29h-138v-218z" />
    <glyph glyph-name="Q" unicode="Q" horiz-adv-x="791" 
d="M683 -85l-115 115q-78 -40 -174 -40q-157 0 -258.5 100t-101.5 261q0 160 101.5 259.5t258.5 99.5q156 0 257.5 -99.5t101.5 -259.5q0 -144 -86 -243l104 -104zM394 125q33 0 67 13l-119 118l88 88l135 -134q41 58 41 140q0 101 -59 163t-153 62t-153 -62t-59 -163
q0 -100 59.5 -162.5t152.5 -62.5z" />
    <glyph glyph-name="R" unicode="R" horiz-adv-x="639" 
d="M65 0v700h275q125 0 191.5 -61.5t66.5 -164.5q0 -76 -41 -131.5t-115 -78.5l164 -264h-149l-152 248h-99v-248h-141zM206 375h143q50 0 77.5 27.5t27.5 71.5t-27.5 71.5t-77.5 27.5h-143v-198z" />
    <glyph glyph-name="S" unicode="S" horiz-adv-x="614" 
d="M317 -10q-107 0 -182.5 48.5t-95.5 141.5l128 39q13 -50 53 -75.5t92 -25.5q48 0 80.5 20t32.5 60q0 20 -8 34t-27 24t-36 15.5t-48 13.5q-29 7 -38 9.5t-37.5 10.5t-40.5 13.5t-37 16.5t-36.5 21t-29 26t-25.5 33t-14 39.5t-6 47.5q0 96 69 152t181 56q97 0 168 -48.5
t90 -141.5l-128 -39q-13 50 -48.5 75t-81.5 26q-42 0 -70 -19.5t-28 -57.5q0 -37 27.5 -55.5t84.5 -31.5q107 -24 153 -47q118 -57 118 -171q0 -96 -70.5 -153t-189.5 -57z" />
    <glyph glyph-name="T" unicode="T" horiz-adv-x="573" 
d="M216 0v573h-205v127h551v-127h-205v-573h-141z" />
    <glyph glyph-name="U" unicode="U" horiz-adv-x="670" 
d="M335 -10q-125 0 -201 77.5t-76 204.5v428h141v-429q0 -65 38 -105.5t99 -40.5t97.5 40.5t36.5 105.5v429h141v-430q0 -126 -75.5 -203t-200.5 -77z" />
    <glyph glyph-name="V" unicode="V" horiz-adv-x="720" 
d="M566 700h149l-280 -700h-149l-281 700h149l206 -531z" />
    <glyph glyph-name="W" unicode="W" horiz-adv-x="1084" 
d="M918 700h154l-207 -700h-163l-161 499l-161 -499h-162l-207 700h154l140 -513l161 513h151l161 -513z" />
    <glyph glyph-name="X" unicode="X" horiz-adv-x="697" 
d="M686 700l-252 -363l238 -337h-158l-171 242l-173 -242h-158l253 354l-245 346h158l176 -249l174 249h158z" />
    <glyph glyph-name="Y" unicode="Y" horiz-adv-x="676" 
d="M526 700h151l-268 -461v-239h-141v239l-268 461h150l188 -333z" />
    <glyph glyph-name="Z" unicode="Z" horiz-adv-x="647" 
d="M236 127h373v-127h-571v94l374 479h-360v127h552v-94z" />
    <glyph glyph-name="bracketleft" unicode="[" horiz-adv-x="382" 
d="M75 -132v832h287v-119h-147v-594h147v-119h-287z" />
    <glyph glyph-name="backslash" unicode="\" horiz-adv-x="401" 
d="M423 -70h-134l-292 800h135z" />
    <glyph glyph-name="bracketright" unicode="]" horiz-adv-x="382" 
d="M320 -132h-287v119h147v594h-147v119h287v-832z" />
    <glyph glyph-name="asciicircum" unicode="^" horiz-adv-x="555" 
d="M217 710h122l191 -392h-121l-131 277l-131 -277h-121z" />
    <glyph glyph-name="underscore" unicode="_" horiz-adv-x="701" 
d="M614 -46v-119h-527v119h527z" />
    <glyph glyph-name="grave" unicode="`" 
d="M98 564h-101l-96 160h129z" />
    <glyph glyph-name="a" unicode="a" horiz-adv-x="545" 
d="M502 108q4 0 22 4v-115q-23 -7 -52 -7q-90 0 -120 57q-52 -57 -151 -57q-76 0 -124 39t-48 109q0 65 44 103.5t116 45.5l150 15v10q0 37 -24 58t-61 21q-66 0 -82 -62l-121 19q13 79 71.5 115.5t140.5 36.5q99 0 156 -48t57 -137v-180q0 -27 26 -27zM339 195v16l-113 -14
q-30 -3 -46.5 -17.5t-16.5 -36.5q0 -26 22 -39t57 -12q43 2 70 29t27 74z" />
    <glyph glyph-name="b" unicode="b" horiz-adv-x="616" 
d="M346 500q102 0 171.5 -71.5t69.5 -183.5q0 -111 -69 -183t-171 -72q-98 0 -153 63v-53h-137v700h137v-262q56 62 152 62zM319 109q54 0 90 37.5t36 98.5q0 62 -36 99t-90 37t-89.5 -37.5t-35.5 -98.5t35.5 -98.5t89.5 -37.5z" />
    <glyph glyph-name="c" unicode="c" horiz-adv-x="532" 
d="M283 -10q-109 0 -181.5 70.5t-72.5 183.5q0 112 72 184t182 72q85 0 149.5 -42t81.5 -119l-120 -37q-7 35 -36 55.5t-68 20.5q-52 0 -86 -36.5t-34 -96.5t34 -96t86 -36q39 0 68 20t36 55l120 -36q-17 -78 -81.5 -120t-149.5 -42z" />
    <glyph glyph-name="d" unicode="d" horiz-adv-x="617" 
d="M423 700h137v-700h-137v53q-55 -63 -154 -63q-102 0 -171 72t-69 183q0 112 69.5 183.5t172.5 71.5q96 0 152 -62v262zM298 109q54 0 89.5 37.5t35.5 98.5t-35.5 98.5t-89.5 37.5t-90.5 -37.5t-36.5 -98.5t36.5 -98.5t90.5 -37.5z" />
    <glyph glyph-name="e" unicode="e" horiz-adv-x="556" 
d="M286 -10q-111 0 -184 70.5t-73 184.5q0 113 72.5 184t181.5 71q106 0 175 -67t69 -176q0 -14 -3 -44h-357q7 -55 39.5 -85t79.5 -30q38 0 66 19t35 54l120 -33q-19 -73 -79.5 -110.5t-141.5 -37.5zM172 305h223q-6 36 -36 60.5t-75 24.5q-86 0 -112 -85z" />
    <glyph glyph-name="f" unicode="f" horiz-adv-x="425" 
d="M103 0v373h-88v117h88v39q0 91 55.5 136t138.5 45q61 0 120 -17l-18 -107q-38 13 -76 13q-83 0 -83 -80v-29h166v-117h-166v-373h-137z" />
    <glyph glyph-name="g" unicode="g" horiz-adv-x="617" 
d="M423 490h137v-455q0 -106 -70 -175.5t-193 -69.5q-88 0 -156.5 39t-93.5 111l119 40q8 -33 43 -54.5t83 -21.5q57 0 94 31.5t37 87.5v30q-55 -63 -154 -63q-101 0 -170.5 72.5t-69.5 182.5q0 112 69.5 183.5t172.5 71.5q96 0 152 -62v52zM298 109q54 0 89.5 37.5
t35.5 98.5t-35.5 98.5t-89.5 37.5t-90.5 -37.5t-36.5 -98.5t36.5 -98.5t90.5 -37.5z" />
    <glyph glyph-name="h" unicode="h" horiz-adv-x="574" 
d="M332 500q84 0 136.5 -48.5t52.5 -136.5v-315h-137v275q0 51 -25.5 76t-69.5 25t-69.5 -28.5t-25.5 -80.5v-267h-137v700h137v-256q50 56 138 56z" />
    <glyph glyph-name="i" unicode="i" horiz-adv-x="267" 
d="M133 558q-37 0 -62.5 25.5t-25.5 61.5t25.5 61.5t62.5 25.5t63 -25.5t26 -61.5t-26 -61.5t-63 -25.5zM65 0v490h137v-490h-137z" />
    <glyph glyph-name="j" unicode="j" horiz-adv-x="299" 
d="M167 558q-37 0 -62.5 25.5t-25.5 61.5t25.5 61.5t62.5 25.5t63 -25.5t26 -61.5t-26 -61.5t-63 -25.5zM58 -207q-37 0 -84 10l15 115q24 -7 46 -7q64 0 64 64v515h137v-532q0 -83 -50.5 -124t-127.5 -41z" />
    <glyph glyph-name="k" unicode="k" horiz-adv-x="546" 
d="M57 0v700h137v-396l182 186h154l-176 -185l192 -305h-153l-134 198l-65 -69v-129h-137z" />
    <glyph glyph-name="l" unicode="l" horiz-adv-x="250" 
d="M57 0v700h137v-700h-137z" />
    <glyph glyph-name="m" unicode="m" horiz-adv-x="901" 
d="M659 500q84 0 136.5 -48.5t52.5 -136.5v-315h-137v275q0 51 -25.5 76t-69.5 25q-43 0 -69 -28.5t-26 -80.5v-267h-137v275q0 51 -25.5 76t-69.5 25t-69.5 -28.5t-25.5 -80.5v-267h-137v490h137v-46q50 56 138 56q119 0 167 -89q47 89 160 89z" />
    <glyph glyph-name="n" unicode="n" horiz-adv-x="574" 
d="M332 500q84 0 136.5 -48.5t52.5 -136.5v-315h-137v275q0 51 -25.5 76t-69.5 25t-69.5 -28.5t-25.5 -80.5v-267h-137v490h137v-46q50 56 138 56z" />
    <glyph glyph-name="o" unicode="o" horiz-adv-x="585" 
d="M293 -10q-113 0 -188.5 70.5t-75.5 182.5q0 115 75 186t189 71q113 0 188 -71.5t75 -185.5q0 -112 -75 -182.5t-188 -70.5zM293 113q53 0 88 35.5t35 95.5q0 62 -35 98t-88 36t-88 -36t-35 -98q0 -60 35 -95.5t88 -35.5z" />
    <glyph glyph-name="p" unicode="p" horiz-adv-x="616" 
d="M346 500q102 0 171.5 -71.5t69.5 -183.5q0 -111 -69 -183t-171 -72q-98 0 -153 63v-253h-137v690h137v-52q56 62 152 62zM319 109q54 0 90 37.5t36 98.5q0 62 -36 99t-90 37t-89.5 -37.5t-35.5 -98.5t35.5 -98.5t89.5 -37.5z" />
    <glyph glyph-name="q" unicode="q" horiz-adv-x="617" 
d="M423 490h137v-690h-137v253q-55 -63 -154 -63q-102 0 -171 72t-69 183q0 112 69.5 183.5t172.5 71.5q96 0 152 -62v52zM298 109q54 0 89.5 37.5t35.5 98.5t-35.5 98.5t-89.5 37.5t-90.5 -37.5t-36.5 -98.5t36.5 -98.5t90.5 -37.5z" />
    <glyph glyph-name="r" unicode="r" horiz-adv-x="415" 
d="M328 500q42 0 72 -10l-20 -130q-36 13 -77 13q-47 0 -78 -30.5t-31 -88.5v-254h-137v490h137v-46q50 56 134 56z" />
    <glyph glyph-name="s" unicode="s" horiz-adv-x="481" 
d="M245 -10q-83 0 -141.5 35.5t-73.5 101.5l114 30q9 -28 34.5 -43t60.5 -15q33 0 53.5 13t20.5 35q0 20 -17.5 28.5t-56.5 14.5q-36 5 -54 8.5t-53.5 15t-54 26t-34 41.5t-15.5 63q0 74 57.5 115t145.5 41q78 0 133 -34t71 -102l-116 -31q-7 29 -32.5 43.5t-57.5 14.5
q-60 0 -60 -44q0 -20 15 -29t46 -14q3 -1 27.5 -4t35.5 -5t36 -8t38.5 -12.5t32.5 -18t29 -25.5t17.5 -34.5t7.5 -44.5q0 -76 -61 -119t-148 -43z" />
    <glyph glyph-name="t" unicode="t" horiz-adv-x="412" 
d="M300 -10q-83 0 -138 45t-55 140v198h-92v117h66q26 29 26 140h137v-140h149v-117h-149v-192q0 -76 82 -76q33 0 62 12l18 -109q-47 -18 -106 -18z" />
    <glyph glyph-name="u" unicode="u" horiz-adv-x="570" 
d="M380 490h137v-490h-137v46q-50 -56 -137 -56q-80 0 -135 51t-55 144v305h137v-281q0 -46 26 -70.5t69 -24.5q44 0 69.5 28.5t25.5 80.5v267z" />
    <glyph glyph-name="v" unicode="v" horiz-adv-x="562" 
d="M414 490h142l-201 -490h-148l-201 490h143l133 -343z" />
    <glyph glyph-name="w" unicode="w" horiz-adv-x="855" 
d="M701 490h144l-158 -490h-153l-106 324l-106 -324h-154l-157 490h143l102 -343l107 343h129l108 -343z" />
    <glyph glyph-name="x" unicode="x" horiz-adv-x="539" 
d="M530 0h-151l-109 159l-110 -159h-151l174 246l-170 244h151l107 -160l107 160h150l-171 -245z" />
    <glyph glyph-name="y" unicode="y" horiz-adv-x="561" 
d="M414 490h145l-298 -690h-129l89 200l-218 490h145l134 -328z" />
    <glyph glyph-name="z" unicode="z" horiz-adv-x="522" 
d="M231 120h252v-120h-444v91l246 279h-235v120h426v-90z" />
    <glyph glyph-name="braceleft" unicode="{" horiz-adv-x="368" 
d="M295 -131q-97 0 -149.5 44.5t-52.5 125.5v125q0 35 -23 54t-63 19v95q40 0 63 19t23 53v125q0 82 52.5 126.5t149.5 44.5h53v-119h-53q-61 0 -61 -64v-113q0 -76 -75 -119q75 -45 75 -121v-113q0 -64 61 -64h53v-118h-53z" />
    <glyph glyph-name="bar" unicode="|" horiz-adv-x="307" 
d="M213 760v-928h-120v928h120z" />
    <glyph glyph-name="braceright" unicode="}" horiz-adv-x="368" 
d="M72 -131h-53v118h53q61 0 61 64v113q0 76 75 121q-75 43 -75 119v113q0 64 -61 64h-53v119h53q96 0 149 -44.5t53 -126.5v-125q0 -34 23 -53t63 -19v-95q-40 0 -63 -19t-23 -54v-125q0 -81 -53 -125.5t-149 -44.5z" />
    <glyph glyph-name="asciitilde" unicode="~" horiz-adv-x="647" 
d="M426 258q-42 0 -77 16.5t-62.5 33t-50.5 16.5q-44 0 -54 -61l-113 20q5 74 44 115t108 41q42 0 77 -16.5t62.5 -33t50.5 -16.5q45 0 54 61l113 -20q-5 -71 -43 -113.5t-109 -42.5z" />
    <glyph glyph-name="uni00A0" unicode="&#xa0;" horiz-adv-x="375" 
 />
    <glyph glyph-name="exclamdown" unicode="&#xa1;" horiz-adv-x="308" 
d="M151 505q35 0 60 -24.5t25 -58.5t-25 -58.5t-60 -24.5q-34 0 -59 24.5t-25 58.5t24.5 58.5t59.5 24.5zM213 273l13 -473h-147l11 473h123z" />
    <glyph glyph-name="cent" unicode="&#xa2;" horiz-adv-x="574" 
d="M263 -3v99q-94 14 -155.5 82.5t-61.5 168.5q0 102 61 171t156 83v99h86v-99q70 -10 119 -51t63 -108l-120 -36q-10 49 -62 67v-250q51 18 62 68l120 -36q-14 -67 -63 -108t-119 -51v-99h-86zM263 225v247q-35 -13 -56 -45.5t-21 -78.5q0 -45 21 -77.5t56 -45.5z" />
    <glyph glyph-name="sterling" unicode="&#xa3;" horiz-adv-x="626" 
d="M68 0v120h30q39 0 62 25.5t23 70.5q0 33 -14 73h-106v97h69q-31 73 -31 128q0 88 68 142t178 54q83 0 149 -36t90 -110l-118 -55q-24 73 -110 73q-54 0 -84.5 -28t-30.5 -78q0 -36 25 -90h218v-97h-178q10 -33 10 -65q0 -64 -33 -104h282v-120h-499z" />
    <glyph glyph-name="currency" unicode="&#xa4;" horiz-adv-x="636" 
d="M128 90l-72 72l76 76q-30 52 -30 117t30 117l-74 75l71 72l76 -77q51 27 112 27q64 0 114 -28l78 79l72 -71l-77 -78q29 -49 29 -116t-28 -114l77 -78l-72 -72l-77 79q-50 -29 -116 -29q-63 0 -112 27zM317 235q53 0 85 33t32 87t-32.5 87.5t-84.5 33.5t-83.5 -33.5
t-31.5 -87.5t31.5 -87t83.5 -33z" />
    <glyph glyph-name="yen" unicode="&#xa5;" horiz-adv-x="724" 
d="M292 0v121h-191v64h191v54l-12 21h-179v64h142l-219 376h150l189 -332l188 332h150l-219 -376h142v-64h-179l-12 -21v-54h191v-64h-191v-121h-141z" />
    <glyph glyph-name="brokenbar" unicode="&#xa6;" horiz-adv-x="307" 
d="M213 760v-408h-120v408h120zM213 240v-408h-120v408h120z" />
    <glyph glyph-name="section" unicode="&#xa7;" horiz-adv-x="534" 
d="M272 -3q-77 0 -134.5 33t-73.5 98l111 30q8 -24 32 -38t57 -14q32 0 50.5 12.5t18.5 33.5q0 20 -16.5 29.5t-53.5 16.5q-93 14 -130 33q-70 39 -71 122q0 65 73 101q-73 36 -73 102q0 72 56 113t140 41q78 0 132 -33t69 -97l-113 -31q-6 25 -29 38.5t-54 13.5
q-28 1 -44 -11.5t-16 -33.5q0 -34 61 -45q3 0 25.5 -3.5t30.5 -5t30 -6t32 -9.5t27.5 -13t26.5 -18t19 -23.5t14.5 -31t4.5 -38.5q0 -67 -71 -106q71 -35 71 -97q0 -76 -58.5 -119.5t-143.5 -43.5zM311 293q35 13 35 49q0 33 -20 47t-65 21l-31 4q-40 -10 -40 -49
q0 -33 18.5 -46.5t54.5 -18.5z" />
    <glyph glyph-name="dieresis" unicode="&#xa8;" 
d="M-109 568q-34 0 -58.5 24.5t-24.5 59.5q0 34 24.5 58.5t58.5 24.5q35 0 59 -24.5t24 -58.5q0 -35 -24 -59.5t-59 -24.5zM108 568q-34 0 -58.5 24.5t-24.5 59.5q0 34 24.5 58.5t58.5 24.5q35 0 59 -24.5t24 -58.5q0 -35 -24 -59.5t-59 -24.5z" />
    <glyph glyph-name="copyright" unicode="&#xa9;" horiz-adv-x="817" 
d="M409 710q157 0 259.5 -100t102.5 -260t-102.5 -260t-259.5 -100t-260 100t-103 260t103 260t260 100zM409 639q-124 0 -205 -80t-81 -209t81 -209t205 -80t205 80t81 209t-81 209t-205 80zM417 170q-79 0 -130 50.5t-51 130.5q0 79 51.5 129t127.5 50q57 0 101.5 -28.5
t58.5 -82.5l-75 -20q-7 27 -29.5 42t-54.5 15q-44 0 -71.5 -29t-27.5 -77t27.5 -77t72.5 -29q31 0 53.5 15t29.5 42l75 -20q-13 -54 -56.5 -82.5t-101.5 -28.5z" />
    <glyph glyph-name="ordfeminine" unicode="&#xaa;" horiz-adv-x="385" 
d="M136 350q-52 0 -85.5 28.5t-33.5 76.5q0 47 30 74t81 32l101 9v5q0 23 -14 35.5t-36 12.5q-40 0 -50 -38l-98 14q9 58 52 84.5t101 26.5q73 0 113.5 -33.5t40.5 -96.5v-223h-109v28q-35 -35 -93 -35zM168 431q29 0 45 16t16 45v7l-68 -7q-36 -5 -36 -32q0 -29 43 -29z
" />
    <glyph glyph-name="guillemotleft" unicode="&#xab;" horiz-adv-x="541" 
d="M281 441l-123 -196l123 -196h-133l-131 196l131 196h133zM523 441l-123 -196l123 -196h-133l-131 196l131 196h133z" />
    <glyph glyph-name="logicalnot" unicode="&#xac;" horiz-adv-x="621" 
d="M55 386h473v-285h-119v165h-354v120z" />
    <glyph glyph-name="uni00AD" unicode="&#xad;" horiz-adv-x="425" 
d="M62 209v119h301v-119h-301z" />
    <glyph glyph-name="registered" unicode="&#xae;" horiz-adv-x="817" 
d="M409 -10q-157 0 -260 100t-103 260t103 260t260 100t259.5 -100t102.5 -260t-102.5 -260t-259.5 -100zM409 61q124 0 205 80t81 209t-81 209t-205 80t-205 -80t-81 -209t81 -209t205 -80zM287 177v350h139q60 0 95.5 -32t35.5 -86q0 -74 -62 -104l66 -128h-81l-57 113
h-58v-113h-78zM365 360h63q22 0 35.5 13t13.5 35t-13.5 35.5t-35.5 13.5h-63v-97z" />
    <glyph glyph-name="macron" unicode="&#xaf;" 
d="M-165 574v98h329v-98h-329z" />
    <glyph glyph-name="degree" unicode="&#xb0;" horiz-adv-x="472" 
d="M235 371q-76 0 -124 48t-48 122t48 121.5t124 47.5t124.5 -47.5t48.5 -121.5t-48.5 -122t-124.5 -48zM235 460q34 0 56.5 23t22.5 58t-22.5 57.5t-56.5 22.5t-56.5 -22.5t-22.5 -57.5t22.5 -58t56.5 -23z" />
    <glyph glyph-name="plusminus" unicode="&#xb1;" horiz-adv-x="599" 
d="M360 471h186v-119h-186v-178h-119v178h-188v119h188v177h119v-177zM53 0v106h493v-106h-493z" />
    <glyph glyph-name="uni00B2" unicode="&#xb2;" horiz-adv-x="376" 
d="M13 262v63l119 119q71 70 87 95q16 26 16 46q0 22 -16 38.5t-42 16.5q-53 0 -62 -54l-95 27q11 61 56 92t106 31q72 0 118.5 -38t46.5 -95q0 -75 -95 -170l-78 -77h175v-94h-336z" />
    <glyph glyph-name="uni00B3" unicode="&#xb3;" horiz-adv-x="383" 
d="M182 255q-65 0 -110.5 31t-56.5 91l95 27q9 -52 67 -52q28 0 47.5 14t19.5 40q0 25 -20 38.5t-51 13.5h-41v86h41q28 0 46 12t18 34q0 24 -19 37t-45 13q-24 0 -41.5 -14t-21.5 -40l-95 27q12 61 56.5 92t109.5 31q76 0 121.5 -40.5t45.5 -102.5q0 -61 -50 -93
q57 -36 57 -101q0 -63 -48 -103.5t-125 -40.5z" />
    <glyph glyph-name="acute" unicode="&#xb4;" 
d="M-99 564l68 160h129l-96 -160h-101z" />
    <glyph glyph-name="uni00B5" unicode="&#xb5;" horiz-adv-x="570" 
d="M380 490h137v-490h-137v45q-49 -55 -131 -55q-41 0 -59 20v-156h-137v636h137v-275q0 -50 25.5 -75.5t69.5 -25.5t69.5 28.5t25.5 80.5v267z" />
    <glyph glyph-name="paragraph" unicode="&#xb6;" horiz-adv-x="738" 
d="M400 -60h-140v327q-100 0 -163 60t-63 156q0 97 63 157t163 60h140v-760zM504 700h140v-760h-140v760z" />
    <glyph glyph-name="periodcentered" unicode="&#xb7;" horiz-adv-x="313" 
d="M156 277q-35 0 -59.5 24t-24.5 59q0 34 24.5 58t59.5 24t59.5 -24t24.5 -58q0 -35 -24.5 -59t-59.5 -24z" />
    <glyph glyph-name="cedilla" unicode="&#xb8;" 
d="M0 -211q-73 0 -135 48l40 68q32 -32 82 -32q25 0 40 13t15 35q0 57 -109 82l43 27q77 -12 118 -47t41 -85q0 -54 -40 -81.5t-95 -27.5z" />
    <glyph glyph-name="uni00B9" unicode="&#xb9;" horiz-adv-x="270" 
d="M107 262v355q-54 -18 -96 -18v95q60 0 115 36h93v-468h-112z" />
    <glyph glyph-name="ordmasculine" unicode="&#xba;" horiz-adv-x="409" 
d="M205 350q-81 0 -135 50t-54 129q0 80 54 130.5t135 50.5q80 0 133.5 -50.5t53.5 -130.5q0 -79 -53.5 -129t-133.5 -50zM205 448q32 0 53.5 22.5t21.5 59.5q0 38 -21.5 60t-53.5 22q-33 0 -54.5 -22t-21.5 -60q0 -37 22 -59.5t54 -22.5z" />
    <glyph glyph-name="guillemotright" unicode="&#xbb;" horiz-adv-x="541" 
d="M18 441h134l131 -196l-131 -196h-134l123 196zM260 441h133l131 -196l-131 -196h-133l123 196z" />
    <glyph glyph-name="onequarter" unicode="&#xbc;" horiz-adv-x="932" 
d="M107 232v355q-54 -18 -96 -18v95q60 0 115 36h93v-468h-112zM150 0l415 700h107l-415 -700h-107zM751 0v85h-227v94l227 289h111v-289h56v-94h-56v-85h-111zM632 179h119v146z" />
    <glyph glyph-name="onehalf" unicode="&#xbd;" horiz-adv-x="928" 
d="M107 232v355q-54 -18 -96 -18v95q60 0 115 36h93v-468h-112zM150 0l415 700h107l-415 -700h-107zM565 0v63l119 120q39 38 54 53t32 41t17 46q0 22 -16 38.5t-42 16.5q-53 0 -62 -53l-95 27q11 60 56 91t106 31q72 0 118.5 -38t46.5 -95q0 -74 -95 -169l-78 -78h175v-94
h-336z" />
    <glyph glyph-name="threequarters" unicode="&#xbe;" horiz-adv-x="1045" 
d="M182 225q-65 0 -110.5 31t-56.5 91l95 27q9 -52 67 -52q28 0 47.5 14t19.5 40q0 25 -20 38.5t-51 13.5h-41v86h41q28 0 46 12t18 34q0 24 -19 37t-45 13q-24 0 -41.5 -14t-21.5 -40l-95 27q12 61 56.5 92t109.5 31q76 0 121.5 -40.5t45.5 -102.5q0 -61 -50 -93
q57 -36 57 -101q0 -63 -48 -103.5t-125 -40.5zM263 0l415 700h107l-415 -700h-107zM864 0v85h-227v94l227 289h111v-289h56v-94h-56v-85h-111zM745 179h119v146z" />
    <glyph glyph-name="questiondown" unicode="&#xbf;" horiz-adv-x="527" 
d="M278 504q36 0 60.5 -24t24.5 -59q0 -34 -24.5 -58t-60.5 -24q-35 0 -59.5 24t-24.5 58t24.5 58.5t59.5 24.5zM340 272v-180h-33q-55 0 -97 -22t-42 -70q0 -39 27.5 -61t72.5 -22q94 0 116 92l128 -41q-18 -87 -85.5 -133t-157.5 -46q-112 0 -178 55t-66 140
q1 69 51 119.5t141 72.5v96h123z" />
    <glyph glyph-name="Agrave" unicode="&#xc0;" horiz-adv-x="730" 
d="M419 774h-101l-96 160h129zM444 700l281 -700h-149l-60 156h-302l-60 -156h-149l281 700h158zM262 283h205l-102 263z" />
    <glyph glyph-name="Aacute" unicode="&#xc1;" horiz-adv-x="730" 
d="M509 934l-96 -160h-101l68 160h129zM444 700l281 -700h-149l-60 156h-302l-60 -156h-149l281 700h158zM262 283h205l-102 263z" />
    <glyph glyph-name="Acircumflex" unicode="&#xc2;" horiz-adv-x="730" 
d="M364 871l-69 -97h-115l120 160h128l121 -160h-115zM444 700l281 -700h-149l-60 156h-302l-60 -156h-149l281 700h158zM262 283h205l-102 263z" />
    <glyph glyph-name="Atilde" unicode="&#xc3;" horiz-adv-x="730" 
d="M295 814q-34 0 -41 -38h-80q0 55 33.5 86.5t83.5 31.5q39 0 82.5 -22.5t61.5 -22.5q34 0 41 37h80q0 -55 -33.5 -86.5t-83.5 -31.5q-39 0 -82.5 23t-61.5 23zM444 700l281 -700h-149l-60 156h-302l-60 -156h-149l281 700h158zM262 283h205l-102 263z" />
    <glyph glyph-name="Adieresis" unicode="&#xc4;" horiz-adv-x="730" 
d="M256 778q-34 0 -58.5 24.5t-24.5 59.5q0 34 24.5 58.5t58.5 24.5q35 0 59 -24.5t24 -58.5q0 -35 -24 -59.5t-59 -24.5zM473 778q-34 0 -58.5 24.5t-24.5 59.5q0 34 24.5 58.5t58.5 24.5q35 0 59 -24.5t24 -58.5q0 -35 -24 -59.5t-59 -24.5zM444 700l281 -700h-149
l-60 156h-302l-60 -156h-149l281 700h158zM262 283h205l-102 263z" />
    <glyph glyph-name="Aring" unicode="&#xc5;" horiz-adv-x="730" 
d="M365 749q-49 0 -81.5 31.5t-32.5 76.5t32 76t82 31t82.5 -31t32.5 -76t-32.5 -76.5t-82.5 -31.5zM365 896q-16 0 -28 -11t-12 -28q0 -18 12 -29t28 -11q17 0 29 11t12 29q0 17 -12 28t-29 11zM444 700l281 -700h-149l-60 156h-302l-60 -156h-149l281 700h158zM262 283
h205l-102 263z" />
    <glyph glyph-name="AE" unicode="&#xc6;" horiz-adv-x="1018" 
d="M5 0l281 700h673v-127h-334v-159h317v-126h-317v-161h341v-127h-482v156h-268l-62 -156h-149zM265 283h219v290h-102z" />
    <glyph glyph-name="Ccedilla" unicode="&#xc7;" horiz-adv-x="741" 
d="M388 125q71 0 121.5 35t64.5 91l136 -41q-22 -88 -89.5 -143t-161.5 -71q58 -37 58 -98q0 -54 -40 -81.5t-95 -27.5q-73 0 -135 48l40 68q32 -32 82 -32q25 0 40 13t15 35q0 46 -69 70q-140 11 -230 110t-90 250q0 160 100 259.5t253 99.5q117 0 206.5 -57.5
t115.5 -162.5l-137 -41q-14 56 -64.5 91t-120.5 35q-90 0 -148 -62.5t-58 -162.5t58 -162.5t148 -62.5z" />
    <glyph glyph-name="Egrave" unicode="&#xc8;" horiz-adv-x="598" 
d="M353 774h-101l-96 160h129zM65 0v700h475v-127h-334v-159h317v-126h-317v-161h341v-127h-482z" />
    <glyph glyph-name="Eacute" unicode="&#xc9;" horiz-adv-x="598" 
d="M246 774l68 160h129l-96 -160h-101zM65 0v700h475v-127h-334v-159h317v-126h-317v-161h341v-127h-482z" />
    <glyph glyph-name="Ecircumflex" unicode="&#xca;" horiz-adv-x="598" 
d="M234 934h128l121 -160h-115l-70 97l-69 -97h-115zM65 0v700h475v-127h-334v-159h317v-126h-317v-161h341v-127h-482z" />
    <glyph glyph-name="Edieresis" unicode="&#xcb;" horiz-adv-x="598" 
d="M190 778q-34 0 -58.5 24.5t-24.5 59.5q0 34 24.5 58.5t58.5 24.5q35 0 59 -24.5t24 -58.5q0 -35 -24 -59.5t-59 -24.5zM407 778q-34 0 -58.5 24.5t-24.5 59.5q0 34 24.5 58.5t58.5 24.5q35 0 59 -24.5t24 -58.5q0 -35 -24 -59.5t-59 -24.5zM65 0v700h475v-127h-334v-159
h317v-126h-317v-161h341v-127h-482z" />
    <glyph glyph-name="Igrave" unicode="&#xcc;" horiz-adv-x="273" 
d="M190 774h-101l-96 160h129zM66 0v700h141v-700h-141z" />
    <glyph glyph-name="Iacute" unicode="&#xcd;" horiz-adv-x="273" 
d="M83 774l68 160h129l-96 -160h-101zM66 0v700h141v-700h-141z" />
    <glyph glyph-name="Icircumflex" unicode="&#xce;" horiz-adv-x="273" 
d="M71 934h128l121 -160h-115l-70 97l-69 -97h-115zM66 0v700h141v-700h-141z" />
    <glyph glyph-name="Idieresis" unicode="&#xcf;" horiz-adv-x="273" 
d="M27 778q-34 0 -58.5 24.5t-24.5 59.5q0 34 24.5 58.5t58.5 24.5q35 0 59 -24.5t24 -58.5q0 -35 -24 -59.5t-59 -24.5zM244 778q-34 0 -58.5 24.5t-24.5 59.5q0 34 24.5 58.5t58.5 24.5q35 0 59 -24.5t24 -58.5q0 -35 -24 -59.5t-59 -24.5zM66 0v700h141v-700h-141z" />
    <glyph glyph-name="Eth" unicode="&#xd0;" horiz-adv-x="703" 
d="M311 700q169 0 263 -91.5t94 -256.5t-94.5 -258.5t-262.5 -93.5h-246v296h-91v107h91v297h246zM309 129q101 0 157 59.5t56 163.5t-56 161.5t-157 57.5h-103v-168h98v-107h-98v-167h103z" />
    <glyph glyph-name="Ntilde" unicode="&#xd1;" horiz-adv-x="732" 
d="M296 814q-34 0 -41 -38h-80q0 55 33.5 86.5t83.5 31.5q39 0 82.5 -22.5t61.5 -22.5q34 0 41 37h80q0 -55 -33.5 -86.5t-83.5 -31.5q-39 0 -82.5 23t-61.5 23zM526 700h140v-700h-129l-331 452v-452h-141v700h130l331 -453v453z" />
    <glyph glyph-name="Ograve" unicode="&#xd2;" horiz-adv-x="789" 
d="M449 774h-101l-96 160h129zM394 -10q-156 0 -257.5 100.5t-101.5 260.5t101.5 259.5t257.5 99.5t258 -99.5t102 -259.5t-102 -260.5t-258 -100.5zM394 125q94 0 153.5 62t59.5 163t-59.5 163t-153.5 62t-153 -62t-59 -163t59 -163t153 -62z" />
    <glyph glyph-name="Oacute" unicode="&#xd3;" horiz-adv-x="789" 
d="M342 774l68 160h129l-96 -160h-101zM394 -10q-156 0 -257.5 100.5t-101.5 260.5t101.5 259.5t257.5 99.5t258 -99.5t102 -259.5t-102 -260.5t-258 -100.5zM394 125q94 0 153.5 62t59.5 163t-59.5 163t-153.5 62t-153 -62t-59 -163t59 -163t153 -62z" />
    <glyph glyph-name="Ocircumflex" unicode="&#xd4;" horiz-adv-x="789" 
d="M330 934h128l121 -160h-115l-70 97l-69 -97h-115zM394 -10q-156 0 -257.5 100.5t-101.5 260.5t101.5 259.5t257.5 99.5t258 -99.5t102 -259.5t-102 -260.5t-258 -100.5zM394 125q94 0 153.5 62t59.5 163t-59.5 163t-153.5 62t-153 -62t-59 -163t59 -163t153 -62z" />
    <glyph glyph-name="Otilde" unicode="&#xd5;" horiz-adv-x="789" 
d="M469 768q-39 0 -82.5 23t-61.5 23q-34 0 -41 -38h-80q0 55 33.5 86.5t83.5 31.5q39 0 82.5 -22.5t61.5 -22.5q34 0 41 37h80q0 -55 -33.5 -86.5t-83.5 -31.5zM394 -10q-156 0 -257.5 100.5t-101.5 260.5t101.5 259.5t257.5 99.5t258 -99.5t102 -259.5t-102 -260.5
t-258 -100.5zM394 125q94 0 153.5 62t59.5 163t-59.5 163t-153.5 62t-153 -62t-59 -163t59 -163t153 -62z" />
    <glyph glyph-name="Odieresis" unicode="&#xd6;" horiz-adv-x="789" 
d="M286 778q-34 0 -58.5 24.5t-24.5 59.5q0 34 24.5 58.5t58.5 24.5q35 0 59 -24.5t24 -58.5q0 -35 -24 -59.5t-59 -24.5zM503 778q-34 0 -58.5 24.5t-24.5 59.5q0 34 24.5 58.5t58.5 24.5q35 0 59 -24.5t24 -58.5q0 -35 -24 -59.5t-59 -24.5zM394 -10q-156 0 -257.5 100.5
t-101.5 260.5t101.5 259.5t257.5 99.5t258 -99.5t102 -259.5t-102 -260.5t-258 -100.5zM394 125q94 0 153.5 62t59.5 163t-59.5 163t-153.5 62t-153 -62t-59 -163t59 -163t153 -62z" />
    <glyph glyph-name="multiply" unicode="&#xd7;" horiz-adv-x="553" 
d="M123 88l-84 84l153 154l-153 153l84 84l154 -153l153 153l85 -84l-153 -153l153 -154l-85 -84l-153 153z" />
    <glyph glyph-name="Oslash" unicode="&#xd8;" horiz-adv-x="789" 
d="M777 700l-102 -114q79 -95 79 -235q0 -160 -102 -260.5t-258 -100.5q-116 0 -204 57l-43 -47h-135l103 114q-80 96 -80 237q0 160 101.5 259.5t257.5 99.5q117 0 205 -57l43 47h135zM182 350q0 -73 32 -126l290 323q-48 28 -110 28q-94 0 -153 -62t-59 -163zM607 350
q0 73 -32 126l-290 -323q48 -28 109 -28q94 0 153.5 62t59.5 163z" />
    <glyph glyph-name="Ugrave" unicode="&#xd9;" horiz-adv-x="670" 
d="M389 774h-101l-96 160h129zM335 -10q-125 0 -201 77.5t-76 204.5v428h141v-429q0 -65 38 -105.5t99 -40.5t97.5 40.5t36.5 105.5v429h141v-430q0 -126 -75.5 -203t-200.5 -77z" />
    <glyph glyph-name="Uacute" unicode="&#xda;" horiz-adv-x="670" 
d="M282 774l68 160h129l-96 -160h-101zM335 -10q-125 0 -201 77.5t-76 204.5v428h141v-429q0 -65 38 -105.5t99 -40.5t97.5 40.5t36.5 105.5v429h141v-430q0 -126 -75.5 -203t-200.5 -77z" />
    <glyph glyph-name="Ucircumflex" unicode="&#xdb;" horiz-adv-x="670" 
d="M270 934h128l121 -160h-115l-70 97l-69 -97h-115zM335 -10q-125 0 -201 77.5t-76 204.5v428h141v-429q0 -65 38 -105.5t99 -40.5t97.5 40.5t36.5 105.5v429h141v-430q0 -126 -75.5 -203t-200.5 -77z" />
    <glyph glyph-name="Udieresis" unicode="&#xdc;" horiz-adv-x="670" 
d="M226 778q-34 0 -58.5 24.5t-24.5 59.5q0 34 24.5 58.5t58.5 24.5q35 0 59 -24.5t24 -58.5q0 -35 -24 -59.5t-59 -24.5zM443 778q-34 0 -58.5 24.5t-24.5 59.5q0 34 24.5 58.5t58.5 24.5q35 0 59 -24.5t24 -58.5q0 -35 -24 -59.5t-59 -24.5zM335 -10q-125 0 -201 77.5
t-76 204.5v428h141v-429q0 -65 38 -105.5t99 -40.5t97.5 40.5t36.5 105.5v429h141v-430q0 -126 -75.5 -203t-200.5 -77z" />
    <glyph glyph-name="Yacute" unicode="&#xdd;" horiz-adv-x="676" 
d="M482 934l-96 -160h-101l68 160h129zM526 700h151l-268 -461v-239h-141v239l-268 461h150l188 -333z" />
    <glyph glyph-name="Thorn" unicode="&#xde;" horiz-adv-x="600" 
d="M65 0v700h141v-100h134q119 0 188.5 -64t69.5 -172q0 -107 -69.5 -171.5t-188.5 -64.5h-134v-128h-141zM206 255h138q52 0 81 29t29 80t-29 80t-81 29h-138v-218z" />
    <glyph glyph-name="germandbls" unicode="&#xdf;" horiz-adv-x="678" 
d="M436 -10q-61 0 -107 18l18 116q28 -13 59 -13q42 0 70 27.5t28 73.5q0 41 -29 64t-84 23h-47v120h39q47 0 75 22.5t28 59.5q0 39 -30 63.5t-77 24.5q-52 0 -83.5 -34.5t-31.5 -91.5v-463h-141v367h-67v117h68q8 103 78 164.5t183 61.5q107 0 174.5 -53.5t67.5 -139.5
q0 -54 -28 -95.5t-76 -55.5q56 -14 90 -60.5t34 -110.5q0 -91 -58.5 -148t-152.5 -57z" />
    <glyph glyph-name="agrave" unicode="&#xe0;" horiz-adv-x="545" 
d="M327 564h-101l-96 160h129zM502 108q4 0 22 4v-115q-23 -7 -52 -7q-90 0 -120 57q-52 -57 -151 -57q-76 0 -124 39t-48 109q0 65 44 103.5t116 45.5l150 15v10q0 37 -24 58t-61 21q-66 0 -82 -62l-121 19q13 79 71.5 115.5t140.5 36.5q99 0 156 -48t57 -137v-180
q0 -27 26 -27zM339 195v16l-113 -14q-30 -3 -46.5 -17.5t-16.5 -36.5q0 -26 22 -39t57 -12q43 2 70 29t27 74z" />
    <glyph glyph-name="aacute" unicode="&#xe1;" horiz-adv-x="545" 
d="M417 724l-96 -160h-101l68 160h129zM502 108q4 0 22 4v-115q-23 -7 -52 -7q-90 0 -120 57q-52 -57 -151 -57q-76 0 -124 39t-48 109q0 65 44 103.5t116 45.5l150 15v10q0 37 -24 58t-61 21q-66 0 -82 -62l-121 19q13 79 71.5 115.5t140.5 36.5q99 0 156 -48t57 -137v-180
q0 -27 26 -27zM339 195v16l-113 -14q-30 -3 -46.5 -17.5t-16.5 -36.5q0 -26 22 -39t57 -12q43 2 70 29t27 74z" />
    <glyph glyph-name="acircumflex" unicode="&#xe2;" horiz-adv-x="545" 
d="M272 661l-69 -97h-115l120 160h128l121 -160h-115zM502 108q4 0 22 4v-115q-23 -7 -52 -7q-90 0 -120 57q-52 -57 -151 -57q-76 0 -124 39t-48 109q0 65 44 103.5t116 45.5l150 15v10q0 37 -24 58t-61 21q-66 0 -82 -62l-121 19q13 79 71.5 115.5t140.5 36.5
q99 0 156 -48t57 -137v-180q0 -27 26 -27zM339 195v16l-113 -14q-30 -3 -46.5 -17.5t-16.5 -36.5q0 -26 22 -39t57 -12q43 2 70 29t27 74z" />
    <glyph glyph-name="atilde" unicode="&#xe3;" horiz-adv-x="545" 
d="M203 604q-34 0 -41 -38h-80q0 55 33.5 86.5t83.5 31.5q39 0 82.5 -22.5t61.5 -22.5q34 0 41 37h80q0 -55 -33.5 -86.5t-83.5 -31.5q-39 0 -82.5 23t-61.5 23zM502 108q4 0 22 4v-115q-23 -7 -52 -7q-90 0 -120 57q-52 -57 -151 -57q-76 0 -124 39t-48 109q0 65 44 103.5
t116 45.5l150 15v10q0 37 -24 58t-61 21q-66 0 -82 -62l-121 19q13 79 71.5 115.5t140.5 36.5q99 0 156 -48t57 -137v-180q0 -27 26 -27zM339 195v16l-113 -14q-30 -3 -46.5 -17.5t-16.5 -36.5q0 -26 22 -39t57 -12q43 2 70 29t27 74z" />
    <glyph glyph-name="adieresis" unicode="&#xe4;" horiz-adv-x="545" 
d="M164 568q-34 0 -58.5 24.5t-24.5 59.5q0 34 24.5 58.5t58.5 24.5q35 0 59 -24.5t24 -58.5q0 -35 -24 -59.5t-59 -24.5zM381 568q-34 0 -58.5 24.5t-24.5 59.5q0 34 24.5 58.5t58.5 24.5q35 0 59 -24.5t24 -58.5q0 -35 -24 -59.5t-59 -24.5zM502 108q4 0 22 4v-115
q-23 -7 -52 -7q-90 0 -120 57q-52 -57 -151 -57q-76 0 -124 39t-48 109q0 65 44 103.5t116 45.5l150 15v10q0 37 -24 58t-61 21q-66 0 -82 -62l-121 19q13 79 71.5 115.5t140.5 36.5q99 0 156 -48t57 -137v-180q0 -27 26 -27zM339 195v16l-113 -14q-30 -3 -46.5 -17.5
t-16.5 -36.5q0 -26 22 -39t57 -12q43 2 70 29t27 74z" />
    <glyph glyph-name="aring" unicode="&#xe5;" horiz-adv-x="545" 
d="M273 539q-49 0 -81.5 31.5t-32.5 76.5t32 76t82 31t82.5 -31t32.5 -76t-32.5 -76.5t-82.5 -31.5zM273 686q-16 0 -28 -11t-12 -28q0 -18 12 -29t28 -11q17 0 29 11t12 29q0 17 -12 28t-29 11zM502 108q4 0 22 4v-115q-23 -7 -52 -7q-90 0 -120 57q-52 -57 -151 -57
q-76 0 -124 39t-48 109q0 65 44 103.5t116 45.5l150 15v10q0 37 -24 58t-61 21q-66 0 -82 -62l-121 19q13 79 71.5 115.5t140.5 36.5q99 0 156 -48t57 -137v-180q0 -27 26 -27zM339 195v16l-113 -14q-30 -3 -46.5 -17.5t-16.5 -36.5q0 -26 22 -39t57 -12q43 2 70 29t27 74z
" />
    <glyph glyph-name="ae" unicode="&#xe6;" horiz-adv-x="866" 
d="M211 -10q-78 0 -130 39.5t-52 108.5q0 65 44 103.5t116 45.5l150 15v10q0 37 -24 58t-61 21q-66 0 -82 -62l-121 19q13 79 71.5 115.5t139.5 36.5q111 0 165 -62q70 62 166 62q106 0 175 -67t69 -176q0 -14 -3 -44h-357q7 -56 40.5 -85.5t79.5 -29.5q37 0 65 18t35 48
l120 -33q-20 -68 -80 -104.5t-139 -36.5q-124 0 -198 83q-57 -83 -189 -83zM483 305h222q-6 35 -36 60t-75 25q-87 0 -111 -85zM242 92q43 2 70 29t27 74v16l-113 -14q-30 -3 -46.5 -17.5t-16.5 -36.5q0 -26 22 -39t57 -12z" />
    <glyph glyph-name="ccedilla" unicode="&#xe7;" horiz-adv-x="532" 
d="M290 113q39 0 68 20t36 55l120 -36q-12 -59 -54 -98t-102 -55q64 -37 64 -101q0 -54 -40 -81.5t-95 -27.5q-73 0 -135 48l40 68q32 -32 82 -32q25 0 40 13t15 35q0 44 -68 70q-101 7 -166.5 76.5t-65.5 176.5q0 112 72 184t182 72q85 0 149.5 -42t81.5 -119l-120 -37
q-7 35 -36 55.5t-68 20.5q-52 0 -86 -36.5t-34 -96.5t34 -96t86 -36z" />
    <glyph glyph-name="egrave" unicode="&#xe8;" horiz-adv-x="556" 
d="M332 564h-101l-96 160h129zM286 -10q-111 0 -184 70.5t-73 184.5q0 113 72.5 184t181.5 71q106 0 175 -67t69 -176q0 -14 -3 -44h-357q7 -55 39.5 -85t79.5 -30q38 0 66 19t35 54l120 -33q-19 -73 -79.5 -110.5t-141.5 -37.5zM172 305h223q-6 36 -36 60.5t-75 24.5
q-86 0 -112 -85z" />
    <glyph glyph-name="eacute" unicode="&#xe9;" horiz-adv-x="556" 
d="M225 564l68 160h129l-96 -160h-101zM286 -10q-111 0 -184 70.5t-73 184.5q0 113 72.5 184t181.5 71q106 0 175 -67t69 -176q0 -14 -3 -44h-357q7 -55 39.5 -85t79.5 -30q38 0 66 19t35 54l120 -33q-19 -73 -79.5 -110.5t-141.5 -37.5zM172 305h223q-6 36 -36 60.5
t-75 24.5q-86 0 -112 -85z" />
    <glyph glyph-name="ecircumflex" unicode="&#xea;" horiz-adv-x="556" 
d="M213 724h128l121 -160h-115l-70 97l-69 -97h-115zM286 -10q-111 0 -184 70.5t-73 184.5q0 113 72.5 184t181.5 71q106 0 175 -67t69 -176q0 -14 -3 -44h-357q7 -55 39.5 -85t79.5 -30q38 0 66 19t35 54l120 -33q-19 -73 -79.5 -110.5t-141.5 -37.5zM172 305h223
q-6 36 -36 60.5t-75 24.5q-86 0 -112 -85z" />
    <glyph glyph-name="edieresis" unicode="&#xeb;" horiz-adv-x="556" 
d="M169 568q-34 0 -58.5 24.5t-24.5 59.5q0 34 24.5 58.5t58.5 24.5q35 0 59 -24.5t24 -58.5q0 -35 -24 -59.5t-59 -24.5zM386 568q-34 0 -58.5 24.5t-24.5 59.5q0 34 24.5 58.5t58.5 24.5q35 0 59 -24.5t24 -58.5q0 -35 -24 -59.5t-59 -24.5zM286 -10q-111 0 -184 70.5
t-73 184.5q0 113 72.5 184t181.5 71q106 0 175 -67t69 -176q0 -14 -3 -44h-357q7 -55 39.5 -85t79.5 -30q38 0 66 19t35 54l120 -33q-19 -73 -79.5 -110.5t-141.5 -37.5zM172 305h223q-6 36 -36 60.5t-75 24.5q-86 0 -112 -85z" />
    <glyph glyph-name="igrave" unicode="&#xec;" horiz-adv-x="266" 
d="M188 564h-101l-96 160h129zM65 0v490h137v-490h-137z" />
    <glyph glyph-name="iacute" unicode="&#xed;" horiz-adv-x="266" 
d="M81 564l68 160h129l-96 -160h-101zM65 0v490h137v-490h-137z" />
    <glyph glyph-name="icircumflex" unicode="&#xee;" horiz-adv-x="266" 
d="M69 724h128l121 -160h-115l-70 97l-69 -97h-115zM65 0v490h137v-490h-137z" />
    <glyph glyph-name="idieresis" unicode="&#xef;" horiz-adv-x="266" 
d="M25 568q-34 0 -58.5 24.5t-24.5 59.5q0 34 24.5 58.5t58.5 24.5q35 0 59 -24.5t24 -58.5q0 -35 -24 -59.5t-59 -24.5zM242 568q-34 0 -58.5 24.5t-24.5 59.5q0 34 24.5 58.5t58.5 24.5q35 0 59 -24.5t24 -58.5q0 -35 -24 -59.5t-59 -24.5zM65 0v490h137v-490h-137z" />
    <glyph glyph-name="eth" unicode="&#xf0;" horiz-adv-x="585" 
d="M297 -10q-113 0 -185.5 67.5t-72.5 176.5q0 108 72 177t182 69q55 0 99 -24q-26 56 -57 96l-119 -57l-33 69l99 46q-48 45 -124 90h158q27 -14 63 -44l103 48l32 -69l-80 -38q51 -68 81.5 -156t30.5 -177q0 -136 -69.5 -205t-179.5 -69zM293 113q48 0 80.5 33t32.5 88
q0 57 -32.5 90.5t-80.5 33.5q-49 0 -81 -33.5t-32 -90.5q0 -55 32 -88t81 -33z" />
    <glyph glyph-name="ntilde" unicode="&#xf1;" horiz-adv-x="574" 
d="M217 604q-34 0 -41 -38h-80q0 55 33.5 86.5t83.5 31.5q39 0 82.5 -22.5t61.5 -22.5q34 0 41 37h80q0 -55 -33.5 -86.5t-83.5 -31.5q-39 0 -82.5 23t-61.5 23zM332 500q84 0 136.5 -48.5t52.5 -136.5v-315h-137v275q0 51 -25.5 76t-69.5 25t-69.5 -28.5t-25.5 -80.5v-267
h-137v490h137v-46q50 56 138 56z" />
    <glyph glyph-name="ograve" unicode="&#xf2;" horiz-adv-x="585" 
d="M347 564h-101l-96 160h129zM293 -10q-113 0 -188.5 70.5t-75.5 182.5q0 115 75 186t189 71q113 0 188 -71.5t75 -185.5q0 -112 -75 -182.5t-188 -70.5zM293 113q53 0 88 35.5t35 95.5q0 62 -35 98t-88 36t-88 -36t-35 -98q0 -60 35 -95.5t88 -35.5z" />
    <glyph glyph-name="oacute" unicode="&#xf3;" horiz-adv-x="585" 
d="M240 564l68 160h129l-96 -160h-101zM293 -10q-113 0 -188.5 70.5t-75.5 182.5q0 115 75 186t189 71q113 0 188 -71.5t75 -185.5q0 -112 -75 -182.5t-188 -70.5zM293 113q53 0 88 35.5t35 95.5q0 62 -35 98t-88 36t-88 -36t-35 -98q0 -60 35 -95.5t88 -35.5z" />
    <glyph glyph-name="ocircumflex" unicode="&#xf4;" horiz-adv-x="585" 
d="M228 724h128l121 -160h-115l-70 97l-69 -97h-115zM293 -10q-113 0 -188.5 70.5t-75.5 182.5q0 115 75 186t189 71q113 0 188 -71.5t75 -185.5q0 -112 -75 -182.5t-188 -70.5zM293 113q53 0 88 35.5t35 95.5q0 62 -35 98t-88 36t-88 -36t-35 -98q0 -60 35 -95.5t88 -35.5z
" />
    <glyph glyph-name="otilde" unicode="&#xf5;" horiz-adv-x="585" 
d="M367 558q-39 0 -82.5 23t-61.5 23q-34 0 -41 -38h-80q0 55 33.5 86.5t83.5 31.5q39 0 82.5 -22.5t61.5 -22.5q34 0 41 37h80q0 -55 -33.5 -86.5t-83.5 -31.5zM293 -10q-113 0 -188.5 70.5t-75.5 182.5q0 115 75 186t189 71q113 0 188 -71.5t75 -185.5q0 -112 -75 -182.5
t-188 -70.5zM293 113q53 0 88 35.5t35 95.5q0 62 -35 98t-88 36t-88 -36t-35 -98q0 -60 35 -95.5t88 -35.5z" />
    <glyph glyph-name="odieresis" unicode="&#xf6;" horiz-adv-x="585" 
d="M184 568q-34 0 -58.5 24.5t-24.5 59.5q0 34 24.5 58.5t58.5 24.5q35 0 59 -24.5t24 -58.5q0 -35 -24 -59.5t-59 -24.5zM401 568q-34 0 -58.5 24.5t-24.5 59.5q0 34 24.5 58.5t58.5 24.5q35 0 59 -24.5t24 -58.5q0 -35 -24 -59.5t-59 -24.5zM293 -10q-113 0 -188.5 70.5
t-75.5 182.5q0 115 75 186t189 71q113 0 188 -71.5t75 -185.5q0 -112 -75 -182.5t-188 -70.5zM293 113q53 0 88 35.5t35 95.5q0 62 -35 98t-88 36t-88 -36t-35 -98q0 -60 35 -95.5t88 -35.5z" />
    <glyph glyph-name="divide" unicode="&#xf7;" horiz-adv-x="566" 
d="M283 461q-35 0 -59.5 24t-24.5 59q0 34 24.5 58t59.5 24t59.5 -24t24.5 -58t-24.5 -58.5t-59.5 -24.5zM35 269v114h495v-114h-495zM283 26q-35 0 -59.5 24t-24.5 59q0 34 24.5 58t59.5 24t59.5 -24t24.5 -58t-24.5 -58.5t-59.5 -24.5z" />
    <glyph glyph-name="oslash" unicode="&#xf8;" horiz-adv-x="585" 
d="M574 490l-75 -81q57 -68 57 -166q0 -112 -75 -182.5t-188 -70.5q-80 0 -145 38l-26 -28h-111l74 81q-56 67 -56 162q0 115 75 186t189 71q82 0 144 -38l25 28h112zM170 244q0 -32 11 -59l167 181q-26 12 -55 12q-53 0 -88 -36t-35 -98zM416 244q0 35 -12 62l-167 -181
q25 -12 56 -12q53 0 88 35.5t35 95.5z" />
    <glyph glyph-name="ugrave" unicode="&#xf9;" horiz-adv-x="570" 
d="M340 564h-101l-96 160h129zM380 490h137v-490h-137v46q-50 -56 -137 -56q-80 0 -135 51t-55 144v305h137v-281q0 -46 26 -70.5t69 -24.5q44 0 69.5 28.5t25.5 80.5v267z" />
    <glyph glyph-name="uacute" unicode="&#xfa;" horiz-adv-x="570" 
d="M430 724l-96 -160h-101l68 160h129zM380 490h137v-490h-137v46q-50 -56 -137 -56q-80 0 -135 51t-55 144v305h137v-281q0 -46 26 -70.5t69 -24.5q44 0 69.5 28.5t25.5 80.5v267z" />
    <glyph glyph-name="ucircumflex" unicode="&#xfb;" horiz-adv-x="570" 
d="M285 661l-69 -97h-115l120 160h128l121 -160h-115zM380 490h137v-490h-137v46q-50 -56 -137 -56q-80 0 -135 51t-55 144v305h137v-281q0 -46 26 -70.5t69 -24.5q44 0 69.5 28.5t25.5 80.5v267z" />
    <glyph glyph-name="udieresis" unicode="&#xfc;" horiz-adv-x="570" 
d="M177 568q-34 0 -58.5 24.5t-24.5 59.5q0 34 24.5 58.5t58.5 24.5q35 0 59 -24.5t24 -58.5q0 -35 -24 -59.5t-59 -24.5zM394 568q-34 0 -58.5 24.5t-24.5 59.5q0 34 24.5 58.5t58.5 24.5q35 0 59 -24.5t24 -58.5q0 -35 -24 -59.5t-59 -24.5zM380 490h137v-490h-137v46
q-50 -56 -137 -56q-80 0 -135 51t-55 144v305h137v-281q0 -46 26 -70.5t69 -24.5q44 0 69.5 28.5t25.5 80.5v267z" />
    <glyph glyph-name="yacute" unicode="&#xfd;" horiz-adv-x="561" 
d="M425 724l-96 -160h-101l68 160h129zM414 490h145l-298 -690h-129l89 200l-218 490h145l134 -328z" />
    <glyph glyph-name="thorn" unicode="&#xfe;" horiz-adv-x="616" 
d="M346 500q102 0 171.5 -71.5t69.5 -183.5q0 -111 -69 -183t-171 -72q-98 0 -153 63v-253h-137v900h137v-262q56 62 152 62zM319 109q54 0 90 37.5t36 98.5q0 62 -36 99t-90 37t-89.5 -37.5t-35.5 -98.5t35.5 -98.5t89.5 -37.5z" />
    <glyph glyph-name="ydieresis" unicode="&#xff;" horiz-adv-x="561" 
d="M172 568q-34 0 -58.5 24.5t-24.5 59.5q0 34 24.5 58.5t58.5 24.5q35 0 59 -24.5t24 -58.5q0 -35 -24 -59.5t-59 -24.5zM389 568q-34 0 -58.5 24.5t-24.5 59.5q0 34 24.5 58.5t58.5 24.5q35 0 59 -24.5t24 -58.5q0 -35 -24 -59.5t-59 -24.5zM414 490h145l-298 -690h-129
l89 200l-218 490h145l134 -328z" />
    <glyph glyph-name="Amacron" unicode="&#x100;" horiz-adv-x="730" 
d="M529 872v-98h-329v98h329zM444 700l281 -700h-149l-60 156h-302l-60 -156h-149l281 700h158zM262 283h205l-102 263z" />
    <glyph glyph-name="amacron" unicode="&#x101;" horiz-adv-x="545" 
d="M437 662v-98h-329v98h329zM502 108q4 0 22 4v-115q-23 -7 -52 -7q-90 0 -120 57q-52 -57 -151 -57q-76 0 -124 39t-48 109q0 65 44 103.5t116 45.5l150 15v10q0 37 -24 58t-61 21q-66 0 -82 -62l-121 19q13 79 71.5 115.5t140.5 36.5q99 0 156 -48t57 -137v-180
q0 -27 26 -27zM339 195v16l-113 -14q-30 -3 -46.5 -17.5t-16.5 -36.5q0 -26 22 -39t57 -12q43 2 70 29t27 74z" />
    <glyph glyph-name="Abreve" unicode="&#x102;" horiz-adv-x="730" 
d="M365 760q-73 0 -117.5 44t-44.5 115h98q0 -33 17.5 -53.5t46.5 -20.5t47 20.5t18 53.5h98q0 -71 -45 -115t-118 -44zM444 700l281 -700h-149l-60 156h-302l-60 -156h-149l281 700h158zM262 283h205l-102 263z" />
    <glyph glyph-name="abreve" unicode="&#x103;" horiz-adv-x="545" 
d="M273 550q-73 0 -117.5 44t-44.5 115h98q0 -33 17.5 -53.5t46.5 -20.5t47 20.5t18 53.5h98q0 -71 -45 -115t-118 -44zM502 108q4 0 22 4v-115q-23 -7 -52 -7q-90 0 -120 57q-52 -57 -151 -57q-76 0 -124 39t-48 109q0 65 44 103.5t116 45.5l150 15v10q0 37 -24 58t-61 21
q-66 0 -82 -62l-121 19q13 79 71.5 115.5t140.5 36.5q99 0 156 -48t57 -137v-180q0 -27 26 -27zM339 195v16l-113 -14q-30 -3 -46.5 -17.5t-16.5 -36.5q0 -26 22 -39t57 -12q43 2 70 29t27 74z" />
    <glyph glyph-name="Aogonek" unicode="&#x104;" horiz-adv-x="730" 
d="M713 -98l40 -68q-62 -48 -135 -48q-55 0 -95 27.5t-40 81.5q0 75 90 113l-57 148h-302l-60 -156h-149l281 700h158l281 -700h-40q-109 -25 -109 -82q0 -22 15 -35t41 -13q49 0 81 32zM262 283h205l-102 263z" />
    <glyph glyph-name="aogonek" unicode="&#x105;" horiz-adv-x="545" 
d="M521 -98l40 -68q-62 -48 -135 -48q-55 0 -95 27.5t-40 81.5q0 79 97 115q-25 15 -36 37q-52 -57 -151 -57q-76 0 -124 39t-48 109q0 65 44 103.5t116 45.5l150 15v10q0 37 -24 58t-61 21q-66 0 -82 -62l-121 19q13 79 71.5 115.5t140.5 36.5q99 0 156 -48t57 -137v-180
q0 -27 26 -27q4 0 22 4v-115q-23 -7 -52 -7h-13q-75 -25 -75 -72q0 -22 15 -35t41 -13q49 0 81 32zM339 195v16l-113 -14q-30 -3 -46.5 -17.5t-16.5 -36.5q0 -26 22 -39t57 -12q43 2 70 29t27 74z" />
    <glyph glyph-name="Cacute" unicode="&#x106;" horiz-adv-x="741" 
d="M335 774l68 160h129l-96 -160h-101zM388 -10q-153 0 -253 100.5t-100 260.5t100 259.5t253 99.5q117 0 206.5 -57.5t115.5 -162.5l-137 -41q-14 56 -64.5 91t-120.5 35q-90 0 -148 -62.5t-58 -162.5t58 -162.5t148 -62.5q71 0 121.5 35t64.5 91l136 -41
q-26 -105 -115.5 -162.5t-206.5 -57.5z" />
    <glyph glyph-name="cacute" unicode="&#x107;" horiz-adv-x="532" 
d="M230 564l68 160h129l-96 -160h-101zM283 -10q-109 0 -181.5 70.5t-72.5 183.5q0 112 72 184t182 72q85 0 149.5 -42t81.5 -119l-120 -37q-7 35 -36 55.5t-68 20.5q-52 0 -86 -36.5t-34 -96.5t34 -96t86 -36q39 0 68 20t36 55l120 -36q-17 -78 -81.5 -120t-149.5 -42z" />
    <glyph glyph-name="Ccircumflex" unicode="&#x108;" horiz-adv-x="741" 
d="M323 934h128l121 -160h-115l-70 97l-69 -97h-115zM388 -10q-153 0 -253 100.5t-100 260.5t100 259.5t253 99.5q117 0 206.5 -57.5t115.5 -162.5l-137 -41q-14 56 -64.5 91t-120.5 35q-90 0 -148 -62.5t-58 -162.5t58 -162.5t148 -62.5q71 0 121.5 35t64.5 91l136 -41
q-26 -105 -115.5 -162.5t-206.5 -57.5z" />
    <glyph glyph-name="ccircumflex" unicode="&#x109;" horiz-adv-x="532" 
d="M218 724h128l121 -160h-115l-70 97l-69 -97h-115zM283 -10q-109 0 -181.5 70.5t-72.5 183.5q0 112 72 184t182 72q85 0 149.5 -42t81.5 -119l-120 -37q-7 35 -36 55.5t-68 20.5q-52 0 -86 -36.5t-34 -96.5t34 -96t86 -36q39 0 68 20t36 55l120 -36q-17 -78 -81.5 -120
t-149.5 -42z" />
    <glyph glyph-name="Cdotaccent" unicode="&#x10a;" horiz-adv-x="741" 
d="M387 773q-36 0 -61 26t-25 62t25 61.5t61 25.5q37 0 63 -25.5t26 -61.5t-26 -62t-63 -26zM388 -10q-153 0 -253 100.5t-100 260.5t100 259.5t253 99.5q117 0 206.5 -57.5t115.5 -162.5l-137 -41q-14 56 -64.5 91t-120.5 35q-90 0 -148 -62.5t-58 -162.5t58 -162.5
t148 -62.5q71 0 121.5 35t64.5 91l136 -41q-26 -105 -115.5 -162.5t-206.5 -57.5z" />
    <glyph glyph-name="cdotaccent" unicode="&#x10b;" horiz-adv-x="532" 
d="M282 563q-36 0 -61 26t-25 62t25 61.5t61 25.5q37 0 63 -25.5t26 -61.5t-26 -62t-63 -26zM283 -10q-109 0 -181.5 70.5t-72.5 183.5q0 112 72 184t182 72q85 0 149.5 -42t81.5 -119l-120 -37q-7 35 -36 55.5t-68 20.5q-52 0 -86 -36.5t-34 -96.5t34 -96t86 -36
q39 0 68 20t36 55l120 -36q-17 -78 -81.5 -120t-149.5 -42z" />
    <glyph glyph-name="Ccaron" unicode="&#x10c;" horiz-adv-x="741" 
d="M324 774l-120 160h115l69 -97l70 97h115l-121 -160h-128zM388 -10q-153 0 -253 100.5t-100 260.5t100 259.5t253 99.5q117 0 206.5 -57.5t115.5 -162.5l-137 -41q-14 56 -64.5 91t-120.5 35q-90 0 -148 -62.5t-58 -162.5t58 -162.5t148 -62.5q71 0 121.5 35t64.5 91
l136 -41q-26 -105 -115.5 -162.5t-206.5 -57.5z" />
    <glyph glyph-name="ccaron" unicode="&#x10d;" horiz-adv-x="532" 
d="M219 564l-120 160h115l69 -97l70 97h115l-121 -160h-128zM283 -10q-109 0 -181.5 70.5t-72.5 183.5q0 112 72 184t182 72q85 0 149.5 -42t81.5 -119l-120 -37q-7 35 -36 55.5t-68 20.5q-52 0 -86 -36.5t-34 -96.5t34 -96t86 -36q39 0 68 20t36 55l120 -36
q-17 -78 -81.5 -120t-149.5 -42z" />
    <glyph glyph-name="Dcaron" unicode="&#x10e;" horiz-adv-x="703" 
d="M288 774l-120 160h115l69 -97l70 97h115l-121 -160h-128zM65 0v700h246q169 0 263 -91.5t94 -256.5t-94.5 -258.5t-262.5 -93.5h-246zM206 129h103q101 0 157 59.5t56 163.5t-56 161.5t-157 57.5h-103v-442z" />
    <glyph glyph-name="dcaron" unicode="&#x10f;" horiz-adv-x="794" 
d="M423 438v262h137v-700h-137v53q-55 -63 -154 -63q-102 0 -171 72t-69 183q0 112 69.5 183.5t172.5 71.5q96 0 152 -62zM660 700h134l-25 -290h-109v290zM298 109q54 0 89.5 37.5t35.5 98.5t-35.5 98.5t-89.5 37.5t-90.5 -37.5t-36.5 -98.5t36.5 -98.5t90.5 -37.5z" />
    <glyph glyph-name="Dcroat" unicode="&#x110;" horiz-adv-x="703" 
d="M311 700q169 0 263 -91.5t94 -256.5t-94.5 -258.5t-262.5 -93.5h-246v296h-91v107h91v297h246zM309 129q101 0 157 59.5t56 163.5t-56 161.5t-157 57.5h-103v-168h98v-107h-98v-167h103z" />
    <glyph glyph-name="dcroat" unicode="&#x111;" horiz-adv-x="617" 
d="M661 644v-107h-101v-537h-137v53q-55 -63 -154 -63q-102 0 -171 72t-69 183q0 112 69.5 183.5t172.5 71.5q96 0 152 -62v99h-92v107h92v56h137v-56h101zM298 109q54 0 89.5 37.5t35.5 98.5t-35.5 98.5t-89.5 37.5t-90.5 -37.5t-36.5 -98.5t36.5 -98.5t90.5 -37.5z" />
    <glyph glyph-name="Emacron" unicode="&#x112;" horiz-adv-x="598" 
d="M134 774v98h329v-98h-329zM65 0v700h475v-127h-334v-159h317v-126h-317v-161h341v-127h-482z" />
    <glyph glyph-name="emacron" unicode="&#x113;" horiz-adv-x="556" 
d="M113 564v98h329v-98h-329zM286 -10q-111 0 -184 70.5t-73 184.5q0 113 72.5 184t181.5 71q106 0 175 -67t69 -176q0 -14 -3 -44h-357q7 -55 39.5 -85t79.5 -30q38 0 66 19t35 54l120 -33q-19 -73 -79.5 -110.5t-141.5 -37.5zM172 305h223q-6 36 -36 60.5t-75 24.5
q-86 0 -112 -85z" />
    <glyph glyph-name="Ebreve" unicode="&#x114;" horiz-adv-x="598" 
d="M299 760q-73 0 -117.5 44t-44.5 115h98q0 -33 17.5 -53.5t46.5 -20.5t47 20.5t18 53.5h98q0 -71 -45 -115t-118 -44zM65 0v700h475v-127h-334v-159h317v-126h-317v-161h341v-127h-482z" />
    <glyph glyph-name="ebreve" unicode="&#x115;" horiz-adv-x="556" 
d="M278 550q-73 0 -117.5 44t-44.5 115h98q0 -33 17.5 -53.5t46.5 -20.5t47 20.5t18 53.5h98q0 -71 -45 -115t-118 -44zM286 -10q-111 0 -184 70.5t-73 184.5q0 113 72.5 184t181.5 71q106 0 175 -67t69 -176q0 -14 -3 -44h-357q7 -55 39.5 -85t79.5 -30q38 0 66 19t35 54
l120 -33q-19 -73 -79.5 -110.5t-141.5 -37.5zM172 305h223q-6 36 -36 60.5t-75 24.5q-86 0 -112 -85z" />
    <glyph glyph-name="Edotaccent" unicode="&#x116;" horiz-adv-x="598" 
d="M298 773q-36 0 -61 26t-25 62t25 61.5t61 25.5q37 0 63 -25.5t26 -61.5t-26 -62t-63 -26zM65 0v700h475v-127h-334v-159h317v-126h-317v-161h341v-127h-482z" />
    <glyph glyph-name="edotaccent" unicode="&#x117;" horiz-adv-x="556" 
d="M277 563q-36 0 -61 26t-25 62t25 61.5t61 25.5q37 0 63 -25.5t26 -61.5t-26 -62t-63 -26zM286 -10q-111 0 -184 70.5t-73 184.5q0 113 72.5 184t181.5 71q106 0 175 -67t69 -176q0 -14 -3 -44h-357q7 -55 39.5 -85t79.5 -30q38 0 66 19t35 54l120 -33
q-19 -73 -79.5 -110.5t-141.5 -37.5zM172 305h223q-6 36 -36 60.5t-75 24.5q-86 0 -112 -85z" />
    <glyph glyph-name="Eogonek" unicode="&#x118;" horiz-adv-x="598" 
d="M531 -98l40 -68q-62 -48 -135 -48q-55 0 -95 27.5t-40 81.5q0 69 74 105h-310v700h475v-127h-334v-159h317v-126h-317v-161h341v-127h-44q-109 -25 -109 -82q0 -22 15 -35t41 -13q49 0 81 32z" />
    <glyph glyph-name="eogonek" unicode="&#x119;" horiz-adv-x="556" 
d="M527 257q0 -14 -3 -44h-357q7 -55 39.5 -85t79.5 -30q38 0 66 19t35 54l120 -33q-18 -67 -71.5 -104.5t-126.5 -42.5q-76 -26 -76 -73q0 -22 15 -35t41 -13q49 0 81 32l40 -68q-62 -48 -135 -48q-55 0 -95 27.5t-40 81.5q0 67 72 104q-83 21 -133 86.5t-50 159.5
q0 113 72.5 184t181.5 71q106 0 175 -67t69 -176zM172 305h223q-6 36 -36 60.5t-75 24.5q-86 0 -112 -85z" />
    <glyph glyph-name="Ecaron" unicode="&#x11a;" horiz-adv-x="598" 
d="M235 774l-120 160h115l69 -97l70 97h115l-121 -160h-128zM65 0v700h475v-127h-334v-159h317v-126h-317v-161h341v-127h-482z" />
    <glyph glyph-name="ecaron" unicode="&#x11b;" horiz-adv-x="556" 
d="M214 564l-120 160h115l69 -97l70 97h115l-121 -160h-128zM286 -10q-111 0 -184 70.5t-73 184.5q0 113 72.5 184t181.5 71q106 0 175 -67t69 -176q0 -14 -3 -44h-357q7 -55 39.5 -85t79.5 -30q38 0 66 19t35 54l120 -33q-19 -73 -79.5 -110.5t-141.5 -37.5zM172 305h223
q-6 36 -36 60.5t-75 24.5q-86 0 -112 -85z" />
    <glyph glyph-name="Gcircumflex" unicode="&#x11c;" horiz-adv-x="765" 
d="M387 871l-69 -97h-115l120 160h128l121 -160h-115zM309 367h406v-367h-127v67q-75 -77 -199 -77q-153 0 -253.5 100.5t-100.5 260.5t100 259.5t253 99.5q117 0 206.5 -57.5t115.5 -162.5l-137 -41q-14 56 -64.5 91t-120.5 35q-90 0 -148 -62.5t-58 -162.5q0 -101 59 -163
t154 -62q70 0 123 33.5t70 84.5h-279v124z" />
    <glyph glyph-name="gcircumflex" unicode="&#x11d;" horiz-adv-x="617" 
d="M308 661l-69 -97h-115l120 160h128l121 -160h-115zM423 490h137v-455q0 -106 -70 -175.5t-193 -69.5q-88 0 -156.5 39t-93.5 111l119 40q8 -33 43 -54.5t83 -21.5q57 0 94 31.5t37 87.5v30q-55 -63 -154 -63q-101 0 -170.5 72.5t-69.5 182.5q0 112 69.5 183.5t172.5 71.5
q96 0 152 -62v52zM298 109q54 0 89.5 37.5t35.5 98.5t-35.5 98.5t-89.5 37.5t-90.5 -37.5t-36.5 -98.5t36.5 -98.5t90.5 -37.5z" />
    <glyph glyph-name="Gbreve" unicode="&#x11e;" horiz-adv-x="765" 
d="M388 760q-73 0 -117.5 44t-44.5 115h98q0 -33 17.5 -53.5t46.5 -20.5t47 20.5t18 53.5h98q0 -71 -45 -115t-118 -44zM309 367h406v-367h-127v67q-75 -77 -199 -77q-153 0 -253.5 100.5t-100.5 260.5t100 259.5t253 99.5q117 0 206.5 -57.5t115.5 -162.5l-137 -41
q-14 56 -64.5 91t-120.5 35q-90 0 -148 -62.5t-58 -162.5q0 -101 59 -163t154 -62q70 0 123 33.5t70 84.5h-279v124z" />
    <glyph glyph-name="gbreve" unicode="&#x11f;" horiz-adv-x="617" 
d="M309 550q-73 0 -117.5 44t-44.5 115h98q0 -33 17.5 -53.5t46.5 -20.5t47 20.5t18 53.5h98q0 -71 -45 -115t-118 -44zM423 490h137v-455q0 -106 -70 -175.5t-193 -69.5q-88 0 -156.5 39t-93.5 111l119 40q8 -33 43 -54.5t83 -21.5q57 0 94 31.5t37 87.5v30
q-55 -63 -154 -63q-101 0 -170.5 72.5t-69.5 182.5q0 112 69.5 183.5t172.5 71.5q96 0 152 -62v52zM298 109q54 0 89.5 37.5t35.5 98.5t-35.5 98.5t-89.5 37.5t-90.5 -37.5t-36.5 -98.5t36.5 -98.5t90.5 -37.5z" />
    <glyph glyph-name="Gdotaccent" unicode="&#x120;" horiz-adv-x="765" 
d="M387 773q-36 0 -61 26t-25 62t25 61.5t61 25.5q37 0 63 -25.5t26 -61.5t-26 -62t-63 -26zM309 367h406v-367h-127v67q-75 -77 -199 -77q-153 0 -253.5 100.5t-100.5 260.5t100 259.5t253 99.5q117 0 206.5 -57.5t115.5 -162.5l-137 -41q-14 56 -64.5 91t-120.5 35
q-90 0 -148 -62.5t-58 -162.5q0 -101 59 -163t154 -62q70 0 123 33.5t70 84.5h-279v124z" />
    <glyph glyph-name="gdotaccent" unicode="&#x121;" horiz-adv-x="617" 
d="M308 563q-36 0 -61 26t-25 62t25 61.5t61 25.5q37 0 63 -25.5t26 -61.5t-26 -62t-63 -26zM423 490h137v-455q0 -106 -70 -175.5t-193 -69.5q-88 0 -156.5 39t-93.5 111l119 40q8 -33 43 -54.5t83 -21.5q57 0 94 31.5t37 87.5v30q-55 -63 -154 -63q-101 0 -170.5 72.5
t-69.5 182.5q0 112 69.5 183.5t172.5 71.5q96 0 152 -62v52zM298 109q54 0 89.5 37.5t35.5 98.5t-35.5 98.5t-89.5 37.5t-90.5 -37.5t-36.5 -98.5t36.5 -98.5t90.5 -37.5z" />
    <glyph glyph-name="Gcommaaccent" unicode="&#x122;" horiz-adv-x="765" 
d="M309 367h406v-367h-127v67q-75 -77 -199 -77q-153 0 -253.5 100.5t-100.5 260.5t100 259.5t253 99.5q117 0 206.5 -57.5t115.5 -162.5l-137 -41q-14 56 -64.5 91t-120.5 35q-90 0 -148 -62.5t-58 -162.5q0 -101 59 -163t154 -62q70 0 123 33.5t70 84.5h-279v124z
M261 -214l68 159h129l-96 -159h-101z" />
    <glyph glyph-name="gcommaaccent" unicode="&#x123;" horiz-adv-x="617" 
d="M423 490h137v-455q0 -106 -70 -175.5t-193 -69.5q-88 0 -156.5 39t-93.5 111l119 40q8 -33 43 -54.5t83 -21.5q57 0 94 31.5t37 87.5v30q-55 -63 -154 -63q-101 0 -170.5 72.5t-69.5 182.5q0 112 69.5 183.5t172.5 71.5q96 0 152 -62v52zM298 109q54 0 89.5 37.5
t35.5 98.5t-35.5 98.5t-89.5 37.5t-90.5 -37.5t-36.5 -98.5t36.5 -98.5t90.5 -37.5zM174 -424l68 159h129l-96 -159h-101z" />
    <glyph glyph-name="Hcircumflex" unicode="&#x124;" horiz-adv-x="707" 
d="M288 934h128l121 -160h-115l-70 97l-69 -97h-115zM65 0v700h141v-287h295v287h141v-700h-141v287h-295v-287h-141z" />
    <glyph glyph-name="hcircumflex" unicode="&#x125;" horiz-adv-x="574" 
d="M195 774l-70 97l-69 -97h-115l120 160h128l121 -160h-115zM332 500q84 0 136.5 -48.5t52.5 -136.5v-315h-137v275q0 51 -25.5 76t-69.5 25t-69.5 -28.5t-25.5 -80.5v-267h-137v700h137v-256q50 56 138 56z" />
    <glyph glyph-name="Hbar" unicode="&#x126;" horiz-adv-x="707" 
d="M65 0v496h-65v123h65v81h141v-81h295v81h141v-81h65v-123h-65v-496h-141v287h-295v-287h-141zM206 413h295v83h-295v-83z" />
    <glyph glyph-name="hbar" unicode="&#x127;" horiz-adv-x="574" 
d="M332 500q84 0 136.5 -48.5t52.5 -136.5v-315h-137v275q0 51 -25.5 76t-69.5 25t-69.5 -28.5t-25.5 -80.5v-267h-137v536h-92v107h92v57h137v-57h101v-107h-101v-92q50 56 138 56z" />
    <glyph glyph-name="Itilde" unicode="&#x128;" horiz-adv-x="273" 
d="M210 768q-39 0 -82.5 23t-61.5 23q-34 0 -41 -38h-80q0 55 33.5 86.5t83.5 31.5q39 0 82.5 -22.5t61.5 -22.5q34 0 41 37h80q0 -55 -33.5 -86.5t-83.5 -31.5zM66 0v700h141v-700h-141z" />
    <glyph glyph-name="itilde" unicode="&#x129;" horiz-adv-x="266" 
d="M208 558q-39 0 -82.5 23t-61.5 23q-34 0 -41 -38h-80q0 55 33.5 86.5t83.5 31.5q39 0 82.5 -22.5t61.5 -22.5q34 0 41 37h80q0 -55 -33.5 -86.5t-83.5 -31.5zM65 0v490h137v-490h-137z" />
    <glyph glyph-name="Imacron" unicode="&#x12a;" horiz-adv-x="273" 
d="M-29 774v98h329v-98h-329zM66 0v700h141v-700h-141z" />
    <glyph glyph-name="imacron" unicode="&#x12b;" horiz-adv-x="266" 
d="M-31 564v98h329v-98h-329zM65 0v490h137v-490h-137z" />
    <glyph glyph-name="Ibreve" unicode="&#x12c;" horiz-adv-x="273" 
d="M136 760q-73 0 -117.5 44t-44.5 115h98q0 -33 17.5 -53.5t46.5 -20.5t47 20.5t18 53.5h98q0 -71 -45 -115t-118 -44zM66 0v700h141v-700h-141z" />
    <glyph glyph-name="ibreve" unicode="&#x12d;" horiz-adv-x="266" 
d="M134 550q-73 0 -117.5 44t-44.5 115h98q0 -33 17.5 -53.5t46.5 -20.5t47 20.5t18 53.5h98q0 -71 -45 -115t-118 -44zM65 0v490h137v-490h-137z" />
    <glyph glyph-name="Iogonek" unicode="&#x12e;" horiz-adv-x="273" 
d="M211 -98l40 -68q-62 -48 -135 -48q-55 0 -95 27.5t-40 81.5q0 74 85 110v695h141v-700h-24q-109 -25 -109 -82q0 -22 15 -35t41 -13q49 0 81 32z" />
    <glyph glyph-name="iogonek" unicode="&#x12f;" horiz-adv-x="266" 
d="M133 563q-36 0 -61 26t-25 62t25 61.5t61 25.5q37 0 63 -25.5t26 -61.5t-26 -62t-63 -26zM214 -98l40 -68q-62 -48 -135 -48q-55 0 -95 27.5t-40 81.5q0 71 81 109v486h137v-490h-16q-109 -25 -109 -82q0 -22 15 -35t41 -13q49 0 81 32z" />
    <glyph glyph-name="Idotaccent" unicode="&#x130;" horiz-adv-x="273" 
d="M135 773q-36 0 -61 26t-25 62t25 61.5t61 25.5q37 0 63 -25.5t26 -61.5t-26 -62t-63 -26zM66 0v700h141v-700h-141z" />
    <glyph glyph-name="dotlessi" unicode="&#x131;" horiz-adv-x="266" 
d="M65 0v490h137v-490h-137z" />
    <glyph glyph-name="IJ" unicode="&#x132;" horiz-adv-x="802" 
d="M66 0v700h141v-700h-141zM424 257v-41q0 -42 23.5 -66.5t62.5 -24.5q42 0 65.5 26t23.5 72v477h141v-477q0 -114 -61.5 -173.5t-168.5 -59.5q-100 0 -162.5 58.5t-62.5 160.5v19z" />
    <glyph glyph-name="ij" unicode="&#x133;" horiz-adv-x="566" 
d="M133 558q-37 0 -62.5 25.5t-25.5 61.5t25.5 61.5t62.5 25.5t63 -25.5t26 -61.5t-26 -61.5t-63 -25.5zM434 558q-37 0 -62.5 25.5t-25.5 61.5t25.5 61.5t62.5 25.5t63 -25.5t26 -61.5t-26 -61.5t-63 -25.5zM65 0v490h137v-490h-137zM325 -207q-37 0 -84 10l15 115
q24 -7 46 -7q64 0 64 64v515h137v-532q0 -83 -50.5 -124t-127.5 -41z" />
    <glyph glyph-name="Jcircumflex" unicode="&#x134;" horiz-adv-x="529" 
d="M330 934h128l121 -160h-115l-70 97l-69 -97h-115zM151 257v-41q0 -42 23.5 -66.5t62.5 -24.5q42 0 65.5 26t23.5 72v477h141v-477q0 -114 -61.5 -173.5t-168.5 -59.5q-100 0 -162.5 58.5t-62.5 160.5v19z" />
    <glyph glyph-name="jcircumflex" unicode="&#x135;" horiz-adv-x="299" 
d="M100 724h128l121 -160h-115l-70 97l-69 -97h-115zM58 -207q-37 0 -84 10l15 115q24 -7 46 -7q64 0 64 64v515h137v-532q0 -83 -50.5 -124t-127.5 -41z" />
    <glyph glyph-name="Kcommaaccent" unicode="&#x136;" horiz-adv-x="647" 
d="M65 0v700h141v-301l267 301h168l-261 -303l272 -397h-176l-199 292l-71 -72v-220h-141zM201 -214l68 159h129l-96 -159h-101z" />
    <glyph glyph-name="kcommaaccent" unicode="&#x137;" horiz-adv-x="546" 
d="M57 0v700h137v-396l182 186h154l-176 -185l192 -305h-153l-134 198l-65 -69v-129h-137zM150 -214l68 159h129l-96 -159h-101z" />
    <glyph glyph-name="kgreenlandic" unicode="&#x138;" horiz-adv-x="546" 
d="M57 0v490h137v-186l182 186h154l-176 -185l192 -305h-153l-134 198l-65 -69v-129h-137z" />
    <glyph glyph-name="Lacute" unicode="&#x139;" horiz-adv-x="556" 
d="M80 774l68 160h129l-96 -160h-101zM65 0v700h141v-573h339v-127h-480z" />
    <glyph glyph-name="lacute" unicode="&#x13a;" horiz-adv-x="250" 
d="M73 774l68 160h129l-96 -160h-101zM57 0v700h137v-700h-137z" />
    <glyph glyph-name="Lcommaaccent" unicode="&#x13b;" horiz-adv-x="556" 
d="M65 0v700h141v-573h339v-127h-480zM191 -214l68 159h129l-96 -159h-101z" />
    <glyph glyph-name="lcommaaccent" unicode="&#x13c;" horiz-adv-x="250" 
d="M57 0v700h137v-700h-137zM3 -214l68 159h129l-96 -159h-101z" />
    <glyph glyph-name="Lcaron" unicode="&#x13d;" horiz-adv-x="556" 
d="M69 774l-120 160h115l69 -97l70 97h115l-121 -160h-128zM65 0v700h141v-573h339v-127h-480z" />
    <glyph glyph-name="lcaron" unicode="&#x13e;" horiz-adv-x="428" 
d="M57 0v700h137v-700h-137zM294 410v290h134l-25 -290h-109z" />
    <glyph glyph-name="Ldot" unicode="&#x13f;" horiz-adv-x="600" 
d="M65 0v700h141v-573h339v-127h-480zM382 277q-35 0 -59.5 24t-24.5 59t24.5 59t59.5 24t59.5 -24t24.5 -59t-24.5 -59t-59.5 -24z" />
    <glyph glyph-name="ldot" unicode="&#x140;" horiz-adv-x="469" 
d="M57 0v700h137v-700h-137zM328 277q-35 0 -59.5 24t-24.5 59q0 34 24.5 58t59.5 24t59.5 -24t24.5 -58q0 -35 -24.5 -59t-59.5 -24z" />
    <glyph glyph-name="Lslash" unicode="&#x141;" horiz-adv-x="556" 
d="M206 127h339v-127h-480v272l-90 -28v111l90 28v317h141v-273l92 28v-111l-92 -28v-189z" />
    <glyph glyph-name="lslash" unicode="&#x142;" horiz-adv-x="250" 
d="M286 450v-111l-92 -28v-311h-137v268l-94 -29v111l94 29v321h137v-278z" />
    <glyph glyph-name="Nacute" unicode="&#x143;" horiz-adv-x="732" 
d="M510 934l-96 -160h-101l68 160h129zM526 700h140v-700h-129l-331 452v-452h-141v700h130l331 -453v453z" />
    <glyph glyph-name="nacute" unicode="&#x144;" horiz-adv-x="574" 
d="M431 724l-96 -160h-101l68 160h129zM332 500q84 0 136.5 -48.5t52.5 -136.5v-315h-137v275q0 51 -25.5 76t-69.5 25t-69.5 -28.5t-25.5 -80.5v-267h-137v490h137v-46q50 56 138 56z" />
    <glyph glyph-name="Ncommaaccent" unicode="&#x145;" horiz-adv-x="732" 
d="M526 700h140v-700h-129l-331 452v-452h-141v700h130l331 -453v453zM243 -214l68 159h129l-96 -159h-101z" />
    <glyph glyph-name="ncommaaccent" unicode="&#x146;" horiz-adv-x="574" 
d="M332 500q84 0 136.5 -48.5t52.5 -136.5v-315h-137v275q0 51 -25.5 76t-69.5 25t-69.5 -28.5t-25.5 -80.5v-267h-137v490h137v-46q50 56 138 56zM164 -214l68 159h129l-96 -159h-101z" />
    <glyph glyph-name="Ncaron" unicode="&#x147;" horiz-adv-x="732" 
d="M430 774h-128l-120 160h115l69 -97l70 97h115zM526 700h140v-700h-129l-331 452v-452h-141v700h130l331 -453v453z" />
    <glyph glyph-name="ncaron" unicode="&#x148;" horiz-adv-x="574" 
d="M351 564h-128l-120 160h115l69 -97l70 97h115zM332 500q84 0 136.5 -48.5t52.5 -136.5v-315h-137v275q0 51 -25.5 76t-69.5 25t-69.5 -28.5t-25.5 -80.5v-267h-137v490h137v-46q50 56 138 56z" />
    <glyph glyph-name="napostrophe" unicode="&#x149;" horiz-adv-x="793" 
d="M154 710q35 0 60 -24.5t25 -64.5q0 -90 -121 -197l-54 53q50 40 57 75q-23 9 -37 30t-14 46q0 34 24.5 58t59.5 24zM551 500q84 0 136.5 -48.5t52.5 -136.5v-315h-137v275q0 51 -25.5 76t-69.5 25t-69.5 -28.5t-25.5 -80.5v-267h-137v490h137v-46q50 56 138 56z" />
    <glyph glyph-name="Eng" unicode="&#x14a;" horiz-adv-x="732" 
d="M489 -207q-39 0 -84 10l15 115q22 -7 45 -7q63 0 63 64v36l-322 440v-451h-141v700h130l332 -452v452h139v-742q0 -83 -50 -124t-127 -41z" />
    <glyph glyph-name="eng" unicode="&#x14b;" horiz-adv-x="574" 
d="M332 500q84 0 136.5 -48.5t52.5 -136.5v-357q0 -83 -50.5 -124t-127.5 -41q-37 0 -84 10l15 115q24 -7 46 -7q64 0 64 64v300q0 51 -25.5 76t-69.5 25t-69.5 -28.5t-25.5 -80.5v-267h-137v490h137v-46q50 56 138 56z" />
    <glyph glyph-name="Omacron" unicode="&#x14c;" horiz-adv-x="789" 
d="M230 774v98h329v-98h-329zM394 -10q-156 0 -257.5 100.5t-101.5 260.5t101.5 259.5t257.5 99.5t258 -99.5t102 -259.5t-102 -260.5t-258 -100.5zM394 125q94 0 153.5 62t59.5 163t-59.5 163t-153.5 62t-153 -62t-59 -163t59 -163t153 -62z" />
    <glyph glyph-name="omacron" unicode="&#x14d;" horiz-adv-x="585" 
d="M128 564v98h329v-98h-329zM293 -10q-113 0 -188.5 70.5t-75.5 182.5q0 115 75 186t189 71q113 0 188 -71.5t75 -185.5q0 -112 -75 -182.5t-188 -70.5zM293 113q53 0 88 35.5t35 95.5q0 62 -35 98t-88 36t-88 -36t-35 -98q0 -60 35 -95.5t88 -35.5z" />
    <glyph glyph-name="Obreve" unicode="&#x14e;" horiz-adv-x="789" 
d="M395 760q-73 0 -117.5 44t-44.5 115h98q0 -33 17.5 -53.5t46.5 -20.5t47 20.5t18 53.5h98q0 -71 -45 -115t-118 -44zM394 -10q-156 0 -257.5 100.5t-101.5 260.5t101.5 259.5t257.5 99.5t258 -99.5t102 -259.5t-102 -260.5t-258 -100.5zM394 125q94 0 153.5 62t59.5 163
t-59.5 163t-153.5 62t-153 -62t-59 -163t59 -163t153 -62z" />
    <glyph glyph-name="obreve" unicode="&#x14f;" horiz-adv-x="585" 
d="M293 550q-73 0 -117.5 44t-44.5 115h98q0 -33 17.5 -53.5t46.5 -20.5t47 20.5t18 53.5h98q0 -71 -45 -115t-118 -44zM293 -10q-113 0 -188.5 70.5t-75.5 182.5q0 115 75 186t189 71q113 0 188 -71.5t75 -185.5q0 -112 -75 -182.5t-188 -70.5zM293 113q53 0 88 35.5
t35 95.5q0 62 -35 98t-88 36t-88 -36t-35 -98q0 -60 35 -95.5t88 -35.5z" />
    <glyph glyph-name="Ohungarumlaut" unicode="&#x150;" horiz-adv-x="789" 
d="M258 774l68 160h128l-95 -160h-101zM435 774l69 160h128l-95 -160h-102zM394 -10q-156 0 -257.5 100.5t-101.5 260.5t101.5 259.5t257.5 99.5t258 -99.5t102 -259.5t-102 -260.5t-258 -100.5zM394 125q94 0 153.5 62t59.5 163t-59.5 163t-153.5 62t-153 -62t-59 -163
t59 -163t153 -62z" />
    <glyph glyph-name="ohungarumlaut" unicode="&#x151;" horiz-adv-x="585" 
d="M156 564l68 160h128l-95 -160h-101zM333 564l69 160h128l-95 -160h-102zM293 -10q-113 0 -188.5 70.5t-75.5 182.5q0 115 75 186t189 71q113 0 188 -71.5t75 -185.5q0 -112 -75 -182.5t-188 -70.5zM293 113q53 0 88 35.5t35 95.5q0 62 -35 98t-88 36t-88 -36t-35 -98
q0 -60 35 -95.5t88 -35.5z" />
    <glyph glyph-name="OE" unicode="&#x152;" horiz-adv-x="1149" 
d="M394 -10q-156 0 -257.5 100.5t-101.5 260.5t101.5 259.5t257.5 99.5q130 0 222 -73v63h474v-127h-333v-159h317v-126h-317v-161h340v-127h-481v63q-94 -73 -222 -73zM394 125q94 0 153.5 62t59.5 163t-59.5 163t-153.5 62t-153 -62t-59 -163t59 -163t153 -62z" />
    <glyph glyph-name="oe" unicode="&#x153;" horiz-adv-x="949" 
d="M293 -10q-113 0 -188.5 70.5t-75.5 182.5q0 115 75 186t189 71q122 0 195 -84q69 84 188 84q106 0 175 -67t69 -176q0 -14 -3 -44h-357q7 -56 39 -85.5t80 -29.5q38 0 66 19t35 54l120 -33q-19 -73 -79.5 -110.5t-141.5 -37.5q-122 0 -191 83q-74 -83 -195 -83zM565 305
h223q-6 36 -36 60.5t-75 24.5q-86 0 -112 -85zM293 113q53 0 88 35.5t35 95.5q0 62 -35 98t-88 36t-88 -36t-35 -98q0 -60 35 -95.5t88 -35.5z" />
    <glyph glyph-name="Racute" unicode="&#x154;" horiz-adv-x="639" 
d="M267 774l68 160h129l-96 -160h-101zM65 0v700h275q125 0 191.5 -61.5t66.5 -164.5q0 -76 -41 -131.5t-115 -78.5l164 -264h-149l-152 248h-99v-248h-141zM206 375h143q50 0 77.5 27.5t27.5 71.5t-27.5 71.5t-77.5 27.5h-143v-198z" />
    <glyph glyph-name="racute" unicode="&#x155;" horiz-adv-x="415" 
d="M352 724l-96 -160h-101l68 160h129zM328 500q42 0 72 -10l-20 -130q-36 13 -77 13q-47 0 -78 -30.5t-31 -88.5v-254h-137v490h137v-46q50 56 134 56z" />
    <glyph glyph-name="Rcommaaccent" unicode="&#x156;" horiz-adv-x="639" 
d="M65 0v700h275q125 0 191.5 -61.5t66.5 -164.5q0 -76 -41 -131.5t-115 -78.5l164 -264h-149l-152 248h-99v-248h-141zM206 375h143q50 0 77.5 27.5t27.5 71.5t-27.5 71.5t-77.5 27.5h-143v-198zM197 -214l68 159h129l-96 -159h-101z" />
    <glyph glyph-name="rcommaaccent" unicode="&#x157;" horiz-adv-x="415" 
d="M328 500q42 0 72 -10l-20 -130q-36 13 -77 13q-47 0 -78 -30.5t-31 -88.5v-254h-137v490h137v-46q50 56 134 56zM-1 -214l68 159h129l-96 -159h-101z" />
    <glyph glyph-name="Rcaron" unicode="&#x158;" horiz-adv-x="639" 
d="M256 774l-120 160h115l69 -97l70 97h115l-121 -160h-128zM65 0v700h275q125 0 191.5 -61.5t66.5 -164.5q0 -76 -41 -131.5t-115 -78.5l164 -264h-149l-152 248h-99v-248h-141zM206 375h143q50 0 77.5 27.5t27.5 71.5t-27.5 71.5t-77.5 27.5h-143v-198z" />
    <glyph glyph-name="rcaron" unicode="&#x159;" horiz-adv-x="415" 
d="M272 564h-128l-120 160h115l69 -97l70 97h115zM328 500q42 0 72 -10l-20 -130q-36 13 -77 13q-47 0 -78 -30.5t-31 -88.5v-254h-137v490h137v-46q50 56 134 56z" />
    <glyph glyph-name="Sacute" unicode="&#x15a;" horiz-adv-x="614" 
d="M254 774l68 160h129l-96 -160h-101zM317 -10q-107 0 -182.5 48.5t-95.5 141.5l128 39q13 -50 53 -75.5t92 -25.5q48 0 80.5 20t32.5 60q0 20 -8 34t-27 24t-36 15.5t-48 13.5q-29 7 -38 9.5t-37.5 10.5t-40.5 13.5t-37 16.5t-36.5 21t-29 26t-25.5 33t-14 39.5t-6 47.5
q0 96 69 152t181 56q97 0 168 -48.5t90 -141.5l-128 -39q-13 50 -48.5 75t-81.5 26q-42 0 -70 -19.5t-28 -57.5q0 -37 27.5 -55.5t84.5 -31.5q107 -24 153 -47q118 -57 118 -171q0 -96 -70.5 -153t-189.5 -57z" />
    <glyph glyph-name="sacute" unicode="&#x15b;" horiz-adv-x="481" 
d="M187 564l68 160h129l-96 -160h-101zM245 -10q-83 0 -141.5 35.5t-73.5 101.5l114 30q9 -28 34.5 -43t60.5 -15q33 0 53.5 13t20.5 35q0 20 -17.5 28.5t-56.5 14.5q-36 5 -54 8.5t-53.5 15t-54 26t-34 41.5t-15.5 63q0 74 57.5 115t145.5 41q78 0 133 -34t71 -102
l-116 -31q-7 29 -32.5 43.5t-57.5 14.5q-60 0 -60 -44q0 -20 15 -29t46 -14q3 -1 27.5 -4t35.5 -5t36 -8t38.5 -12.5t32.5 -18t29 -25.5t17.5 -34.5t7.5 -44.5q0 -76 -61 -119t-148 -43z" />
    <glyph glyph-name="Scircumflex" unicode="&#x15c;" horiz-adv-x="614" 
d="M242 934h128l121 -160h-115l-70 97l-69 -97h-115zM317 -10q-107 0 -182.5 48.5t-95.5 141.5l128 39q13 -50 53 -75.5t92 -25.5q48 0 80.5 20t32.5 60q0 20 -8 34t-27 24t-36 15.5t-48 13.5q-29 7 -38 9.5t-37.5 10.5t-40.5 13.5t-37 16.5t-36.5 21t-29 26t-25.5 33
t-14 39.5t-6 47.5q0 96 69 152t181 56q97 0 168 -48.5t90 -141.5l-128 -39q-13 50 -48.5 75t-81.5 26q-42 0 -70 -19.5t-28 -57.5q0 -37 27.5 -55.5t84.5 -31.5q107 -24 153 -47q118 -57 118 -171q0 -96 -70.5 -153t-189.5 -57z" />
    <glyph glyph-name="scircumflex" unicode="&#x15d;" horiz-adv-x="481" 
d="M175 724h128l121 -160h-115l-70 97l-69 -97h-115zM245 -10q-83 0 -141.5 35.5t-73.5 101.5l114 30q9 -28 34.5 -43t60.5 -15q33 0 53.5 13t20.5 35q0 20 -17.5 28.5t-56.5 14.5q-36 5 -54 8.5t-53.5 15t-54 26t-34 41.5t-15.5 63q0 74 57.5 115t145.5 41q78 0 133 -34
t71 -102l-116 -31q-7 29 -32.5 43.5t-57.5 14.5q-60 0 -60 -44q0 -20 15 -29t46 -14q3 -1 27.5 -4t35.5 -5t36 -8t38.5 -12.5t32.5 -18t29 -25.5t17.5 -34.5t7.5 -44.5q0 -76 -61 -119t-148 -43z" />
    <glyph glyph-name="Scedilla" unicode="&#x15e;" horiz-adv-x="614" 
d="M577 200q0 -81 -50.5 -134.5t-139.5 -69.5q59 -36 59 -98q0 -54 -40 -81.5t-95 -27.5q-73 0 -135 48l40 68q32 -32 82 -32q25 0 40 13t15 35q0 44 -69 70q-95 7 -160.5 55t-84.5 134l128 39q13 -50 53 -75.5t92 -25.5q48 0 80.5 20t32.5 60q0 20 -8 34t-27 24t-36 15.5
t-48 13.5q-29 7 -38 9.5t-37.5 10.5t-40.5 13.5t-37 16.5t-36.5 21t-29 26t-25.5 33t-14 39.5t-6 47.5q0 96 69 152t181 56q97 0 168 -48.5t90 -141.5l-128 -39q-13 50 -48.5 75t-81.5 26q-42 0 -70 -19.5t-28 -57.5q0 -37 27.5 -55.5t84.5 -31.5q107 -24 153 -47
q118 -57 118 -171z" />
    <glyph glyph-name="scedilla" unicode="&#x15f;" horiz-adv-x="481" 
d="M454 152q0 -59 -38 -98.5t-100 -55.5q63 -36 63 -100q0 -54 -40 -81.5t-95 -27.5q-73 0 -135 48l40 68q32 -32 82 -32q25 0 40 13t15 35q0 44 -68 70q-73 5 -124 40.5t-64 95.5l114 30q9 -28 34.5 -43t60.5 -15q33 0 53.5 13t20.5 35q0 20 -17.5 28.5t-56.5 14.5
q-36 5 -54 8.5t-53.5 15t-54 26t-34 41.5t-15.5 63q0 74 57.5 115t145.5 41q78 0 133 -34t71 -102l-116 -31q-7 29 -32.5 43.5t-57.5 14.5q-60 0 -60 -44q0 -20 15 -29t46 -14q3 -1 27.5 -4t35.5 -5t36 -8t38.5 -12.5t32.5 -18t29 -25.5t17.5 -34.5t7.5 -44.5z" />
    <glyph glyph-name="Scaron" unicode="&#x160;" horiz-adv-x="614" 
d="M243 774l-120 160h115l69 -97l70 97h115l-121 -160h-128zM317 -10q-107 0 -182.5 48.5t-95.5 141.5l128 39q13 -50 53 -75.5t92 -25.5q48 0 80.5 20t32.5 60q0 20 -8 34t-27 24t-36 15.5t-48 13.5q-29 7 -38 9.5t-37.5 10.5t-40.5 13.5t-37 16.5t-36.5 21t-29 26
t-25.5 33t-14 39.5t-6 47.5q0 96 69 152t181 56q97 0 168 -48.5t90 -141.5l-128 -39q-13 50 -48.5 75t-81.5 26q-42 0 -70 -19.5t-28 -57.5q0 -37 27.5 -55.5t84.5 -31.5q107 -24 153 -47q118 -57 118 -171q0 -96 -70.5 -153t-189.5 -57z" />
    <glyph glyph-name="scaron" unicode="&#x161;" horiz-adv-x="481" 
d="M176 564l-120 160h115l69 -97l70 97h115l-121 -160h-128zM245 -10q-83 0 -141.5 35.5t-73.5 101.5l114 30q9 -28 34.5 -43t60.5 -15q33 0 53.5 13t20.5 35q0 20 -17.5 28.5t-56.5 14.5q-36 5 -54 8.5t-53.5 15t-54 26t-34 41.5t-15.5 63q0 74 57.5 115t145.5 41
q78 0 133 -34t71 -102l-116 -31q-7 29 -32.5 43.5t-57.5 14.5q-60 0 -60 -44q0 -20 15 -29t46 -14q3 -1 27.5 -4t35.5 -5t36 -8t38.5 -12.5t32.5 -18t29 -25.5t17.5 -34.5t7.5 -44.5q0 -76 -61 -119t-148 -43z" />
    <glyph glyph-name="uni0162" unicode="&#x162;" horiz-adv-x="573" 
d="M562 573h-205v-572q67 -38 67 -103q0 -54 -40 -81.5t-95 -27.5q-73 0 -135 48l40 68q32 -32 82 -32q25 0 40 13t15 35q0 54 -97 79h-18v573h-205v127h551v-127z" />
    <glyph glyph-name="uni0163" unicode="&#x163;" horiz-adv-x="412" 
d="M372 -2q62 -36 62 -100q0 -54 -40 -81.5t-95 -27.5q-73 0 -135 48l40 68q32 -32 82 -32q25 0 40 13t15 35q0 46 -69 70q-73 7 -119 52.5t-46 131.5v198h-92v117h66q26 29 26 140h137v-140h149v-117h-149v-192q0 -76 82 -76q33 0 62 12l18 -109q-13 -5 -34 -10z" />
    <glyph glyph-name="Tcaron" unicode="&#x164;" horiz-adv-x="573" 
d="M223 774l-120 160h115l69 -97l70 97h115l-121 -160h-128zM216 0v573h-205v127h551v-127h-205v-573h-141z" />
    <glyph glyph-name="tcaron" unicode="&#x165;" horiz-adv-x="412" 
d="M109 704l-120 160h115l69 -97l70 97h115l-121 -160h-128zM300 -10q-83 0 -138 45t-55 140v198h-92v117h66q26 29 26 140h137v-140h149v-117h-149v-192q0 -76 82 -76q33 0 62 12l18 -109q-47 -18 -106 -18z" />
    <glyph glyph-name="Tbar" unicode="&#x166;" horiz-adv-x="573" 
d="M216 0v291h-126v119h126v163h-205v127h551v-127h-205v-163h127v-119h-127v-291h-141z" />
    <glyph glyph-name="tbar" unicode="&#x167;" horiz-adv-x="412" 
d="M300 -10q-83 0 -138 45t-55 140v41h-92v106h92v51h-92v117h66q26 29 26 140h137v-140h149v-117h-149v-51h149v-106h-149v-41q0 -31 20 -50.5t62 -19.5q33 0 62 12l18 -109q-47 -18 -106 -18z" />
    <glyph glyph-name="Utilde" unicode="&#x168;" horiz-adv-x="670" 
d="M409 768q-39 0 -82.5 23t-61.5 23q-34 0 -41 -38h-80q0 55 33.5 86.5t83.5 31.5q39 0 82.5 -22.5t61.5 -22.5q34 0 41 37h80q0 -55 -33.5 -86.5t-83.5 -31.5zM335 -10q-125 0 -201 77.5t-76 204.5v428h141v-429q0 -65 38 -105.5t99 -40.5t97.5 40.5t36.5 105.5v429h141
v-430q0 -126 -75.5 -203t-200.5 -77z" />
    <glyph glyph-name="utilde" unicode="&#x169;" horiz-adv-x="570" 
d="M216 604q-34 0 -41 -38h-80q0 55 33.5 86.5t83.5 31.5q39 0 82.5 -22.5t61.5 -22.5q34 0 41 37h80q0 -55 -33.5 -86.5t-83.5 -31.5q-39 0 -82.5 23t-61.5 23zM380 490h137v-490h-137v46q-50 -56 -137 -56q-80 0 -135 51t-55 144v305h137v-281q0 -46 26 -70.5t69 -24.5
q44 0 69.5 28.5t25.5 80.5v267z" />
    <glyph glyph-name="Umacron" unicode="&#x16a;" horiz-adv-x="670" 
d="M170 774v98h329v-98h-329zM335 -10q-125 0 -201 77.5t-76 204.5v428h141v-429q0 -65 38 -105.5t99 -40.5t97.5 40.5t36.5 105.5v429h141v-430q0 -126 -75.5 -203t-200.5 -77z" />
    <glyph glyph-name="umacron" unicode="&#x16b;" horiz-adv-x="570" 
d="M450 662v-98h-329v98h329zM380 490h137v-490h-137v46q-50 -56 -137 -56q-80 0 -135 51t-55 144v305h137v-281q0 -46 26 -70.5t69 -24.5q44 0 69.5 28.5t25.5 80.5v267z" />
    <glyph glyph-name="Ubreve" unicode="&#x16c;" horiz-adv-x="670" 
d="M335 760q-73 0 -117.5 44t-44.5 115h98q0 -33 17.5 -53.5t46.5 -20.5t47 20.5t18 53.5h98q0 -71 -45 -115t-118 -44zM335 -10q-125 0 -201 77.5t-76 204.5v428h141v-429q0 -65 38 -105.5t99 -40.5t97.5 40.5t36.5 105.5v429h141v-430q0 -126 -75.5 -203t-200.5 -77z" />
    <glyph glyph-name="ubreve" unicode="&#x16d;" horiz-adv-x="570" 
d="M286 550q-73 0 -117.5 44t-44.5 115h98q0 -33 17.5 -53.5t46.5 -20.5t47 20.5t18 53.5h98q0 -71 -45 -115t-118 -44zM380 490h137v-490h-137v46q-50 -56 -137 -56q-80 0 -135 51t-55 144v305h137v-281q0 -46 26 -70.5t69 -24.5q44 0 69.5 28.5t25.5 80.5v267z" />
    <glyph glyph-name="Uring" unicode="&#x16e;" horiz-adv-x="670" 
d="M335 749q-49 0 -81.5 31.5t-32.5 76.5t32 76t82 31t82.5 -31t32.5 -76t-32.5 -76.5t-82.5 -31.5zM335 817q17 0 29 11t12 29q0 17 -12 28t-29 11q-16 0 -28 -11t-12 -28q0 -18 12 -29t28 -11zM335 -10q-125 0 -201 77.5t-76 204.5v428h141v-429q0 -65 38 -105.5t99 -40.5
t97.5 40.5t36.5 105.5v429h141v-430q0 -126 -75.5 -203t-200.5 -77z" />
    <glyph glyph-name="uring" unicode="&#x16f;" horiz-adv-x="570" 
d="M286 539q-49 0 -81.5 31.5t-32.5 76.5t32 76t82 31t82.5 -31t32.5 -76t-32.5 -76.5t-82.5 -31.5zM286 686q-16 0 -28 -11t-12 -28q0 -18 12 -29t28 -11q17 0 29 11t12 29q0 17 -12 28t-29 11zM380 490h137v-490h-137v46q-50 -56 -137 -56q-80 0 -135 51t-55 144v305h137
v-281q0 -46 26 -70.5t69 -24.5q44 0 69.5 28.5t25.5 80.5v267z" />
    <glyph glyph-name="Uhungarumlaut" unicode="&#x170;" horiz-adv-x="670" 
d="M198 774l68 160h128l-95 -160h-101zM375 774l69 160h128l-95 -160h-102zM335 -10q-125 0 -201 77.5t-76 204.5v428h141v-429q0 -65 38 -105.5t99 -40.5t97.5 40.5t36.5 105.5v429h141v-430q0 -126 -75.5 -203t-200.5 -77z" />
    <glyph glyph-name="uhungarumlaut" unicode="&#x171;" horiz-adv-x="570" 
d="M345 724l-95 -160h-101l68 160h128zM428 564h-102l69 160h128zM380 223v267h137v-490h-137v46q-50 -56 -137 -56q-80 0 -135 51t-55 144v305h137v-281q0 -46 26 -70.5t69 -24.5q44 0 69.5 28.5t25.5 80.5z" />
    <glyph glyph-name="Uogonek" unicode="&#x172;" horiz-adv-x="670" 
d="M470 700h141v-430q0 -101 -50 -172t-137 -96l2 -2q-109 -25 -109 -82q0 -22 15 -35t41 -13q49 0 81 32l40 -68q-62 -48 -135 -48q-55 0 -95 27.5t-40 81.5q0 62 62 98q-105 16 -166.5 91t-61.5 188v428h141v-429q0 -65 38 -105.5t99 -40.5t97.5 40.5t36.5 105.5v429z" />
    <glyph glyph-name="uogonek" unicode="&#x173;" horiz-adv-x="570" 
d="M524 -98l40 -68q-62 -48 -135 -48q-55 0 -95 27.5t-40 81.5q0 75 86 111v40q-50 -56 -137 -56q-80 0 -135 51t-55 144v305h137v-281q0 -46 26 -70.5t69 -24.5q44 0 69.5 28.5t25.5 80.5v267h137v-490h-21q-109 -25 -109 -82q0 -22 15 -35t41 -13q49 0 81 32z" />
    <glyph glyph-name="Wcircumflex" unicode="&#x174;" horiz-adv-x="1084" 
d="M541 871l-69 -97h-115l120 160h128l121 -160h-115zM918 700h154l-207 -700h-163l-161 499l-161 -499h-162l-207 700h154l140 -513l161 513h151l161 -513z" />
    <glyph glyph-name="wcircumflex" unicode="&#x175;" horiz-adv-x="855" 
d="M427 661l-69 -97h-115l120 160h128l121 -160h-115zM701 490h144l-158 -490h-153l-106 324l-106 -324h-154l-157 490h143l102 -343l107 343h129l108 -343z" />
    <glyph glyph-name="Ycircumflex" unicode="&#x176;" horiz-adv-x="676" 
d="M337 871l-69 -97h-115l120 160h128l121 -160h-115zM526 700h151l-268 -461v-239h-141v239l-268 461h150l188 -333z" />
    <glyph glyph-name="ycircumflex" unicode="&#x177;" horiz-adv-x="561" 
d="M280 661l-69 -97h-115l120 160h128l121 -160h-115zM414 490h145l-298 -690h-129l89 200l-218 490h145l134 -328z" />
    <glyph glyph-name="Ydieresis" unicode="&#x178;" horiz-adv-x="676" 
d="M229 778q-34 0 -58.5 24.5t-24.5 59.5q0 34 24.5 58.5t58.5 24.5q35 0 59 -24.5t24 -58.5q0 -35 -24 -59.5t-59 -24.5zM446 778q-34 0 -58.5 24.5t-24.5 59.5q0 34 24.5 58.5t58.5 24.5q35 0 59 -24.5t24 -58.5q0 -35 -24 -59.5t-59 -24.5zM526 700h151l-268 -461v-239
h-141v239l-268 461h150l188 -333z" />
    <glyph glyph-name="Zacute" unicode="&#x179;" horiz-adv-x="647" 
d="M468 934l-96 -160h-101l68 160h129zM236 127h373v-127h-571v94l374 479h-360v127h552v-94z" />
    <glyph glyph-name="zacute" unicode="&#x17a;" horiz-adv-x="522" 
d="M405 724l-96 -160h-101l68 160h129zM231 120h252v-120h-444v91l246 279h-235v120h426v-90z" />
    <glyph glyph-name="Zdotaccent" unicode="&#x17b;" horiz-adv-x="647" 
d="M323 773q-36 0 -61 26t-25 62t25 61.5t61 25.5q37 0 63 -25.5t26 -61.5t-26 -62t-63 -26zM236 127h373v-127h-571v94l374 479h-360v127h552v-94z" />
    <glyph glyph-name="zdotaccent" unicode="&#x17c;" horiz-adv-x="522" 
d="M260 563q-36 0 -61 26t-25 62t25 61.5t61 25.5q37 0 63 -25.5t26 -61.5t-26 -62t-63 -26zM231 120h252v-120h-444v91l246 279h-235v120h426v-90z" />
    <glyph glyph-name="Zcaron" unicode="&#x17d;" horiz-adv-x="647" 
d="M388 774h-128l-120 160h115l69 -97l70 97h115zM236 127h373v-127h-571v94l374 479h-360v127h552v-94z" />
    <glyph glyph-name="zcaron" unicode="&#x17e;" horiz-adv-x="522" 
d="M325 564h-128l-120 160h115l69 -97l70 97h115zM231 120h252v-120h-444v91l246 279h-235v120h426v-90z" />
    <glyph glyph-name="longs" unicode="&#x17f;" horiz-adv-x="425" 
d="M103 0v373h-88v117h88v39q0 91 55.5 136t138.5 45q61 0 120 -17l-18 -107q-38 13 -76 13q-83 0 -83 -80v-519h-137z" />
    <glyph glyph-name="florin" unicode="&#x192;" horiz-adv-x="528" 
d="M75 -99l55 404h-80v116h96l15 108q13 91 75 136t143 45q62 0 119 -17l-33 -107q-38 13 -73 13q-84 0 -95 -80l-13 -98h159v-116h-175l-56 -404h-137z" />
    <glyph glyph-name="uni01CD" unicode="&#x1cd;" horiz-adv-x="730" 
d="M429 774h-128l-120 160h115l69 -97l70 97h115zM444 700l281 -700h-149l-60 156h-302l-60 -156h-149l281 700h158zM262 283h205l-102 263z" />
    <glyph glyph-name="Aringacute" unicode="&#x1fa;" horiz-adv-x="730" 
d="M477 1084l-66 -94h-94l42 94h118zM365 749q-49 0 -81.5 31.5t-32.5 76.5t32 76t82 31t83 -31t33 -76t-33 -76.5t-83 -31.5zM365 896q-16 0 -27.5 -11t-11.5 -28q0 -18 11.5 -29t27.5 -11q17 0 29 11t12 29q0 17 -12 28t-29 11zM444 700l281 -700h-149l-60 156h-302
l-60 -156h-149l281 700h158zM262 283h205l-102 263z" />
    <glyph glyph-name="aringacute" unicode="&#x1fb;" horiz-adv-x="545" 
d="M385 874l-66 -94h-94l42 94h118zM273 539q-49 0 -81.5 31.5t-32.5 76.5t32 76t82 31t83 -31t33 -76t-33 -76.5t-83 -31.5zM273 686q-16 0 -27.5 -11t-11.5 -28q0 -18 11.5 -29t27.5 -11q17 0 29 11t12 29q0 17 -12 28t-29 11zM502 108q4 0 22 4v-115q-23 -7 -52 -7
q-90 0 -120 57q-52 -57 -151 -57q-76 0 -124 39t-48 109q0 65 44 103.5t116 45.5l150 15v10q0 37 -24 58t-61 21q-66 0 -82 -62l-121 19q13 79 71.5 115.5t140.5 36.5q99 0 156 -48t57 -137v-180q0 -27 26 -27zM339 195v16l-113 -14q-30 -3 -46.5 -17.5t-16.5 -36.5
q0 -26 22 -39t57 -12q43 2 70 29t27 74z" />
    <glyph glyph-name="AEacute" unicode="&#x1fc;" horiz-adv-x="1018" 
d="M668 774l68 160h129l-96 -160h-101zM5 0l281 700h673v-127h-334v-159h317v-126h-317v-161h341v-127h-482v156h-268l-62 -156h-149zM265 283h219v290h-102z" />
    <glyph glyph-name="aeacute" unicode="&#x1fd;" horiz-adv-x="866" 
d="M381 564l68 160h129l-96 -160h-101zM211 -10q-78 0 -130 39.5t-52 108.5q0 65 44 103.5t116 45.5l150 15v10q0 37 -24 58t-61 21q-66 0 -82 -62l-121 19q13 79 71.5 115.5t139.5 36.5q111 0 165 -62q70 62 166 62q106 0 175 -67t69 -176q0 -14 -3 -44h-357
q7 -56 40.5 -85.5t79.5 -29.5q37 0 65 18t35 48l120 -33q-20 -68 -80 -104.5t-139 -36.5q-124 0 -198 83q-57 -83 -189 -83zM483 305h222q-6 35 -36 60t-75 25q-87 0 -111 -85zM242 92q43 2 70 29t27 74v16l-113 -14q-30 -3 -46.5 -17.5t-16.5 -36.5q0 -26 22 -39t57 -12z
" />
    <glyph glyph-name="Oslashacute" unicode="&#x1fe;" horiz-adv-x="789" 
d="M539 934l-96 -160h-101l68 160h129zM777 700l-102 -114q79 -95 79 -235q0 -160 -102 -260.5t-258 -100.5q-116 0 -204 57l-43 -47h-135l103 114q-80 96 -80 237q0 160 101.5 259.5t257.5 99.5q117 0 205 -57l43 47h135zM182 350q0 -73 32 -126l290 323q-48 28 -110 28
q-94 0 -153 -62t-59 -163zM607 350q0 73 -32 126l-290 -323q48 -28 109 -28q94 0 153.5 62t59.5 163z" />
    <glyph glyph-name="oslashacute" unicode="&#x1ff;" horiz-adv-x="585" 
d="M437 724l-96 -160h-101l68 160h129zM574 490l-75 -81q57 -68 57 -166q0 -112 -75 -182.5t-188 -70.5q-80 0 -145 38l-26 -28h-111l74 81q-56 67 -56 162q0 115 75 186t189 71q82 0 144 -38l25 28h112zM170 244q0 -32 11 -59l167 181q-26 12 -55 12q-53 0 -88 -36t-35 -98
zM416 244q0 35 -12 62l-167 -181q25 -12 56 -12q53 0 88 35.5t35 95.5z" />
    <glyph glyph-name="Scommaaccent" unicode="&#x218;" horiz-adv-x="614" 
d="M317 -10q-107 0 -182.5 48.5t-95.5 141.5l128 39q13 -50 53 -75.5t92 -25.5q48 0 80.5 20t32.5 60q0 20 -8 34t-27 24t-36 15.5t-48 13.5q-29 7 -38 9.5t-37.5 10.5t-40.5 13.5t-37 16.5t-36.5 21t-29 26t-25.5 33t-14 39.5t-6 47.5q0 96 69 152t181 56q97 0 168 -48.5
t90 -141.5l-128 -39q-13 50 -48.5 75t-81.5 26q-42 0 -70 -19.5t-28 -57.5q0 -37 27.5 -55.5t84.5 -31.5q107 -24 153 -47q118 -57 118 -171q0 -96 -70.5 -153t-189.5 -57zM184 -214l68 159h129l-96 -159h-101z" />
    <glyph glyph-name="scommaaccent" unicode="&#x219;" horiz-adv-x="481" 
d="M245 -10q-83 0 -141.5 35.5t-73.5 101.5l114 30q9 -28 34.5 -43t60.5 -15q33 0 53.5 13t20.5 35q0 20 -17.5 28.5t-56.5 14.5q-36 5 -54 8.5t-53.5 15t-54 26t-34 41.5t-15.5 63q0 74 57.5 115t145.5 41q78 0 133 -34t71 -102l-116 -31q-7 29 -32.5 43.5t-57.5 14.5
q-60 0 -60 -44q0 -20 15 -29t46 -14q3 -1 27.5 -4t35.5 -5t36 -8t38.5 -12.5t32.5 -18t29 -25.5t17.5 -34.5t7.5 -44.5q0 -76 -61 -119t-148 -43zM117 -214l68 159h129l-96 -159h-101z" />
    <glyph glyph-name="uni021A" unicode="&#x21a;" horiz-adv-x="573" 
d="M216 0v573h-205v127h551v-127h-205v-573h-141zM162 -214l68 159h129l-96 -159h-101z" />
    <glyph glyph-name="uni021B" unicode="&#x21b;" horiz-adv-x="412" 
d="M300 -10q-83 0 -138 45t-55 140v198h-92v117h66q26 29 26 140h137v-140h149v-117h-149v-192q0 -76 82 -76q33 0 62 12l18 -109q-47 -18 -106 -18zM172 -214l68 159h129l-96 -159h-101z" />
    <glyph glyph-name="uni0237" unicode="&#x237;" horiz-adv-x="299" 
d="M58 -207q-37 0 -84 10l15 115q24 -7 46 -7q64 0 64 64v515h137v-532q0 -83 -50.5 -124t-127.5 -41z" />
    <glyph glyph-name="circumflex" unicode="&#x2c6;" 
d="M-65 724h128l121 -160h-115l-70 97l-69 -97h-115z" />
    <glyph glyph-name="caron" unicode="&#x2c7;" 
d="M-65 564l-120 160h115l69 -97l70 97h115l-121 -160h-128z" />
    <glyph glyph-name="breve" unicode="&#x2d8;" 
d="M-1 550q-73 0 -117.5 44t-44.5 115h98q0 -33 17.5 -53.5t46.5 -20.5t47 20.5t18 53.5h98q0 -71 -45 -115t-118 -44z" />
    <glyph glyph-name="dotaccent" unicode="&#x2d9;" 
d="M-1 563q-36 0 -61 26t-25 62t25 61.5t61 25.5q37 0 63 -25.5t26 -61.5t-26 -62t-63 -26z" />
    <glyph glyph-name="ring" unicode="&#x2da;" 
d="M-1 539q-49 0 -81.5 31.5t-32.5 76.5t32 76t82 31t82.5 -31t32.5 -76t-32.5 -76.5t-82.5 -31.5zM-1 607q17 0 29 11t12 29q0 17 -12 28t-29 11q-16 0 -28 -11t-12 -28q0 -18 12 -29t28 -11z" />
    <glyph glyph-name="ogonek" unicode="&#x2db;" 
d="M0 -211q-55 0 -95 27.5t-40 81.5q0 50 42.5 85t122.5 47l37 -27q-109 -25 -109 -82q0 -22 15 -35t41 -13q49 0 81 32l40 -68q-62 -48 -135 -48z" />
    <glyph glyph-name="tilde" unicode="&#x2dc;" 
d="M74 558q-39 0 -82.5 23t-61.5 23q-34 0 -41 -38h-80q0 55 33.5 86.5t83.5 31.5q39 0 82.5 -22.5t61.5 -22.5q34 0 41 37h80q0 -55 -33.5 -86.5t-83.5 -31.5z" />
    <glyph glyph-name="hungarumlaut" unicode="&#x2dd;" 
d="M-187 564l68 160h128l-95 -160h-101zM-10 564l69 160h128l-95 -160h-102z" />
    <glyph glyph-name="uni0326" unicode="&#x326;" 
d="M-99 -214l68 159h129l-96 -159h-101z" />
    <glyph glyph-name="uni0335" unicode="&#x335;" 
d="M-165 215v107h330v-107h-330z" />
    <glyph glyph-name="uni0336" unicode="&#x336;" 
d="M-258 209v119h516v-119h-516z" />
    <glyph glyph-name="uni0337" unicode="&#x337;" 
d="M-282 0l451 490h112l-452 -490h-111z" />
    <glyph glyph-name="uni0338" unicode="&#x338;" 
d="M-383 0l630 700h135l-630 -700h-135z" />
    <glyph glyph-name="uni0374" unicode="&#x374;" horiz-adv-x="242" 
d="M29 440l68 260h129l-96 -260h-101z" />
    <glyph glyph-name="uni037E" unicode="&#x37e;" horiz-adv-x="299" 
d="M149 494q36 0 60.5 -24t24.5 -59q0 -34 -24.5 -58.5t-60.5 -24.5q-34 0 -59 24.5t-25 58.5t24.5 58.5t59.5 24.5zM116 -126l-54 54q50 40 57 74q-23 9 -37 30t-14 46q0 34 24.5 58.5t59.5 24.5t60 -24.5t25 -65.5q0 -89 -121 -197z" />
    <glyph glyph-name="tonos" unicode="&#x384;" 
d="M-95 564l62 160h128l-89 -160h-101z" />
    <glyph glyph-name="dieresistonos" unicode="&#x385;" 
d="M-85 564l48 194h129l-75 -194h-102zM-158 592q-30 0 -51 21t-21 50t21 50t51 21q29 0 50 -21t21 -50t-20.5 -50t-50.5 -21zM158 592q-30 0 -51 21t-21 50t21 50t51 21q29 0 50 -21t21 -50t-21 -50t-50 -21z" />
    <glyph glyph-name="Alphatonos" unicode="&#x386;" horiz-adv-x="760" 
d="M207 700l-92 -189h-100l63 189h129zM474 700l281 -700h-149l-60 156h-302l-60 -156h-149l281 700h158zM293 283h204l-102 262z" />
    <glyph glyph-name="anoteleia" unicode="&#x387;" horiz-adv-x="313" 
d="M156 277q-35 0 -59.5 24t-24.5 59q0 34 24.5 58t59.5 24t59.5 -24t24.5 -58q0 -35 -24.5 -59t-59.5 -24z" />
    <glyph glyph-name="Epsilontonos" unicode="&#x388;" horiz-adv-x="765" 
d="M-8 511l62 189h129l-92 -189h-99zM231 0v700h475v-127h-334v-159h317v-126h-317v-161h341v-127h-482z" />
    <glyph glyph-name="Etatonos" unicode="&#x389;" horiz-adv-x="863" 
d="M-8 511l62 189h129l-92 -189h-99zM221 0v700h141v-287h294v287h141v-700h-141v287h-294v-287h-141z" />
    <glyph glyph-name="Iotatonos" unicode="&#x38a;" horiz-adv-x="428" 
d="M-8 511l62 189h129l-92 -189h-99zM221 0v700h141v-700h-141z" />
    <glyph glyph-name="Omicrontonos" unicode="&#x38c;" horiz-adv-x="885" 
d="M491 -10q-157 0 -258.5 100t-101.5 261q0 160 101.5 259.5t258.5 99.5q156 0 258 -99.5t102 -259.5t-102 -260.5t-258 -100.5zM-8 511l62 189h129l-92 -189h-99zM491 125q94 0 153 62t59 163t-59 163t-153 62t-153 -62t-59 -163t59 -163t153 -62z" />
    <glyph glyph-name="Upsilontonos" unicode="&#x38e;" horiz-adv-x="877" 
d="M-8 511l62 189h129l-92 -189h-99zM728 700h150l-268 -461v-239h-141v239l-268 461h150l189 -333z" />
    <glyph glyph-name="Omegatonos" unicode="&#x38f;" horiz-adv-x="886" 
d="M114 0v120h113q-103 88 -103 238q0 156 101.5 254t257.5 98t257 -98t101 -254q0 -151 -103 -238h113v-120h-342v120q79 0 132 65t53 164q0 101 -59 163.5t-152 62.5q-94 0 -152.5 -62.5t-58.5 -163.5q0 -99 53 -164t131 -65v-120h-342zM-8 511l62 189h129l-92 -189h-99z
" />
    <glyph glyph-name="iotadieresistonos" unicode="&#x390;" horiz-adv-x="255" 
d="M69 564l48 194h129l-75 -194h-102zM-4 592q-30 0 -51 21t-21 50t21 50t51 21q29 0 50 -21t21 -50t-20.5 -50t-50.5 -21zM312 592q-30 0 -51 21t-21 50t21 50t51 21q29 0 50 -21t21 -50t-21 -50t-50 -21zM177 -10q-55 0 -93.5 30t-38.5 105v365h137v-355q0 -27 25 -27
q4 0 22 4v-115q-21 -7 -52 -7z" />
    <glyph glyph-name="Alpha" unicode="&#x391;" horiz-adv-x="730" 
d="M444 700l281 -700h-149l-60 156h-302l-60 -156h-149l281 700h158zM262 283h205l-102 263z" />
    <glyph glyph-name="Beta" unicode="&#x392;" horiz-adv-x="647" 
d="M65 0v700h307q105 0 163.5 -51t58.5 -139q0 -90 -85 -136q103 -52 103 -165q0 -99 -61.5 -154t-178.5 -55h-307zM206 425h152q43 0 66.5 20.5t23.5 57.5q0 78 -90 78h-152v-156zM206 118h155q51 0 78.5 26t27.5 70q0 43 -28 68t-78 25h-155v-189z" />
    <glyph glyph-name="Gamma" unicode="&#x393;" horiz-adv-x="515" 
d="M65 0v700h436v-127h-295v-573h-141z" />
    <glyph glyph-name="uni0394" unicode="&#x394;" horiz-adv-x="668" 
d="M15 0v127l240 573h158l240 -573v-127h-638zM161 127h346l-173 417z" />
    <glyph glyph-name="Epsilon" unicode="&#x395;" horiz-adv-x="598" 
d="M65 0v700h475v-127h-334v-159h317v-126h-317v-161h341v-127h-482z" />
    <glyph glyph-name="Zeta" unicode="&#x396;" horiz-adv-x="647" 
d="M236 127h373v-127h-571v94l374 479h-360v127h552v-94z" />
    <glyph glyph-name="Eta" unicode="&#x397;" horiz-adv-x="707" 
d="M65 0v700h141v-287h295v287h141v-700h-141v287h-295v-287h-141z" />
    <glyph glyph-name="Theta" unicode="&#x398;" horiz-adv-x="789" 
d="M394 -10q-156 0 -257.5 100.5t-101.5 260.5t101.5 259.5t257.5 99.5t258 -99.5t102 -259.5t-102 -260.5t-258 -100.5zM394 125q94 0 153.5 62t59.5 163t-59.5 163t-153.5 62t-153 -62t-59 -163t59 -163t153 -62zM252 298l-1 115h292v-115h-291z" />
    <glyph glyph-name="Iota" unicode="&#x399;" horiz-adv-x="273" 
d="M66 0v700h141v-700h-141z" />
    <glyph glyph-name="Kappa" unicode="&#x39a;" horiz-adv-x="647" 
d="M65 0v700h141v-301l267 301h168l-261 -303l272 -397h-176l-199 292l-71 -72v-220h-141z" />
    <glyph glyph-name="Lambda" unicode="&#x39b;" horiz-adv-x="730" 
d="M5 0l281 700h158l281 -700h-149l-211 544l-211 -544h-149z" />
    <glyph glyph-name="Mu" unicode="&#x39c;" horiz-adv-x="892" 
d="M652 700h174v-700h-141v433l-178 -433h-122l-179 435v-435h-141v700h174l207 -493z" />
    <glyph glyph-name="Nu" unicode="&#x39d;" horiz-adv-x="732" 
d="M526 700h140v-700h-129l-331 452v-452h-141v700h130l331 -453v453z" />
    <glyph glyph-name="Xi" unicode="&#x39e;" horiz-adv-x="625" 
d="M66 573l-1 127h495v-127h-494zM106 287l-1 126h415v-126h-414zM66 0l-1 127h495v-127h-494z" />
    <glyph glyph-name="Omicron" unicode="&#x39f;" horiz-adv-x="789" 
d="M394 -10q-156 0 -257.5 100.5t-101.5 260.5t101.5 259.5t257.5 99.5t258 -99.5t102 -259.5t-102 -260.5t-258 -100.5zM394 125q94 0 153.5 62t59.5 163t-59.5 163t-153.5 62t-153 -62t-59 -163t59 -163t153 -62z" />
    <glyph glyph-name="Pi" unicode="&#x3a0;" horiz-adv-x="707" 
d="M65 0v700h577v-700h-141v573h-295v-573h-141z" />
    <glyph glyph-name="Rho" unicode="&#x3a1;" horiz-adv-x="628" 
d="M65 0v700h275q123 0 190.5 -63.5t67.5 -172.5q0 -108 -67.5 -172t-190.5 -64h-134v-228h-141zM206 355h138q52 0 81 29t29 80t-29 80t-81 29h-138v-218z" />
    <glyph glyph-name="Sigma" unicode="&#x3a3;" horiz-adv-x="589" 
d="M38 0v127l193 223l-193 223v127h513v-127h-334l188 -223l-188 -223h334v-127h-513z" />
    <glyph glyph-name="Tau" unicode="&#x3a4;" horiz-adv-x="573" 
d="M216 0v573h-205v127h551v-127h-205v-573h-141z" />
    <glyph glyph-name="Upsilon" unicode="&#x3a5;" horiz-adv-x="676" 
d="M526 700h151l-268 -461v-239h-141v239l-268 461h150l188 -333z" />
    <glyph glyph-name="Phi" unicode="&#x3a6;" horiz-adv-x="828" 
d="M351 -40v86q-142 15 -229.5 98t-87.5 207q0 123 87.5 205.5t229.5 97.5v86h127v-86q142 -15 229 -97.5t87 -205.5q0 -124 -87 -207t-229 -98v-86h-127zM351 183v334q-78 -12 -123.5 -56.5t-45.5 -110.5t45.5 -110.5t123.5 -56.5zM478 183q78 13 123.5 57.5t45.5 109.5
q0 66 -45.5 110.5t-123.5 55.5v-333z" />
    <glyph glyph-name="Chi" unicode="&#x3a7;" horiz-adv-x="697" 
d="M686 700l-252 -363l238 -337h-158l-171 242l-173 -242h-158l253 354l-245 346h158l176 -249l174 249h158z" />
    <glyph glyph-name="Psi" unicode="&#x3a8;" horiz-adv-x="783" 
d="M321 0v176q-121 20 -192 101.5t-71 203.5v219h141v-219q0 -63 32.5 -106t89.5 -59v384h141v-384q57 16 89.5 59t32.5 106v219h140v-219q0 -122 -71 -203.5t-191 -101.5v-176h-141z" />
    <glyph glyph-name="uni03A9" unicode="&#x3a9;" horiz-adv-x="807" 
d="M35 0v120h113q-103 87 -103 238q0 156 101.5 254t257.5 98q155 0 256.5 -98.5t101.5 -253.5q0 -151 -103 -238h113v-120h-342v120q79 0 132 65t53 164q0 101 -59 163.5t-152 62.5q-94 0 -153 -62.5t-59 -163.5q0 -99 53.5 -164t131.5 -65v-120h-342z" />
    <glyph glyph-name="Iotadieresis" unicode="&#x3aa;" horiz-adv-x="273" 
d="M27 778q-34 0 -58.5 24.5t-24.5 59.5q0 34 24.5 58.5t58.5 24.5q35 0 59 -24.5t24 -58.5q0 -35 -24 -59.5t-59 -24.5zM244 778q-34 0 -58.5 24.5t-24.5 59.5q0 34 24.5 58.5t58.5 24.5q35 0 59 -24.5t24 -58.5q0 -35 -24 -59.5t-59 -24.5zM66 0v700h141v-700h-141z" />
    <glyph glyph-name="Upsilondieresis" unicode="&#x3ab;" horiz-adv-x="676" 
d="M229 778q-34 0 -58.5 24.5t-24.5 59.5q0 34 24.5 58.5t58.5 24.5q35 0 59 -24.5t24 -58.5q0 -35 -24 -59.5t-59 -24.5zM446 778q-34 0 -58.5 24.5t-24.5 59.5q0 34 24.5 58.5t58.5 24.5q35 0 59 -24.5t24 -58.5q0 -35 -24 -59.5t-59 -24.5zM526 700h151l-268 -461v-239
h-141v239l-268 461h150l188 -333z" />
    <glyph glyph-name="alphatonos" unicode="&#x3ac;" horiz-adv-x="633" 
d="M462 724l-89 -160h-101l62 160h128zM586 108q3 0 21 4v-115q-21 -7 -51 -7q-41 0 -76.5 17t-48.5 55q-58 -72 -162 -72q-102 0 -171 72t-69 183q0 112 69.5 183.5t172.5 71.5q96 0 152 -64v54h137v-355q0 -27 26 -27zM298 109q54 0 89.5 37.5t35.5 98.5t-35.5 98.5
t-89.5 37.5t-90.5 -37.5t-36.5 -98.5t36.5 -98.5t90.5 -37.5z" />
    <glyph glyph-name="epsilontonos" unicode="&#x3ad;" horiz-adv-x="474" 
d="M192 564l62 160h128l-89 -160h-101zM238 -10q-93 0 -151 42.5t-58 106.5q0 72 70 111q-62 35 -62 103q0 64 57.5 105.5t148.5 41.5q84 0 141 -37.5t72 -102.5l-118 -30q-8 28 -31.5 44t-58.5 16q-32 0 -53 -12.5t-21 -34.5q0 -20 20.5 -32.5t58.5 -12.5h58v-94h-58
q-41 0 -64 -14t-23 -37q0 -24 22 -38.5t56 -14.5q37 0 61.5 18t32.5 48l118 -30q-15 -67 -73 -106.5t-145 -39.5z" />
    <glyph glyph-name="etatonos" unicode="&#x3ae;" horiz-adv-x="594" 
d="M445 724l-89 -160h-101l62 160h128zM352 500q84 0 136.5 -48.5t52.5 -136.5v-461h-137v421q0 51 -25.5 76t-68.5 25q-44 0 -70 -28.5t-26 -80.5v-267h-137v355q0 27 -26 27q-9 0 -21 -4v115q21 7 51 7q98 0 124 -68q49 68 147 68z" />
    <glyph glyph-name="iotatonos" unicode="&#x3af;" horiz-adv-x="255" 
d="M67 564l62 160h128l-89 -160h-101zM177 -10q-55 0 -93.5 30t-38.5 105v365h137v-355q0 -27 25 -27q4 0 22 4v-115q-21 -7 -52 -7z" />
    <glyph glyph-name="upsilondieresistonos" unicode="&#x3b0;" horiz-adv-x="574" 
d="M222 564l48 194h129l-75 -194h-102zM149 592q-30 0 -51 21t-21 50t21 50t51 21q29 0 50 -21t21 -50t-20.5 -50t-50.5 -21zM465 592q-30 0 -51 21t-21 50t21 50t51 21q29 0 50 -21t21 -50t-21 -50t-50 -21zM287 -10q-102 0 -168 56t-66 150v294h138v-280q0 -46 26 -71
t70 -25q43 0 70 27t27 79q0 45 -13.5 123.5t-34.5 146.5h137q48 -192 48 -285q0 -105 -64.5 -160t-169.5 -55z" />
    <glyph glyph-name="alpha" unicode="&#x3b1;" horiz-adv-x="633" 
d="M586 108q3 0 21 4v-115q-21 -7 -51 -7q-41 0 -76.5 17t-48.5 55q-58 -72 -162 -72q-102 0 -171 72t-69 183q0 112 69.5 183.5t172.5 71.5q96 0 152 -64v54h137v-355q0 -27 26 -27zM298 109q54 0 89.5 37.5t35.5 98.5t-35.5 98.5t-89.5 37.5t-90.5 -37.5t-36.5 -98.5
t36.5 -98.5t90.5 -37.5z" />
    <glyph glyph-name="beta" unicode="&#x3b2;" horiz-adv-x="628" 
d="M62 -153v609q0 114 71 184t187 70q115 0 185 -54t70 -143q0 -41 -23 -79.5t-61 -59.5q46 -23 74.5 -70t28.5 -100q0 -96 -63 -155t-166 -59q-50 0 -95 17t-68 45v-205h-140zM324 111q56 0 90 28t34 75q0 43 -31 68.5t-81 25.5h-39v116h39q42 0 68 21.5t26 56.5
q0 40 -30.5 64t-80.5 24q-53 0 -85 -35t-32 -92v-216q0 -61 33.5 -98.5t88.5 -37.5z" />
    <glyph glyph-name="gamma" unicode="&#x3b3;" horiz-adv-x="569" 
d="M212 -153v153l-206 490h143l139 -361q126 188 126 361h142q0 -225 -207 -490v-153h-137z" />
    <glyph glyph-name="delta" unicode="&#x3b4;" horiz-adv-x="585" 
d="M291 -10q-112 0 -187.5 70t-75.5 181q0 139 116 201q-65 42 -65 114q0 73 57.5 113.5t145.5 40.5q79 0 133.5 -35t70.5 -107l-117 -31q-12 64 -89 64q-28 1 -44.5 -11t-16.5 -31q0 -13 6.5 -22.5t22 -17t23.5 -10.5t27 -9q130 -38 193.5 -92t63.5 -159q0 -117 -75 -188
t-189 -71zM291 113q55 0 89 36t34 96q0 33 -10.5 58t-31 40t-37 22.5t-41.5 15.5l-28 8q-98 -39 -98 -146q0 -60 35 -95t88 -35z" />
    <glyph glyph-name="epsilon" unicode="&#x3b5;" horiz-adv-x="474" 
d="M238 -10q-93 0 -151 42.5t-58 106.5q0 72 70 111q-62 35 -62 103q0 64 57.5 105.5t148.5 41.5q84 0 141 -37.5t72 -102.5l-118 -30q-8 28 -31.5 44t-58.5 16q-32 0 -53 -12.5t-21 -34.5q0 -20 20.5 -32.5t58.5 -12.5h58v-94h-58q-41 0 -64 -14t-23 -37q0 -24 22 -38.5
t56 -14.5q37 0 61.5 18t32.5 48l118 -30q-15 -67 -73 -106.5t-145 -39.5z" />
    <glyph glyph-name="zeta" unicode="&#x3b6;" horiz-adv-x="454" 
d="M330 -199l-74 76q66 36 66 85q0 46 -58 83q-13 8 -52 29q-37 20 -58.5 35t-49.5 41.5t-41.5 63t-13.5 82.5q0 156 174 278l-216 -1v127h447v-113q-263 -99 -263 -264q0 -53 22.5 -85.5t64.5 -58.5q17 -11 49 -28.5t51.5 -30t41 -32t32 -45t10.5 -58.5q0 -108 -132 -184z
" />
    <glyph glyph-name="eta" unicode="&#x3b7;" horiz-adv-x="594" 
d="M352 500q84 0 136.5 -48.5t52.5 -136.5v-461h-137v421q0 51 -25.5 76t-68.5 25q-44 0 -70 -28.5t-26 -80.5v-267h-137v355q0 27 -26 27q-9 0 -21 -4v115q21 7 51 7q98 0 124 -68q49 68 147 68z" />
    <glyph glyph-name="theta" unicode="&#x3b8;" horiz-adv-x="650" 
d="M325 710q132 0 211.5 -96.5t79.5 -263.5t-79.5 -263.5t-211.5 -96.5t-211.5 96.5t-79.5 263.5t79.5 263.5t211.5 96.5zM325 583q-59 0 -97.5 -46.5t-48.5 -131.5h292q-10 85 -48.5 131.5t-97.5 46.5zM325 119q59 0 97.5 46.5t48.5 130.5h-292q10 -84 48.5 -130.5
t97.5 -46.5z" />
    <glyph glyph-name="iota" unicode="&#x3b9;" horiz-adv-x="255" 
d="M177 -10q-55 0 -93.5 30t-38.5 105v365h137v-355q0 -27 25 -27q4 0 22 4v-115q-21 -7 -52 -7z" />
    <glyph glyph-name="kappa" unicode="&#x3ba;" horiz-adv-x="554" 
d="M57 0v490h137v-185l76 75l20 20l20 20t17.5 17t18.5 16t18 13t19 12.5t19 9t22.5 7.5t23.5 3.5t27 1.5q33 0 57 -7v-117q-24 6 -52 6q-47 0 -93 -46l-33 -31l199 -305h-154l-140 198l-65 -69v-129h-137z" />
    <glyph glyph-name="lambda" unicode="&#x3bb;" horiz-adv-x="593" 
d="M564 101q6 0 22 2v-110q-21 -3 -41 -3q-44 0 -78 14.5t-55.5 41t-32 46t-20.5 46.5l-78 204l-130 -342h-145l207 500l-10 24q-7 17 -13 28t-16 23t-24.5 18t-33.5 6q-7 0 -25 -2v110q21 3 42 3q74 0 116.5 -38.5t72.5 -111.5l159 -380l4 -10q4 -11 5 -13t5.5 -11.5t7 -12
t8 -9.5t10.5 -10t11.5 -6.5t14.5 -5t17 -1.5z" />
    <glyph glyph-name="uni03BC" unicode="&#x3bc;" horiz-adv-x="590" 
d="M543 108q4 0 22 4v-115q-23 -7 -52 -7q-97 0 -123 68q-48 -68 -141 -68q-41 0 -59 20v-156h-137v636h137v-275q0 -50 25.5 -75.5t69.5 -25.5t69.5 28.5t25.5 80.5v267h137v-355q0 -27 26 -27z" />
    <glyph glyph-name="nu" unicode="&#x3bd;" horiz-adv-x="568" 
d="M414 490h141q0 -207 -202 -490h-146l-201 490h143l138 -360q127 195 127 360z" />
    <glyph glyph-name="xi" unicode="&#x3be;" horiz-adv-x="545" 
d="M334 -197l-75 76q73 35 73 85q0 33 -23.5 50t-70.5 33q-87 30 -114 47q-67 42 -67 117q0 57 33.5 99.5t89.5 55.5q-48 14 -76 55.5t-28 95.5q0 87 68.5 140t177.5 53q92 0 154.5 -42t82.5 -125l-124 -34q-8 37 -37.5 58.5t-74.5 21.5q-47 0 -76 -23.5t-29 -63.5t27.5 -63
t74.5 -23h79v-114h-91q-109 0 -109 -75q0 -32 26 -49.5t79 -33.5q85 -27 116 -50q52 -39 52 -107q0 -105 -138 -184z" />
    <glyph glyph-name="omicron" unicode="&#x3bf;" horiz-adv-x="585" 
d="M293 -10q-113 0 -188.5 70.5t-75.5 182.5q0 115 75 186t189 71q113 0 188 -71.5t75 -185.5q0 -112 -75 -182.5t-188 -70.5zM293 113q53 0 88 35.5t35 95.5q0 62 -35 98t-88 36t-88 -36t-35 -98q0 -60 35 -95.5t88 -35.5z" />
    <glyph glyph-name="pi" unicode="&#x3c0;" horiz-adv-x="661" 
d="M105 0v370h-91v120h633v-120h-91v-370h-138v370h-175v-370h-138z" />
    <glyph glyph-name="rho" unicode="&#x3c1;" horiz-adv-x="601" 
d="M44 -146v389q0 114 75.5 185.5t187.5 71.5q113 0 188.5 -71.5t75.5 -185.5q0 -112 -75.5 -182.5t-188.5 -70.5q-77 0 -126 43v-179h-137zM307 113q53 0 88 35t35 95q0 62 -35 98.5t-88 36.5t-87.5 -36.5t-34.5 -98.5q0 -60 34.5 -95t87.5 -35z" />
    <glyph glyph-name="uni03C2" unicode="&#x3c2;" horiz-adv-x="532" 
d="M330 -199l-74 76q66 36 66 83q0 8 -1.5 15.5t-6 14t-8.5 11.5t-12.5 11t-13.5 9.5t-17 9t-18 8.5t-21 9.5t-21 9.5q-30 14 -48 23.5t-45 28.5t-42.5 38t-27 49.5t-11.5 65.5q0 104 70.5 170.5t179.5 66.5q86 0 152.5 -42.5t82.5 -119.5l-120 -37q-7 35 -40 55.5t-76 20.5
q-49 0 -78.5 -28t-29.5 -74q0 -25 7 -43.5t25 -32t30.5 -20.5t40.5 -19q36 -16 52.5 -23.5t48 -26t47 -34t28.5 -40t13 -51.5q0 -107 -132 -184z" />
    <glyph glyph-name="sigma" unicode="&#x3c3;" horiz-adv-x="630" 
d="M292 -10q-113 0 -188 71t-75 181q0 109 75.5 178.5t188.5 69.5h308v-120h-93q48 -56 48 -132q0 -107 -75.5 -177.5t-188.5 -70.5zM293 112q52 0 87.5 35.5t35.5 93.5q0 59 -35 92.5t-88 33.5t-88 -34.5t-35 -91.5q0 -58 35 -93.5t88 -35.5z" />
    <glyph glyph-name="tau" unicode="&#x3c4;" horiz-adv-x="477" 
d="M361 -10q-83 0 -138 45t-55 140v196h-154v119h446v-119h-155v-190q0 -76 82 -76q33 0 62 12l18 -109q-47 -18 -106 -18z" />
    <glyph glyph-name="upsilon" unicode="&#x3c5;" horiz-adv-x="574" 
d="M287 -10q-102 0 -168 56t-66 150v294h138v-280q0 -46 26 -71t70 -25q43 0 70 27t27 79q0 45 -13.5 123.5t-34.5 146.5h137q48 -192 48 -285q0 -105 -64.5 -160t-169.5 -55z" />
    <glyph glyph-name="phi" unicode="&#x3c6;" horiz-adv-x="737" 
d="M302 -145v137q-101 10 -180.5 91.5t-79.5 197.5q0 117 74 209h134q-71 -106 -71 -211q0 -66 34 -110.5t89 -52.5v204q0 86 50 133t135 47q99 0 160 -60t61 -161q0 -115 -78 -196.5t-187 -90.5v-138zM443 115q57 9 92.5 55t35.5 112q0 44 -20 71.5t-54 27.5q-26 0 -40 -18
t-14 -49v-199z" />
    <glyph glyph-name="chi" unicode="&#x3c7;" horiz-adv-x="562" 
d="M501 -156q-21 0 -40.5 5t-33.5 11t-29 18.5t-23.5 21t-20.5 25.5t-16 23.5t-14 24t-11 19.5l-35 63l-123 -201h-144l197 324l-78 136q-27 48 -43 60q-19 15 -46 15q-15 0 -23 -1v109q21 3 41 3q17 0 33.5 -3t29 -7t26 -12t22 -14t19.5 -18l16.5 -18t15.5 -20.5t13 -19.5
t12 -20.5t10 -17.5l28 -49l115 189h145l-191 -312l82 -144q1 -2 8 -14t9.5 -15.5t9 -14t11.5 -14.5t13 -10t16 -8.5t17 -2.5q5 0 21 2v-109q-30 -4 -39 -4z" />
    <glyph glyph-name="psi" unicode="&#x3c8;" horiz-adv-x="767" 
d="M315 -146v141q-121 20 -191.5 101.5t-70.5 204.5v189h137v-189q0 -65 33 -112t92 -64v365h137v-364q58 17 91 63.5t33 111.5v189h137v-189q0 -122 -70.5 -204t-190.5 -102v-141h-137z" />
    <glyph glyph-name="omega" unicode="&#x3c9;" horiz-adv-x="850" 
d="M264 -10q-94 0 -155.5 56t-61.5 162q0 102 48 282h137q-21 -67 -34.5 -145t-13.5 -122q0 -55 23 -82t63 -27q39 0 62.5 25t23.5 71v180h138v-180q0 -46 23.5 -71t62.5 -25q40 0 63 27t23 82q0 43 -13.5 121.5t-33.5 145.5h137q47 -176 47 -282t-61 -162t-156 -56
q-105 0 -161 80q-56 -80 -161 -80z" />
    <glyph glyph-name="iotadieresis" unicode="&#x3ca;" horiz-adv-x="255" 
d="M5 568q-34 0 -58.5 24.5t-24.5 59.5q0 34 24.5 58.5t58.5 24.5q35 0 59 -24.5t24 -58.5q0 -35 -24 -59.5t-59 -24.5zM222 568q-34 0 -58.5 24.5t-24.5 59.5q0 34 24.5 58.5t58.5 24.5q35 0 59 -24.5t24 -58.5q0 -35 -24 -59.5t-59 -24.5zM177 -10q-55 0 -93.5 30
t-38.5 105v365h137v-355q0 -27 25 -27q4 0 22 4v-115q-21 -7 -52 -7z" />
    <glyph glyph-name="upsilondieresis" unicode="&#x3cb;" horiz-adv-x="574" 
d="M158 568q-34 0 -58.5 24.5t-24.5 59.5q0 34 24.5 58.5t58.5 24.5q35 0 59 -24.5t24 -58.5q0 -35 -24 -59.5t-59 -24.5zM375 568q-34 0 -58.5 24.5t-24.5 59.5q0 34 24.5 58.5t58.5 24.5q35 0 59 -24.5t24 -58.5q0 -35 -24 -59.5t-59 -24.5zM287 -10q-102 0 -168 56
t-66 150v294h138v-280q0 -46 26 -71t70 -25q43 0 70 27t27 79q0 45 -13.5 123.5t-34.5 146.5h137q48 -192 48 -285q0 -105 -64.5 -160t-169.5 -55z" />
    <glyph glyph-name="omicrontonos" unicode="&#x3cc;" horiz-adv-x="585" 
d="M246 564l62 160h128l-89 -160h-101zM293 -10q-113 0 -188.5 70.5t-75.5 182.5q0 115 75 186t189 71q113 0 188 -71.5t75 -185.5q0 -112 -75 -182.5t-188 -70.5zM293 113q53 0 88 35.5t35 95.5q0 62 -35 98t-88 36t-88 -36t-35 -98q0 -60 35 -95.5t88 -35.5z" />
    <glyph glyph-name="upsilontonos" unicode="&#x3cd;" horiz-adv-x="574" 
d="M220 564l62 160h128l-89 -160h-101zM287 -10q-102 0 -168 56t-66 150v294h138v-280q0 -46 26 -71t70 -25q43 0 70 27t27 79q0 45 -13.5 123.5t-34.5 146.5h137q48 -192 48 -285q0 -105 -64.5 -160t-169.5 -55z" />
    <glyph glyph-name="omegatonos" unicode="&#x3ce;" horiz-adv-x="850" 
d="M378 564l62 160h128l-89 -160h-101zM264 -10q-94 0 -155.5 56t-61.5 162q0 102 48 282h137q-21 -67 -34.5 -145t-13.5 -122q0 -55 23 -82t63 -27q39 0 62.5 25t23.5 71v180h138v-180q0 -46 23.5 -71t62.5 -25q40 0 63 27t23 82q0 43 -13.5 121.5t-33.5 145.5h137
q47 -176 47 -282t-61 -162t-156 -56q-105 0 -161 80q-56 -80 -161 -80z" />
    <glyph glyph-name="uni0400" unicode="&#x400;" horiz-adv-x="598" 
d="M353 774h-101l-96 160h129zM65 0v700h475v-127h-334v-159h317v-126h-317v-161h341v-127h-482z" />
    <glyph glyph-name="uni0401" unicode="&#x401;" horiz-adv-x="598" 
d="M190 778q-34 0 -58.5 24.5t-24.5 59.5q0 34 24.5 58.5t58.5 24.5q35 0 59 -24.5t24 -58.5q0 -35 -24 -59.5t-59 -24.5zM407 778q-34 0 -58.5 24.5t-24.5 59.5q0 34 24.5 58.5t58.5 24.5q35 0 59 -24.5t24 -58.5q0 -35 -24 -59.5t-59 -24.5zM65 0v700h475v-127h-334v-159
h317v-126h-317v-161h341v-127h-482z" />
    <glyph glyph-name="uni040D" unicode="&#x40d;" horiz-adv-x="732" 
d="M420 774h-101l-96 160h129zM538 700h129v-700h-141v452l-331 -452h-129v700h141v-452z" />
    <glyph glyph-name="uni0410" unicode="&#x410;" horiz-adv-x="730" 
d="M444 700l281 -700h-149l-60 156h-302l-60 -156h-149l281 700h158zM262 283h205l-102 263z" />
    <glyph glyph-name="uni0411" unicode="&#x411;" horiz-adv-x="632" 
d="M65 0v700h486v-127h-345v-115h141q113 0 182 -63t69 -166q0 -104 -69 -166.5t-182 -62.5h-282zM206 127h138q53 0 81.5 28t28.5 74t-28.5 74t-81.5 28h-138v-204z" />
    <glyph glyph-name="uni0412" unicode="&#x412;" horiz-adv-x="647" 
d="M65 0v700h307q105 0 163.5 -51t58.5 -139q0 -90 -85 -136q103 -52 103 -165q0 -99 -61.5 -154t-178.5 -55h-307zM206 425h152q43 0 66.5 20.5t23.5 57.5q0 78 -90 78h-152v-156zM206 118h155q51 0 78.5 26t27.5 70q0 43 -28 68t-78 25h-155v-189z" />
    <glyph glyph-name="uni0413" unicode="&#x413;" horiz-adv-x="515" 
d="M65 0v700h436v-127h-295v-573h-141z" />
    <glyph glyph-name="uni0414" unicode="&#x414;" horiz-adv-x="785" 
d="M14 -141v268h58q88 0 96 110l40 463h480v-573h83v-268h-140v141h-477v-141h-140zM276 127h271v446h-209l-31 -351q-6 -61 -31 -95z" />
    <glyph glyph-name="uni0415" unicode="&#x415;" horiz-adv-x="598" 
d="M65 0v700h475v-127h-334v-159h317v-126h-317v-161h341v-127h-482z" />
    <glyph glyph-name="uni0416" unicode="&#x416;" horiz-adv-x="995" 
d="M-5 0l228 358l-217 342h168l176 -289h77v289h141v-289h77l176 289h169l-217 -342l227 -358h-176l-179 284h-77v-284h-141v284h-77l-180 -284h-175z" />
    <glyph glyph-name="uni0417" unicode="&#x417;" horiz-adv-x="601" 
d="M270 -10q-96 0 -161.5 45.5t-80.5 129.5l120 36q7 -43 38 -65.5t78 -22.5q50 0 84 24.5t34 71.5t-34.5 71.5t-89.5 24.5h-67v109h67q50 0 82 21.5t32 62.5q0 43 -33 66t-80 23q-43 0 -73.5 -23.5t-37.5 -64.5l-120 36q17 84 81.5 129.5t158.5 45.5q110 0 177 -58t67 -151
q0 -96 -84 -144q94 -51 94 -155q0 -95 -70.5 -153.5t-181.5 -58.5z" />
    <glyph glyph-name="uni0418" unicode="&#x418;" horiz-adv-x="732" 
d="M538 700h129v-700h-141v452l-331 -452h-129v700h141v-452z" />
    <glyph glyph-name="uni0419" unicode="&#x419;" horiz-adv-x="732" 
d="M366 760q-73 0 -117.5 44t-44.5 115h98q0 -33 17.5 -53.5t46.5 -20.5t47 20.5t18 53.5h98q0 -71 -45 -115t-118 -44zM538 700h129v-700h-141v452l-331 -452h-129v700h141v-452z" />
    <glyph glyph-name="uni041A" unicode="&#x41a;" horiz-adv-x="634" 
d="M65 0v700h141v-289h77l177 289h167l-216 -342l228 -358h-176l-180 284h-77v-284h-141z" />
    <glyph glyph-name="uni041B" unicode="&#x41b;" horiz-adv-x="714" 
d="M13 -10v135h29q79 0 87 98l40 477h480v-700h-141v573h-209l-30 -350q-19 -233 -227 -233h-29z" />
    <glyph glyph-name="uni041C" unicode="&#x41c;" horiz-adv-x="892" 
d="M652 700h174v-700h-141v433l-178 -433h-122l-179 435v-435h-141v700h174l207 -493z" />
    <glyph glyph-name="uni041D" unicode="&#x41d;" horiz-adv-x="707" 
d="M65 0v700h141v-287h295v287h141v-700h-141v287h-295v-287h-141z" />
    <glyph glyph-name="uni041E" unicode="&#x41e;" horiz-adv-x="789" 
d="M394 -10q-156 0 -257.5 100.5t-101.5 260.5t101.5 259.5t257.5 99.5t258 -99.5t102 -259.5t-102 -260.5t-258 -100.5zM394 125q94 0 153.5 62t59.5 163t-59.5 163t-153.5 62t-153 -62t-59 -163t59 -163t153 -62z" />
    <glyph glyph-name="uni041F" unicode="&#x41f;" horiz-adv-x="707" 
d="M65 0v700h577v-700h-141v573h-295v-573h-141z" />
    <glyph glyph-name="uni0420" unicode="&#x420;" horiz-adv-x="628" 
d="M65 0v700h275q123 0 190.5 -63.5t67.5 -172.5q0 -108 -67.5 -172t-190.5 -64h-134v-228h-141zM206 355h138q52 0 81 29t29 80t-29 80t-81 29h-138v-218z" />
    <glyph glyph-name="uni0421" unicode="&#x421;" horiz-adv-x="741" 
d="M388 -10q-153 0 -253 100.5t-100 260.5t100 259.5t253 99.5q117 0 206.5 -57.5t115.5 -162.5l-137 -41q-14 56 -64.5 91t-120.5 35q-90 0 -148 -62.5t-58 -162.5t58 -162.5t148 -62.5q71 0 121.5 35t64.5 91l136 -41q-26 -105 -115.5 -162.5t-206.5 -57.5z" />
    <glyph glyph-name="uni0422" unicode="&#x422;" horiz-adv-x="573" 
d="M216 0v573h-205v127h551v-127h-205v-573h-141z" />
    <glyph glyph-name="uni0423" unicode="&#x423;" horiz-adv-x="700" 
d="M174 -10q-41 0 -87 13l14 130q37 -11 64 -11q25 0 46.5 14.5t31.5 29t22 37.5l15 31l-275 466h149l196 -340l196 340h149l-318 -559q-41 -71 -86 -111t-117 -40z" />
    <glyph glyph-name="uni0424" unicode="&#x424;" horiz-adv-x="828" 
d="M351 -40v86q-142 15 -229.5 98t-87.5 207q0 123 87.5 205.5t229.5 97.5v86h127v-86q142 -15 229 -97.5t87 -205.5q0 -124 -87 -207t-229 -98v-86h-127zM351 183v334q-78 -12 -123.5 -56.5t-45.5 -110.5t45.5 -110.5t123.5 -56.5zM478 183q78 13 123.5 57.5t45.5 109.5
q0 66 -45.5 110.5t-123.5 55.5v-333z" />
    <glyph glyph-name="uni0425" unicode="&#x425;" horiz-adv-x="697" 
d="M686 700l-252 -363l238 -337h-158l-171 242l-173 -242h-158l253 354l-245 346h158l176 -249l174 249h158z" />
    <glyph glyph-name="uni0426" unicode="&#x426;" horiz-adv-x="757" 
d="M596 -137v137h-531v700h141v-573h295v573h141v-573h95v-264h-141z" />
    <glyph glyph-name="uni0427" unicode="&#x427;" horiz-adv-x="654" 
d="M449 700h141v-700h-141v274q-64 -88 -180 -88q-96 0 -161.5 62.5t-65.5 172.5v279h141v-254q0 -60 36.5 -93t91.5 -33q58 0 98 38.5t40 104.5v237z" />
    <glyph glyph-name="uni0428" unicode="&#x428;" horiz-adv-x="1144" 
d="M65 0v700h141v-573h295v573h141v-573h296v573h140v-700h-1013z" />
    <glyph glyph-name="uni0429" unicode="&#x429;" horiz-adv-x="1192" 
d="M1031 -137v137h-966v700h141v-573h295v573h141v-573h296v573h140v-573h94v-264h-141z" />
    <glyph glyph-name="uni042A" unicode="&#x42a;" horiz-adv-x="657" 
d="M92 0v573h-112v127h253v-242h141q113 0 182 -63t69 -166q0 -104 -69 -166.5t-182 -62.5h-282zM233 127h138q53 0 81.5 28t28.5 74t-28.5 74t-81.5 28h-138v-204z" />
    <glyph glyph-name="uni042B" unicode="&#x42b;" horiz-adv-x="903" 
d="M65 700h141v-242h141q113 0 182 -63t69 -166q0 -104 -69 -166.5t-182 -62.5h-282v700zM696 0v700h141v-700h-141zM206 331v-204h138q53 0 81.5 28t28.5 74t-28.5 74t-81.5 28h-138z" />
    <glyph glyph-name="uni042C" unicode="&#x42c;" horiz-adv-x="630" 
d="M65 700h141v-242h141q113 0 182 -63t69 -166q0 -104 -69 -166.5t-182 -62.5h-282v700zM206 331v-204h138q53 0 81.5 28t28.5 74t-28.5 74t-81.5 28h-138z" />
    <glyph glyph-name="uni042D" unicode="&#x42d;" horiz-adv-x="761" 
d="M372 -10q-124 0 -213.5 60.5t-124.5 176.5h164q53 -102 174 -102q80 0 136 46t71 123h-331v116h330q-16 76 -71.5 120.5t-134.5 44.5q-122 0 -174 -102h-164q35 116 124.5 176.5t213.5 60.5q157 0 259 -99.5t102 -259.5t-102.5 -260.5t-258.5 -100.5z" />
    <glyph glyph-name="uni042E" unicode="&#x42e;" horiz-adv-x="1071" 
d="M676 -10q-141 0 -239 83t-116 220h-123v-293h-141v700h141v-283h124q21 134 118 213.5t236 79.5q156 0 258 -99.5t102 -259.5t-102 -260.5t-258 -100.5zM676 125q94 0 153 62t59 163t-59 163t-153 62t-153 -62t-59 -163t59 -163t153 -62z" />
    <glyph glyph-name="uni042F" unicode="&#x42f;" horiz-adv-x="639" 
d="M574 0h-141v248h-99l-152 -248h-149l164 264q-74 23 -115 78.5t-41 131.5q0 103 66.5 164.5t191.5 61.5h275v-700zM433 375v198h-142q-51 0 -78.5 -27.5t-27.5 -71.5t27.5 -71.5t78.5 -27.5h142z" />
    <glyph glyph-name="uni0430" unicode="&#x430;" horiz-adv-x="545" 
d="M502 108q4 0 22 4v-115q-23 -7 -52 -7q-90 0 -120 57q-52 -57 -151 -57q-76 0 -124 39t-48 109q0 65 44 103.5t116 45.5l150 15v10q0 37 -24 58t-61 21q-66 0 -82 -62l-121 19q13 79 71.5 115.5t140.5 36.5q99 0 156 -48t57 -137v-180q0 -27 26 -27zM339 195v16l-113 -14
q-30 -3 -46.5 -17.5t-16.5 -36.5q0 -26 22 -39t57 -12q43 2 70 29t27 74z" />
    <glyph glyph-name="uni0431" unicode="&#x431;" horiz-adv-x="565" 
d="M279 -10q-111 0 -180.5 69.5t-69.5 195.5q0 94 35 183t113.5 162t186.5 98l128 31v-120l-93 -24q-87 -22 -143.5 -66.5t-88.5 -122.5q55 67 156 67q94 0 153.5 -63.5t59.5 -166.5q0 -111 -71.5 -177t-185.5 -66zM283 113q48 0 80.5 31.5t32.5 82.5t-32.5 82.5t-81.5 31.5
t-80.5 -32t-31.5 -83t32 -82t81 -31z" />
    <glyph glyph-name="uni0432" unicode="&#x432;" horiz-adv-x="547" 
d="M57 0v490h272q79 0 119 -34.5t40 -96.5q0 -70 -58 -96q75 -27 75 -115q0 -148 -176 -148h-272zM187 307h124q48 0 48 44q0 41 -48 41h-124v-85zM187 98h124q64 0 64 56q0 54 -64 54h-124v-110z" />
    <glyph glyph-name="uni0433" unicode="&#x433;" horiz-adv-x="427" 
d="M57 0v490h361v-120h-224v-370h-137z" />
    <glyph glyph-name="uni0434" unicode="&#x434;" horiz-adv-x="642" 
d="M13 -146v266h55q27 0 45 16t20 46l28 308h406v-370h61v-266h-137v146h-341v-146h-137zM255 120h175v250h-144l-16 -193q-4 -39 -15 -57z" />
    <glyph glyph-name="uni0435" unicode="&#x435;" horiz-adv-x="556" 
d="M286 -10q-111 0 -184 70.5t-73 184.5q0 113 72.5 184t181.5 71q106 0 175 -67t69 -176q0 -14 -3 -44h-357q7 -55 39.5 -85t79.5 -30q38 0 66 19t35 54l120 -33q-19 -73 -79.5 -110.5t-141.5 -37.5zM172 305h223q-6 36 -36 60.5t-75 24.5q-86 0 -112 -85z" />
    <glyph glyph-name="uni0436" unicode="&#x436;" horiz-adv-x="817" 
d="M0 0l151 253l-128 237h140l98 -184h78v184h139v-184h79l98 184h140l-129 -237l151 -253h-152l-108 186h-79v-186h-139v186h-78l-109 -186h-152z" />
    <glyph glyph-name="uni0437" unicode="&#x437;" horiz-adv-x="474" 
d="M236 -10q-87 0 -145 39.5t-73 106.5l118 30q8 -30 32.5 -48t61.5 -18q34 0 56 14.5t22 38.5q0 23 -23 37t-64 14h-58v94h58q38 0 58.5 12.5t20.5 32.5q0 22 -21 34.5t-53 12.5q-35 0 -58.5 -16t-31.5 -44l-118 30q15 65 72 102.5t141 37.5q91 0 148.5 -41.5t57.5 -105.5
q0 -68 -62 -103q70 -39 70 -111q0 -64 -58 -106.5t-151 -42.5z" />
    <glyph glyph-name="uni0438" unicode="&#x438;" horiz-adv-x="596" 
d="M57 0v490h137v-274l227 274h118v-490h-137v273l-227 -273h-118z" />
    <glyph glyph-name="uni0439" unicode="&#x439;" horiz-adv-x="596" 
d="M298 550q-73 0 -117.5 44t-44.5 115h98q0 -33 17.5 -53.5t46.5 -20.5t47 20.5t18 53.5h98q0 -71 -45 -115t-118 -44zM57 0v490h137v-274l227 274h118v-490h-137v273l-227 -273h-118z" />
    <glyph glyph-name="uni043A" unicode="&#x43a;" horiz-adv-x="536" 
d="M57 0v490h137v-184h78l101 184h140l-129 -237l151 -253h-152l-111 186h-78v-186h-137z" />
    <glyph glyph-name="uni043B" unicode="&#x43b;" horiz-adv-x="616" 
d="M3 -10v119h30q71 0 76 82l23 299h427v-490h-137v370h-161l-15 -183q-8 -95 -62.5 -146t-150.5 -51h-30z" />
    <glyph glyph-name="uni043C" unicode="&#x43c;" horiz-adv-x="715" 
d="M524 490h133v-490h-133v247l-123 -247h-87l-124 249v-249h-133v490h134l167 -323z" />
    <glyph glyph-name="uni043D" unicode="&#x43d;" horiz-adv-x="588" 
d="M57 0v490h137v-188h199v188h137v-490h-137v182h-199v-182h-137z" />
    <glyph glyph-name="uni043E" unicode="&#x43e;" horiz-adv-x="585" 
d="M293 -10q-113 0 -188.5 70.5t-75.5 182.5q0 115 75 186t189 71q113 0 188 -71.5t75 -185.5q0 -112 -75 -182.5t-188 -70.5zM293 113q53 0 88 35.5t35 95.5q0 62 -35 98t-88 36t-88 -36t-35 -98q0 -60 35 -95.5t88 -35.5z" />
    <glyph glyph-name="uni043F" unicode="&#x43f;" horiz-adv-x="588" 
d="M57 0v490h473v-490h-137v370h-199v-370h-137z" />
    <glyph glyph-name="uni0440" unicode="&#x440;" horiz-adv-x="616" 
d="M346 500q102 0 171.5 -71.5t69.5 -183.5q0 -111 -69 -183t-171 -72q-98 0 -153 63v-253h-137v690h137v-52q56 62 152 62zM319 109q54 0 90 37.5t36 98.5q0 62 -36 99t-90 37t-89.5 -37.5t-35.5 -98.5t35.5 -98.5t89.5 -37.5z" />
    <glyph glyph-name="uni0441" unicode="&#x441;" horiz-adv-x="532" 
d="M283 -10q-109 0 -181.5 70.5t-72.5 183.5q0 112 72 184t182 72q85 0 149.5 -42t81.5 -119l-120 -37q-7 35 -36 55.5t-68 20.5q-52 0 -86 -36.5t-34 -96.5t34 -96t86 -36q39 0 68 20t36 55l120 -36q-17 -78 -81.5 -120t-149.5 -42z" />
    <glyph glyph-name="uni0442" unicode="&#x442;" horiz-adv-x="466" 
d="M165 0v370h-153v120h442v-120h-152v-370h-137z" />
    <glyph glyph-name="uni0443" unicode="&#x443;" horiz-adv-x="561" 
d="M414 490h145l-298 -690h-129l89 200l-218 490h145l134 -328z" />
    <glyph glyph-name="uni0444" unicode="&#x444;" horiz-adv-x="668" 
d="M280 -200v192q-115 14 -183 81.5t-68 169.5q0 104 68 172t183 82v203h108v-204q114 -14 182.5 -82t68.5 -171q0 -100 -69 -168t-182 -82v-193h-108zM280 119v252q-51 -12 -80.5 -44.5t-29.5 -83.5q0 -48 29.5 -80.5t80.5 -43.5zM388 119q51 12 81 44t30 80q0 49 -30 82.5
t-81 45.5v-252z" />
    <glyph glyph-name="uni0445" unicode="&#x445;" horiz-adv-x="539" 
d="M530 0h-151l-109 159l-110 -159h-151l174 246l-170 244h151l107 -160l107 160h150l-171 -245z" />
    <glyph glyph-name="uni0446" unicode="&#x446;" horiz-adv-x="638" 
d="M488 -137v137h-431v490h137v-370h199v370h137v-370h95v-257h-137z" />
    <glyph glyph-name="uni0447" unicode="&#x447;" horiz-adv-x="560" 
d="M365 490h137v-490h-137v179q-50 -56 -137 -56q-85 0 -137.5 48.5t-52.5 137.5v181h137v-142q0 -50 26 -75t70 -25q43 0 68.5 28t25.5 80v134z" />
    <glyph glyph-name="uni0448" unicode="&#x448;" horiz-adv-x="924" 
d="M57 0v490h137v-370h199v370h137v-370h200v370h137v-490h-810z" />
    <glyph glyph-name="uni0449" unicode="&#x449;" horiz-adv-x="975" 
d="M824 -137v137h-767v490h137v-370h199v370h137v-370h200v370h137v-370h94v-257h-137z" />
    <glyph glyph-name="uni044A" unicode="&#x44a;" horiz-adv-x="579" 
d="M81 0v384h-93v106h230v-122h108q102 0 158 -51t56 -136q0 -83 -56 -132t-158 -49h-245zM218 112h105q32 0 53 20t21 52t-21 52t-53 20h-105v-144z" />
    <glyph glyph-name="uni044B" unicode="&#x44b;" horiz-adv-x="754" 
d="M57 0v490h137v-122h108q102 0 157.5 -51t55.5 -136q0 -83 -55.5 -132t-157.5 -49h-245zM572 0v490h137v-490h-137zM194 112h105q32 0 53 20t21 52t-21 52t-53 20h-105v-144z" />
    <glyph glyph-name="uni044C" unicode="&#x44c;" horiz-adv-x="541" 
d="M57 0v490h137v-122h108q102 0 157.5 -51t55.5 -136q0 -83 -55.5 -132t-157.5 -49h-245zM194 112h105q32 0 53 20t21 52t-21 52t-53 20h-105v-144z" />
    <glyph glyph-name="uni044D" unicode="&#x44d;" horiz-adv-x="573" 
d="M280 -10q-91 0 -159 46.5t-92 126.5h152q34 -58 102 -58q40 0 70.5 24t42.5 65l-208 2v99h208q-13 42 -43 65.5t-70 23.5q-68 0 -102 -58h-152q24 80 92 127t159 47q112 0 188 -71.5t76 -185.5q0 -112 -76 -182.5t-188 -70.5z" />
    <glyph glyph-name="uni044E" unicode="&#x44e;" horiz-adv-x="812" 
d="M520 -10q-95 0 -165.5 51.5t-91.5 137.5h-69v-179h-137v490h137v-202h66q14 96 86.5 154t173.5 58q113 0 188 -71.5t75 -185.5q0 -112 -75 -182.5t-188 -70.5zM520 113q53 0 87.5 35.5t34.5 95.5q0 62 -34.5 98t-87.5 36t-88 -36t-35 -98q0 -60 35 -95.5t88 -35.5z" />
    <glyph glyph-name="uni044F" unicode="&#x44f;" horiz-adv-x="529" 
d="M19 0l101 167q-44 20 -68.5 60.5t-24.5 92.5q0 81 49.5 125.5t133.5 44.5h262v-490h-133v146h-86l-86 -146h-148zM229 254h110v128h-110q-31 0 -50.5 -17.5t-19.5 -45.5q0 -29 19.5 -47t50.5 -18z" />
    <glyph glyph-name="uni0450" unicode="&#x450;" horiz-adv-x="556" 
d="M332 564h-101l-96 160h129zM286 -10q-111 0 -184 70.5t-73 184.5q0 113 72.5 184t181.5 71q106 0 175 -67t69 -176q0 -14 -3 -44h-357q7 -55 39.5 -85t79.5 -30q38 0 66 19t35 54l120 -33q-19 -73 -79.5 -110.5t-141.5 -37.5zM172 305h223q-6 36 -36 60.5t-75 24.5
q-86 0 -112 -85z" />
    <glyph glyph-name="uni0451" unicode="&#x451;" horiz-adv-x="556" 
d="M169 568q-34 0 -58.5 24.5t-24.5 59.5q0 34 24.5 58.5t58.5 24.5q35 0 59 -24.5t24 -58.5q0 -35 -24 -59.5t-59 -24.5zM386 568q-34 0 -58.5 24.5t-24.5 59.5q0 34 24.5 58.5t58.5 24.5q35 0 59 -24.5t24 -58.5q0 -35 -24 -59.5t-59 -24.5zM286 -10q-111 0 -184 70.5
t-73 184.5q0 113 72.5 184t181.5 71q106 0 175 -67t69 -176q0 -14 -3 -44h-357q7 -55 39.5 -85t79.5 -30q38 0 66 19t35 54l120 -33q-19 -73 -79.5 -110.5t-141.5 -37.5zM172 305h223q-6 36 -36 60.5t-75 24.5q-86 0 -112 -85z" />
    <glyph glyph-name="uni045D" unicode="&#x45d;" horiz-adv-x="596" 
d="M352 564h-101l-96 160h129zM57 0v490h137v-274l227 274h118v-490h-137v273l-227 -273h-118z" />
    <glyph glyph-name="Wgrave" unicode="&#x1e80;" horiz-adv-x="1084" 
d="M596 774h-101l-96 160h129zM918 700h154l-207 -700h-163l-161 499l-161 -499h-162l-207 700h154l140 -513l161 513h151l161 -513z" />
    <glyph glyph-name="wgrave" unicode="&#x1e81;" horiz-adv-x="855" 
d="M482 564h-101l-96 160h129zM701 490h144l-158 -490h-153l-106 324l-106 -324h-154l-157 490h143l102 -343l107 343h129l108 -343z" />
    <glyph glyph-name="Wacute" unicode="&#x1e82;" horiz-adv-x="1084" 
d="M686 934l-96 -160h-101l68 160h129zM918 700h154l-207 -700h-163l-161 499l-161 -499h-162l-207 700h154l140 -513l161 513h151l161 -513z" />
    <glyph glyph-name="wacute" unicode="&#x1e83;" horiz-adv-x="855" 
d="M572 724l-96 -160h-101l68 160h129zM701 490h144l-158 -490h-153l-106 324l-106 -324h-154l-157 490h143l102 -343l107 343h129l108 -343z" />
    <glyph glyph-name="Wdieresis" unicode="&#x1e84;" horiz-adv-x="1084" 
d="M433 778q-34 0 -58.5 24.5t-24.5 59.5q0 34 24.5 58.5t58.5 24.5q35 0 59 -24.5t24 -58.5q0 -35 -24 -59.5t-59 -24.5zM650 778q-34 0 -58.5 24.5t-24.5 59.5q0 34 24.5 58.5t58.5 24.5q35 0 59 -24.5t24 -58.5q0 -35 -24 -59.5t-59 -24.5zM918 700h154l-207 -700h-163
l-161 499l-161 -499h-162l-207 700h154l140 -513l161 513h151l161 -513z" />
    <glyph glyph-name="wdieresis" unicode="&#x1e85;" horiz-adv-x="855" 
d="M319 568q-34 0 -58.5 24.5t-24.5 59.5q0 34 24.5 58.5t58.5 24.5q35 0 59 -24.5t24 -58.5q0 -35 -24 -59.5t-59 -24.5zM536 568q-34 0 -58.5 24.5t-24.5 59.5q0 34 24.5 58.5t58.5 24.5q35 0 59 -24.5t24 -58.5q0 -35 -24 -59.5t-59 -24.5zM701 490h144l-158 -490h-153
l-106 324l-106 -324h-154l-157 490h143l102 -343l107 343h129l108 -343z" />
    <glyph glyph-name="uni1E9E" unicode="&#x1e9e;" horiz-adv-x="636" 
d="M391 -10q-61 0 -107 18l18 116q28 -13 59 -13q41 0 69.5 26.5t28.5 72.5q0 89 -113 89h-44v120l126 160h-113q-52 0 -82 -31.5t-30 -84.5v-463h-141v463q0 108 68 172.5t185 64.5h285v-94l-167 -207q82 -20 125.5 -73t43.5 -129q0 -94 -59.5 -150.5t-151.5 -56.5z" />
    <glyph glyph-name="Ygrave" unicode="&#x1ef2;" horiz-adv-x="676" 
d="M392 774h-101l-96 160h129zM526 700h151l-268 -461v-239h-141v239l-268 461h150l188 -333z" />
    <glyph glyph-name="ygrave" unicode="&#x1ef3;" horiz-adv-x="561" 
d="M335 564h-101l-96 160h129zM414 490h145l-298 -690h-129l89 200l-218 490h145l134 -328z" />
    <glyph glyph-name="endash" unicode="&#x2013;" horiz-adv-x="615" 
d="M62 209v119h490v-119h-490z" />
    <glyph glyph-name="emdash" unicode="&#x2014;" horiz-adv-x="959" 
d="M62 209v119h834v-119h-834z" />
    <glyph glyph-name="quoteleft" unicode="&#x2018;" horiz-adv-x="295" 
d="M185 710l54 -54q-50 -38 -57 -74q23 -9 37 -30t14 -46q0 -34 -24.5 -58t-59.5 -24t-60 24t-25 65q0 89 121 197z" />
    <glyph glyph-name="quoteright" unicode="&#x2019;" horiz-adv-x="295" 
d="M118 424l-54 53q50 40 57 75q-23 9 -37 30t-14 46q0 34 24.5 58t59.5 24t60 -24.5t25 -64.5q0 -90 -121 -197z" />
    <glyph glyph-name="quotesinglbase" unicode="&#x201a;" horiz-adv-x="295" 
d="M118 -126l-54 54q50 40 57 74q-23 9 -37 30t-14 46q0 34 25 58.5t59 24.5q35 0 60 -24.5t25 -65.5q0 -89 -121 -197z" />
    <glyph glyph-name="quotedblleft" unicode="&#x201c;" horiz-adv-x="532" 
d="M185 710l54 -54q-50 -38 -57 -74q23 -9 37 -30t14 -46q0 -34 -24.5 -58t-59.5 -24t-60 24t-25 65q0 89 121 197zM422 710l54 -54q-50 -38 -58 -74q23 -9 37 -29.5t14 -46.5q0 -34 -24.5 -58t-58.5 -24q-35 0 -60 24t-25 65q0 89 121 197z" />
    <glyph glyph-name="quotedblright" unicode="&#x201d;" horiz-adv-x="526" 
d="M118 424l-54 53q50 40 57 75q-23 9 -37 30t-14 46q0 34 24.5 58t59.5 24t60 -24.5t25 -64.5q0 -90 -121 -197zM350 424l-55 53q51 41 58 75q-23 9 -37 30t-14 46q0 34 24.5 58t59.5 24t60 -24.5t25 -64.5q0 -89 -121 -197z" />
    <glyph glyph-name="quotedblbase" unicode="&#x201e;" horiz-adv-x="526" 
d="M118 -133l-54 54q50 38 57 74q-23 9 -37 30t-14 46q0 34 24.5 58t59.5 24t60 -24.5t25 -64.5q0 -89 -121 -197zM350 -133l-55 54q51 39 58 74q-23 9 -37 30t-14 46q0 34 24.5 58t59.5 24t60 -24.5t25 -64.5q0 -88 -121 -197z" />
    <glyph glyph-name="dagger" unicode="&#x2020;" horiz-adv-x="588" 
d="M560 464v-120h-206v-444h-120v444h-205v120h205v196h120v-196h206z" />
    <glyph glyph-name="daggerdbl" unicode="&#x2021;" horiz-adv-x="590" 
d="M544 355h-185v-150h185v-107h-185v-198h-128v198h-185v107h185v150h-185v107h185v198h128v-198h185v-107z" />
    <glyph glyph-name="bullet" unicode="&#x2022;" horiz-adv-x="412" 
d="M205 208q-56 0 -94.5 38t-38.5 94q0 55 38.5 93.5t94.5 38.5t95.5 -38.5t39.5 -93.5t-39.5 -93.5t-95.5 -38.5z" />
    <glyph glyph-name="ellipsis" unicode="&#x2026;" horiz-adv-x="863" 
d="M156 -5q-35 0 -59.5 24t-24.5 59q0 34 24.5 58.5t59.5 24.5t59.5 -24.5t24.5 -58.5q0 -35 -24.5 -59t-59.5 -24zM431 -5q-35 0 -59.5 24t-24.5 59q0 34 24.5 58.5t59.5 24.5t60 -24.5t25 -58.5t-25 -58.5t-60 -24.5zM706 -5q-35 0 -59.5 24t-24.5 59q0 34 24.5 58.5
t59.5 24.5t60 -24.5t25 -58.5t-25 -58.5t-60 -24.5z" />
    <glyph glyph-name="perthousand" unicode="&#x2030;" horiz-adv-x="1369" 
d="M221 343q-83 0 -135.5 50t-52.5 131q0 83 52.5 134.5t135.5 51.5t136 -51.5t53 -134.5q0 -81 -53 -131t-136 -50zM159 0l502 700h120l-501 -700h-121zM221 440q35 0 59.5 24.5t24.5 61.5q0 38 -24.5 62.5t-59.5 24.5q-34 0 -58.5 -24.5t-24.5 -62.5t24 -62t59 -24z
M718 -10q-82 0 -135 50.5t-53 130.5q0 84 52.5 135t135.5 51t136 -51t53 -135q0 -80 -53.5 -130.5t-135.5 -50.5zM1147 -10q-82 0 -135 50.5t-53 130.5q0 84 52.5 135t135.5 51t136 -51t53 -135q0 -80 -53.5 -130.5t-135.5 -50.5zM718 87q34 0 59 24.5t25 62.5
q0 37 -24.5 61.5t-59.5 24.5q-34 0 -58.5 -24t-24.5 -62t24.5 -62.5t58.5 -24.5zM1147 87q35 0 59.5 24.5t24.5 62.5q0 37 -24.5 61.5t-59.5 24.5t-59 -24t-24 -62t24.5 -62.5t58.5 -24.5z" />
    <glyph glyph-name="guilsinglleft" unicode="&#x2039;" horiz-adv-x="300" 
d="M281 441l-123 -196l123 -196h-133l-131 196l131 196h133z" />
    <glyph glyph-name="guilsinglright" unicode="&#x203a;" horiz-adv-x="300" 
d="M18 441h134l131 -196l-131 -196h-134l123 196z" />
    <glyph glyph-name="uni203D" unicode="&#x203d;" horiz-adv-x="527" 
d="M199 227l-12 297h124l-3 -100q59 23 59 79q0 39 -30 62.5t-78 23.5q-100 0 -124 -99l-120 41q18 88 85.5 133.5t159.5 45.5q111 0 176 -54t65 -138q0 -73 -53.5 -125t-144.5 -69l-3 -97h-101zM248 -5q-35 0 -59.5 24t-24.5 59q0 34 24.5 58.5t59.5 24.5t60 -24.5
t25 -58.5t-25 -58.5t-60 -24.5z" />
    <glyph glyph-name="fraction" unicode="&#x2044;" horiz-adv-x="282" 
d="M-120 0l415 700h107l-415 -700h-107z" />
    <glyph glyph-name="uni2070" unicode="&#x2070;" horiz-adv-x="447" 
d="M224 255q-90 0 -144.5 64t-54.5 176t54.5 176.5t144.5 64.5t144 -64.5t54 -176.5t-54 -176t-144 -64zM224 352q41 0 64 37.5t23 105.5t-23 106t-64 38t-64 -38t-23 -106t23 -105.5t64 -37.5z" />
    <glyph glyph-name="uni2074" unicode="&#x2074;" horiz-adv-x="418" 
d="M237 262v85h-227v94l227 289h111v-288h56v-95h-56v-85h-111zM118 442h119v146z" />
    <glyph glyph-name="uni2075" unicode="&#x2075;" horiz-adv-x="391" 
d="M201 580q69 0 118 -45.5t49 -115.5t-49.5 -116.5t-123.5 -46.5q-59 0 -104.5 30.5t-56.5 86.5l95 27q4 -22 20.5 -35t40.5 -13q28 0 47.5 19.5t19.5 49.5q0 31 -19.5 50t-47.5 19q-50 0 -59 -45l-89 30v255h302v-94h-208v-70q30 14 65 14z" />
    <glyph glyph-name="uni2076" unicode="&#x2076;" horiz-adv-x="386" 
d="M210 584q74 0 117.5 -47t43.5 -116q0 -73 -51 -119.5t-127 -46.5q-75 0 -126 46t-51 118q0 35 20 84l104 226h102l-64 -150q18 5 32 5zM193 351q29 0 48 19.5t19 49.5q0 31 -19 50t-48 19q-28 0 -46.5 -19t-18.5 -50q0 -30 19 -49.5t46 -19.5z" />
    <glyph glyph-name="uni2077" unicode="&#x2077;" horiz-adv-x="353" 
d="M39 262l167 368h-195v100h334v-64l-181 -404h-125z" />
    <glyph glyph-name="uni2078" unicode="&#x2078;" horiz-adv-x="405" 
d="M202 255q-79 0 -127.5 41t-48.5 101q0 66 63 103q-55 33 -55 96q0 59 45.5 99.5t122.5 40.5q78 0 123.5 -40.5t45.5 -99.5q0 -64 -55 -96q62 -36 62 -103q0 -60 -48 -101t-128 -41zM202 544q26 0 42 13t16 33q0 23 -16 36.5t-42 13.5q-25 0 -40.5 -14t-15.5 -36
q0 -20 15.5 -33t40.5 -13zM202 352q29 0 47 14.5t18 39.5q0 23 -18 37.5t-47 14.5t-46.5 -14.5t-17.5 -37.5q0 -25 17.5 -39.5t46.5 -14.5z" />
    <glyph glyph-name="uni2079" unicode="&#x2079;" horiz-adv-x="386" 
d="M194 736q75 0 125.5 -46t50.5 -118q0 -41 -19 -84l-104 -226h-103l64 150q-18 -5 -32 -5q-73 0 -116.5 46.5t-43.5 115.5q0 73 51 120t127 47zM193 502q28 0 47 19t19 50q0 30 -19 49.5t-47 19.5t-47.5 -19.5t-19.5 -49.5q0 -31 19.5 -50t47.5 -19z" />
    <glyph glyph-name="uni2080" unicode="&#x2080;" horiz-adv-x="447" 
d="M224 -36q-90 0 -144.5 64t-54.5 176t54.5 176.5t144.5 64.5t144 -64.5t54 -176.5t-54 -176t-144 -64zM224 61q41 0 64 37.5t23 105.5q0 67 -23 105.5t-64 38.5t-64 -38t-23 -106q0 -67 23 -105t64 -38z" />
    <glyph glyph-name="uni2081" unicode="&#x2081;" horiz-adv-x="270" 
d="M107 -30v355q-50 -18 -96 -18v94q59 0 115 37h93v-468h-112z" />
    <glyph glyph-name="uni2082" unicode="&#x2082;" horiz-adv-x="376" 
d="M13 -30v63l119 120q39 38 54 53t32 41t17 46q0 22 -16 38.5t-42 16.5q-53 0 -62 -53l-95 27q11 60 56 91t106 31q72 0 118.5 -38t46.5 -95q0 -74 -95 -169l-78 -78h175v-94h-336z" />
    <glyph glyph-name="uni2083" unicode="&#x2083;" horiz-adv-x="383" 
d="M182 -36q-65 0 -110.5 31t-56.5 91l95 27q9 -53 67 -53q27 0 47 14t20 40q0 25 -20 39t-51 14h-41v85h41q28 0 46 12.5t18 34.5q0 23 -19 36t-45 13q-24 0 -41.5 -14t-21.5 -39l-95 27q12 60 56.5 91t109.5 31q77 0 122 -40t45 -103q0 -60 -50 -93q57 -36 57 -101
q0 -63 -48 -103t-125 -40z" />
    <glyph glyph-name="uni2084" unicode="&#x2084;" horiz-adv-x="418" 
d="M237 -30v85h-227v94l227 289h111v-289h56v-94h-56v-85h-111zM118 149h119v146z" />
    <glyph glyph-name="uni2085" unicode="&#x2085;" horiz-adv-x="391" 
d="M201 288q69 0 118 -45.5t49 -116.5q0 -70 -49.5 -116t-123.5 -46q-59 0 -104.5 30t-56.5 86l95 27q4 -22 20.5 -34.5t40.5 -12.5q28 0 47.5 19.5t19.5 49.5t-19.5 49t-47.5 19q-50 0 -59 -44l-89 30v255h302v-94h-208v-70q30 14 65 14z" />
    <glyph glyph-name="uni2086" unicode="&#x2086;" horiz-adv-x="386" 
d="M210 293q74 0 117.5 -47t43.5 -116q0 -73 -51 -119.5t-127 -46.5q-75 0 -126 45.5t-51 117.5q0 35 20 84l104 227h106l-64 -149q13 4 28 4zM193 60q29 0 48 19t19 49q0 31 -19 50t-48 19q-28 0 -46.5 -19t-18.5 -50q0 -30 19 -49t46 -19z" />
    <glyph glyph-name="uni2087" unicode="&#x2087;" horiz-adv-x="353" 
d="M39 -30l167 368h-195v100h334v-65l-181 -403h-125z" />
    <glyph glyph-name="uni2088" unicode="&#x2088;" horiz-adv-x="405" 
d="M202 -36q-79 0 -127.5 40.5t-48.5 100.5q0 66 63 103q-55 34 -55 96q0 60 45.5 100t122.5 40q78 0 123.5 -40t45.5 -100q0 -62 -55 -96q62 -36 62 -103q0 -60 -48 -100.5t-128 -40.5zM202 252q26 0 42 13t16 34q0 22 -16 35.5t-42 13.5q-25 0 -40.5 -13.5t-15.5 -35.5
q0 -21 15.5 -34t40.5 -13zM202 60q29 0 47 14.5t18 39.5q0 23 -18 38t-47 15t-46.5 -15t-17.5 -38q0 -25 17.5 -39.5t46.5 -14.5z" />
    <glyph glyph-name="uni2089" unicode="&#x2089;" horiz-adv-x="386" 
d="M194 444q75 0 125.5 -46t50.5 -118q0 -41 -19 -84l-104 -226h-106l64 149q-13 -4 -29 -4q-73 0 -116.5 47t-43.5 116q0 73 51 119.5t127 46.5zM193 210q28 0 47 19t19 50q0 30 -19 49.5t-47 19.5t-47.5 -19.5t-19.5 -49.5q0 -31 19.5 -50t47.5 -19z" />
    <glyph glyph-name="colonmonetary" unicode="&#x20a1;" horiz-adv-x="763" 
d="M452 130q50 11 85.5 42.5t47.5 78.5l136 -41q-26 -105 -112 -162.5t-202 -57.5h-1l-30 -90h-86l33 98q-34 7 -68 20l-39 -118h-86l53 159q-137 102 -137 292q0 159 99.5 258t253.5 101l23 70h86l-26 -78q32 -5 68 -20l32 98h86l-46 -139q76 -58 99 -151l-137 -41
q-4 18 -14 36zM299 151q31 -17 67 -23l140 422q-32 18 -67 22zM193 350q0 -80 40 -139l119 358q-72 -17 -115.5 -75.5t-43.5 -143.5z" />
    <glyph glyph-name="franc" unicode="&#x20a3;" horiz-adv-x="657" 
d="M132 0v103h-100v90h100v507h475v-127h-335v-165h313v-127h-313v-88h100v-90h-100v-103h-140z" />
    <glyph glyph-name="lira" unicode="&#x20a4;" horiz-adv-x="636" 
d="M325 224q0 -63 -32 -104h281v-120h-499v120h30q39 0 62.5 25.5t23.5 70.5q0 11 -1 17h-115v86h90q-3 8 -13 31t-15 36h-62v86h37q-4 17 -4 41q0 91 68.5 144t177.5 53q83 0 149 -36t90 -110l-118 -55q-24 73 -112 73q-54 0 -83.5 -25t-29.5 -74v-11h261v-86h-236
q4 -10 14.5 -32.5t15.5 -34.5h206v-86h-186v-9z" />
    <glyph glyph-name="uni20A6" unicode="&#x20a6;" horiz-adv-x="858" 
d="M133 0v244h-86v65h86v80h-86v64h86v247h197l111 -247h157v247h126v-247h87v-64h-87v-80h87v-65h-87v-244h-197l-111 244h-157v-244h-126zM260 453h62l-62 134v-134zM259 309h129l-38 80h-90zM507 309h91v80h-129zM598 112v132h-62z" />
    <glyph glyph-name="peseta" unicode="&#x20a7;" horiz-adv-x="751" 
d="M117 0v422h-73v86h73v192h275q106 0 173 -51.5t81 -140.5h73v-86h-72q-14 -89 -81.5 -141t-173.5 -52h-134v-229h-141zM258 508h240q-21 65 -102 65h-138v-65zM258 355h138q80 0 103 67h-241v-67z" />
    <glyph glyph-name="uni20A8" unicode="&#x20a8;" horiz-adv-x="1120" 
d="M65 0v700h275q125 0 191.5 -61.5t66.5 -164.5q0 -76 -41 -131.5t-115 -78.5l164 -264h-149l-152 248h-99v-248h-141zM206 375h143q50 0 77.5 27.5t27.5 71.5t-27.5 71.5t-77.5 27.5h-143v-198zM884 -10q-83 0 -141.5 35.5t-73.5 101.5l114 30q9 -28 34.5 -43t60.5 -15
q33 0 53.5 13t20.5 35q0 20 -17.5 28.5t-56.5 14.5q-36 5 -54 8.5t-53.5 15t-54 26t-34 41.5t-15.5 63q0 74 57.5 115t145.5 41q78 0 133 -34t71 -102l-116 -31q-7 29 -32.5 43.5t-57.5 14.5q-60 0 -60 -44q0 -20 15 -29t46 -14q3 -1 27.5 -4t35.5 -5t36 -8t38.5 -12.5
t32.5 -18t29 -25.5t17.5 -34.5t7.5 -44.5q0 -76 -61 -119t-148 -43z" />
    <glyph glyph-name="uni20A9" unicode="&#x20a9;" horiz-adv-x="875" 
d="M184 0l-31 244h-98v65h90l-11 80h-79v64h71l-32 247h124l28 -247h89l33 247h139l33 -247h89l27 247h125l-32 -247h70v-64h-78l-11 -80h89v-65h-97l-31 -244h-174l-33 244h-93l-34 -244h-173zM419 453h37l-19 128zM263 309h52l12 80h-75zM399 309h76l-11 80h-53zM559 309
h53l10 80h-75zM287 94l21 150h-39zM588 94l17 150h-38z" />
    <glyph glyph-name="uni20AA" unicode="&#x20aa;" horiz-adv-x="899" 
d="M100 0v700h297q97 0 156.5 -53t59.5 -139v-332h-141v332q0 28 -20.5 45t-53.5 17h-158v-570h-140zM501 0q-97 0 -156 53t-59 139v332h140v-332q0 -28 20.5 -45t54.5 -17h157v570h141v-700h-298z" />
    <glyph glyph-name="dong" unicode="&#x20ab;" horiz-adv-x="687" 
d="M285 -10q-102 0 -171.5 72t-69.5 183q0 112 70 183.5t172 71.5q97 0 152 -64v122h-166v85h166v57h137v-57h68v-85h-68v-558h-137v55q-54 -65 -153 -65zM313 109q54 0 89.5 37.5t35.5 98.5t-35.5 98.5t-89.5 37.5q-53 0 -90 -37.5t-37 -98.5t37 -98.5t90 -37.5zM106 -159
v86h469v-86h-469z" />
    <glyph glyph-name="Euro" unicode="&#x20ac;" horiz-adv-x="678" 
d="M500 -10q-127 0 -219 66t-125 177h-107v86h91q-1 10 -1 32q0 24 1 35h-91v86h108q34 110 125.5 174t214.5 64q49 0 92 -12v-143q-42 20 -91 20q-60 0 -107 -27t-74 -76h265v-86h-294q-2 -22 -2 -36q0 -11 2 -31h294v-86h-268q27 -51 75 -79.5t110 -28.5q47 0 90 19v-143
q-44 -11 -89 -11z" />
    <glyph glyph-name="uni2113" unicode="&#x2113;" horiz-adv-x="590" 
d="M329 -8q-112 0 -171 119q-85 -38 -123 -45l-29 114q64 17 119 42q-7 47 -7 91q0 166 71.5 280.5t176.5 114.5q71 0 121 -54t50 -139q0 -56 -23 -109t-63 -96.5t-85 -78t-98 -65.5q24 -61 73 -61q31 0 52.5 23t27.5 56l117 -13q-13 -77 -73 -128t-136 -51zM250 293
q163 110 163 225q0 31 -12.5 52t-34.5 21q-41 0 -74 -65.5t-41 -161.5q-3 -35 -1 -71z" />
    <glyph glyph-name="uni2116" unicode="&#x2116;" horiz-adv-x="1318" 
d="M1025 200q-113 0 -188.5 70.5t-75.5 182.5q0 115 75 186t189 71q113 0 188.5 -71.5t75.5 -185.5q0 -112 -75.5 -182.5t-188.5 -70.5zM526 247v453h140v-700h-129l-331 452v-452h-141v700h130zM1025 587q-53 0 -88 -36t-35 -97q0 -60 35 -96t88 -36t88 36t35 96
q0 61 -35 97t-88 36zM785 0v111h480v-111h-480z" />
    <glyph glyph-name="uni2117" unicode="&#x2117;" horiz-adv-x="817" 
d="M409 -10q-157 0 -260 100t-103 260t103 260t260 100t259.5 -100t102.5 -260t-102.5 -260t-259.5 -100zM409 61q124 0 205 80t81 209t-81 209t-205 80t-205 -80t-81 -209t81 -209t205 -80zM287 177v350h139q60 0 95.5 -32t35.5 -86q0 -58 -35 -88.5t-99 -30.5h-58v-113
h-78zM365 360h63q22 0 35.5 13t13.5 35t-13.5 35.5t-35.5 13.5h-63v-97z" />
    <glyph glyph-name="trademark" unicode="&#x2122;" horiz-adv-x="844" 
d="M129 350v269h-91v81h273v-81h-90v-269h-92zM351 350v350h109l90 -226l91 226h110v-350h-92v208l-79 -208h-59l-80 208v-208h-90z" />
    <glyph glyph-name="uni2126" unicode="&#x2126;" horiz-adv-x="854" 
d="M58 0v120h113q-103 88 -103 238q0 155 102 253.5t257 98.5q156 0 257.5 -98t101.5 -254q0 -150 -103 -238h113v-120h-343v120q79 0 132 65t53 164q0 101 -58.5 163.5t-152.5 62.5t-152.5 -62.5t-58.5 -163.5q0 -100 53 -164.5t132 -64.5v-120h-343z" />
    <glyph glyph-name="estimated" unicode="&#x212e;" horiz-adv-x="835" 
d="M427 -10q-168 0 -275.5 104t-107.5 255q0 152 108 256.5t272 104.5t272 -104.5t108 -255.5v-9h-609q-5 0 -5 -6v-195q0 -11 10 -22q92 -106 227 -106q77 0 130.5 29t105.5 88h58q-58 -69 -125.5 -104t-168.5 -35zM195 360h458q4 0 4 6v196q0 14 -10 24q-51 53 -99 77.5
t-124 24.5q-133 0 -223 -105q-11 -13 -11 -24v-193q0 -6 5 -6z" />
    <glyph glyph-name="oneeighth" unicode="&#x215b;" horiz-adv-x="957" 
d="M107 232v355q-54 -18 -96 -18v95q60 0 115 36h93v-468h-112zM150 0l415 700h107l-415 -700h-107zM754 -6q-79 0 -127.5 40.5t-48.5 100.5q0 66 63 103q-55 34 -55 96q0 60 45.5 100t122.5 40q78 0 123.5 -40t45.5 -100q0 -62 -55 -96q62 -36 62 -103q0 -60 -48 -100.5
t-128 -40.5zM754 282q26 0 42 13t16 34q0 22 -16 35.5t-42 13.5q-25 0 -40.5 -13.5t-15.5 -35.5q0 -21 15.5 -34t40.5 -13zM754 90q29 0 47 14.5t18 39.5q0 23 -18 38t-47 15t-46.5 -15t-17.5 -38q0 -25 17.5 -39.5t46.5 -14.5z" />
    <glyph glyph-name="threeeighths" unicode="&#x215c;" horiz-adv-x="1070" 
d="M182 225q-65 0 -110.5 31t-56.5 91l95 27q9 -52 67 -52q28 0 47.5 14t19.5 40q0 25 -20 38.5t-51 13.5h-41v86h41q28 0 46 12t18 34q0 24 -19 37t-45 13q-24 0 -41.5 -14t-21.5 -40l-95 27q12 61 56.5 92t109.5 31q76 0 121.5 -40.5t45.5 -102.5q0 -61 -50 -93
q57 -36 57 -101q0 -63 -48 -103.5t-125 -40.5zM263 0l415 700h107l-415 -700h-107zM867 -6q-79 0 -127.5 40.5t-48.5 100.5q0 66 63 103q-55 34 -55 96q0 60 45.5 100t122.5 40q78 0 123.5 -40t45.5 -100q0 -62 -55 -96q62 -36 62 -103q0 -60 -48 -100.5t-128 -40.5z
M867 282q26 0 42 13t16 34q0 22 -16 35.5t-42 13.5q-25 0 -40.5 -13.5t-15.5 -35.5q0 -21 15.5 -34t40.5 -13zM867 90q29 0 47 14.5t18 39.5q0 23 -18 38t-47 15t-46.5 -15t-17.5 -38q0 -25 17.5 -39.5t46.5 -14.5z" />
    <glyph glyph-name="fiveeighths" unicode="&#x215d;" horiz-adv-x="1078" 
d="M368 389q0 -70 -49.5 -116.5t-123.5 -46.5q-59 0 -104.5 30.5t-56.5 86.5l95 27q4 -22 20.5 -35t40.5 -13q28 0 47.5 19.5t19.5 49.5q0 31 -19.5 50t-47.5 19q-50 0 -59 -45l-89 30v255h302v-94h-208v-70q30 14 65 14q69 0 118 -45.5t49 -115.5zM686 700h107l-415 -700
h-107zM989 238q62 -36 62 -103q0 -60 -48 -100.5t-128 -40.5q-79 0 -127.5 40.5t-48.5 100.5q0 66 63 103q-55 34 -55 96q0 60 45.5 100t122.5 40q78 0 123.5 -40t45.5 -100q0 -62 -55 -96zM875 378q-25 0 -40.5 -13.5t-15.5 -35.5q0 -21 15.5 -34t40.5 -13q26 0 42 13
t16 34q0 22 -16 35.5t-42 13.5zM875 90q29 0 47 14.5t18 39.5q0 23 -18 38t-47 15t-46.5 -15t-17.5 -38q0 -25 17.5 -39.5t46.5 -14.5z" />
    <glyph glyph-name="seveneighths" unicode="&#x215e;" horiz-adv-x="1010" 
d="M39 232l167 368h-195v100h334v-64l-181 -404h-125zM203 0l415 700h107l-415 -700h-107zM807 -6q-79 0 -127.5 40.5t-48.5 100.5q0 66 63 103q-55 34 -55 96q0 60 45.5 100t122.5 40q78 0 123.5 -40t45.5 -100q0 -62 -55 -96q62 -36 62 -103q0 -60 -48 -100.5t-128 -40.5z
M807 282q26 0 42 13t16 34q0 22 -16 35.5t-42 13.5q-25 0 -40.5 -13.5t-15.5 -35.5q0 -21 15.5 -34t40.5 -13zM807 90q29 0 47 14.5t18 39.5q0 23 -18 38t-47 15t-46.5 -15t-17.5 -38q0 -25 17.5 -39.5t46.5 -14.5z" />
    <glyph glyph-name="arrowleft" unicode="&#x2190;" horiz-adv-x="742" 
d="M725 423v-116l-494 -1l190 -189l-76 -76l-312 324l312 324l76 -76l-191 -190h495z" />
    <glyph glyph-name="arrowup" unicode="&#x2191;" horiz-adv-x="680" 
d="M664 380l-76 -76l-189 190l-1 -494h-116v495l-190 -191l-76 76l324 312z" />
    <glyph glyph-name="arrowright" unicode="&#x2192;" horiz-adv-x="742" 
d="M412 689l313 -324l-313 -324l-76 76l190 189l-493 1v116h494l-191 190z" />
    <glyph glyph-name="arrowdown" unicode="&#x2193;" horiz-adv-x="680" 
d="M602 356l76 -76l-324 -312l-324 312l76 76l189 -190l1 494h115v-495z" />
    <glyph glyph-name="arrowboth" unicode="&#x2194;" horiz-adv-x="1023" 
d="M1006 320l-312 -324l-77 76l190 190h-576l190 -190l-76 -76l-312 324l312 324l76 -76l-190 -189h576l-190 189l77 76z" />
    <glyph glyph-name="arrowupdn" unicode="&#x2195;" horiz-adv-x="690" 
d="M345 -135l-324 311l76 77l190 -190v576l-190 -190l-76 76l324 313l324 -313l-76 -76l-189 190v-576l189 190l76 -77z" />
    <glyph glyph-name="uni2196" unicode="&#x2196;" horiz-adv-x="646" 
d="M559 135l-81 -82l-358 352v-269l-99 1v450h449l1 -100h-268z" />
    <glyph glyph-name="uni2197" unicode="&#x2197;" horiz-adv-x="646" 
d="M110 587h449v-450l-98 -1v270l-359 -353l-81 82l356 352h-268z" />
    <glyph glyph-name="uni2198" unicode="&#x2198;" horiz-adv-x="646" 
d="M527 551l99 -1v-450h-450l-1 100h269l-357 352l81 82l359 -353v270z" />
    <glyph glyph-name="uni2199" unicode="&#x2199;" horiz-adv-x="646" 
d="M626 552l-357 -352h269l-1 -100h-450v450l99 1v-270l358 353z" />
    <glyph glyph-name="partialdiff" unicode="&#x2202;" horiz-adv-x="622" 
d="M285 -10q-111 0 -179 63.5t-68 170.5q0 103 62 166.5t164 63.5q96 0 161 -63q-18 198 -163 198q-44 0 -96 -16v122q56 15 112 15q139 0 214 -93.5t75 -268.5q0 -176 -75.5 -267t-206.5 -91zM283 106q62 0 99.5 46.5t45.5 127.5q-57 69 -137 69q-54 0 -86.5 -33.5
t-32.5 -90.5q0 -54 30 -86.5t81 -32.5z" />
    <glyph glyph-name="uni2206" unicode="&#x2206;" horiz-adv-x="668" 
d="M15 0v127l240 573h158l240 -573v-127h-638zM161 127h346l-173 417z" />
    <glyph glyph-name="product" unicode="&#x220f;" horiz-adv-x="733" 
d="M93 -97v797h546v-797h-140v670h-265v-670h-141z" />
    <glyph glyph-name="summation" unicode="&#x2211;" horiz-adv-x="605" 
d="M47 -72v127l194 259l-194 259v127h514v-127h-334l187 -259l-187 -259h334v-127h-514z" />
    <glyph glyph-name="minus" unicode="&#x2212;" horiz-adv-x="660" 
d="M566 386v-120h-473v120h473z" />
    <glyph glyph-name="uni2215" unicode="&#x2215;" horiz-adv-x="282" 
d="M-120 0l415 700h107l-415 -700h-107z" />
    <glyph glyph-name="uni2219" unicode="&#x2219;" horiz-adv-x="313" 
d="M156 176q-35 0 -59.5 24t-24.5 59q0 34 24.5 58.5t59.5 24.5t59.5 -24.5t24.5 -58.5q0 -35 -24.5 -59t-59.5 -24z" />
    <glyph glyph-name="radical" unicode="&#x221a;" horiz-adv-x="746" 
d="M587 780h141l-296 -780h-178l-124 323h-102v119h200l115 -317z" />
    <glyph glyph-name="infinity" unicode="&#x221e;" horiz-adv-x="863" 
d="M245 114q-79 0 -131 48.5t-52 127.5t53 129t131 50q54 0 97 -26.5t88 -83.5q46 58 88.5 85t97.5 27q78 0 131 -50.5t53 -129.5t-52 -127.5t-131 -48.5q-55 0 -97.5 25t-88.5 80q-48 -56 -90.5 -81t-96.5 -25zM618 226q28 0 47 17t19 46q0 28 -19 45.5t-46 17.5
q-53 0 -105 -63q49 -63 104 -63zM245 224q53 0 104 64q-51 63 -104 63q-28 0 -47 -17t-19 -46t19 -46.5t47 -17.5z" />
    <glyph glyph-name="integral" unicode="&#x222b;" horiz-adv-x="503" 
d="M134 -138q-56 0 -112 17v109q46 -15 84 -15q78 0 78 77v482q0 88 52.5 133t132.5 45q60 0 112 -16v-110q-46 15 -84 15q-78 0 -78 -76v-483q0 -88 -52.5 -133t-132.5 -45z" />
    <glyph glyph-name="approxequal" unicode="&#x2248;" horiz-adv-x="668" 
d="M453 347q-45 0 -124.5 28.5t-122.5 28.5q-72 0 -124 -49v120q61 51 132 51q45 0 122.5 -29.5t121.5 -29.5q69 0 126 50v-121q-59 -49 -131 -49zM453 113q-45 0 -124.5 28.5t-122.5 28.5q-72 0 -124 -49v120q61 51 132 51q45 0 122.5 -29.5t121.5 -29.5q69 0 126 50v-121
q-59 -49 -131 -49z" />
    <glyph glyph-name="notequal" unicode="&#x2260;" horiz-adv-x="609" 
d="M544 384h-160l-56 -125h216v-110h-264l-55 -123h-105l55 123h-111v110h160l55 125h-215v110h264l57 127h104l-56 -127h111v-110z" />
    <glyph glyph-name="lessequal" unicode="&#x2264;" horiz-adv-x="612" 
d="M538 673v-144l-394 -117l394 -118v-143l-479 171v179zM59 0v106h479v-106h-479z" />
    <glyph glyph-name="greaterequal" unicode="&#x2265;" horiz-adv-x="612" 
d="M74 673l478 -172v-179l-478 -171v143l393 118l-393 117v144zM74 0v106h478v-106h-478z" />
    <glyph glyph-name="uni22B2" unicode="&#x22b2;" horiz-adv-x="646" 
d="M93 -23v618l535 -309z" />
    <glyph glyph-name="uni22B3" unicode="&#x22b3;" horiz-adv-x="646" 
d="M552 -23l-535 309l535 309v-618z" />
    <glyph glyph-name="filledbox" unicode="&#x25a0;" horiz-adv-x="758" 
d="M93 0v572h571v-572h-571z" />
    <glyph glyph-name="triagup" unicode="&#x25b2;" horiz-adv-x="654" 
d="M17 30l309 535l310 -536z" />
    <glyph glyph-name="triagdn" unicode="&#x25bc;" horiz-adv-x="654" 
d="M326 -25l-309 535h619z" />
    <glyph glyph-name="lozenge" unicode="&#x25ca;" horiz-adv-x="609" 
d="M378 700l208 -350l-208 -350h-147l-208 350l208 350h147zM305 103l140 247l-140 247l-139 -247z" />
    <glyph glyph-name="uni25CF" unicode="&#x25cf;" horiz-adv-x="691" 
d="M642 287q0 -123 -87 -210t-210 -87t-210 87t-87 210t87 210t210 87t210 -87t87 -210z" />
    <glyph glyph-name="uni2605" unicode="&#x2605;" horiz-adv-x="788" 
d="M537 250l90 -275l-235 170l-234 -170l89 275l-234 171h290l89 276l90 -276h290z" />
    <glyph glyph-name="uni2610" unicode="&#x2610;" horiz-adv-x="758" 
d="M93 0v572h571v-572h-571zM620 532h-484v-492h484v492z" />
    <glyph glyph-name="uni2611" unicode="&#x2611;" horiz-adv-x="758" 
d="M93 0v572h571v-572h-571zM624 532h-491v-495h491v495zM522 462l32 -24l-228 -312l-119 125l30 28l85 -91z" />
    <glyph glyph-name="diamond" unicode="&#x2666;" horiz-adv-x="542" 
d="M270 35l-250 250l250 251l251 -251z" />
    <glyph glyph-name="uni2713" unicode="&#x2713;" horiz-adv-x="720" 
d="M639 641l63 -47l-424 -581l-260 284l59 53l194 -212z" />
    <glyph glyph-name="uniF6DD" unicode="&#xf6dd;" horiz-adv-x="1255" 
d="M598 474q0 -76 -41 -131.5t-115 -78.5l164 -264h-149l-152 248h-99v-248h-141v700h275q125 0 191.5 -61.5t66.5 -164.5zM349 375q50 0 77.5 27.5t27.5 71.5t-27.5 71.5t-77.5 27.5h-143v-198h143zM985 500q102 0 171.5 -71.5t69.5 -183.5q0 -111 -69 -183t-171 -72
q-98 0 -153 63v-253h-137v690h137v-52q56 62 152 62zM958 109q54 0 90 37.5t36 98.5q0 62 -36 99t-90 37t-89.5 -37.5t-35.5 -98.5t35.5 -98.5t89.5 -37.5z" />
    <glyph glyph-name="uniF8FF" unicode="&#xf8ff;" horiz-adv-x="934" 
d="M452 324v306h55v-177l80 97h65l-74 -87l86 -139h-64l-56 98l-37 -42v-56h-55zM67 324v184h-47v42h29q18 0 18 19v37h54v-56h60v-42h-60v-141h60v-43h-114zM307 320q-44 0 -71 26t-27 69v43q0 43 27 69.5t71 26.5t71.5 -26.5t27.5 -69.5v-43q0 -43 -27.5 -69t-71.5 -26z
M776 320q-44 0 -71 26t-27 69v43q0 43 27 69.5t71 26.5t71.5 -26.5t27.5 -69.5v-43q0 -43 -27.5 -69t-71.5 -26zM308 362q19 0 30.5 12.5t11.5 33.5v58q0 21 -12 33t-31 12q-20 0 -31 -12.5t-11 -32.5v-58q0 -21 11.5 -33.5t31.5 -12.5zM777 362q19 0 30.5 12.5t11.5 33.5
v58q0 21 -12 33t-31 12t-30.5 -12.5t-11.5 -32.5v-58q0 -21 11.5 -33.5t31.5 -12.5zM67 0v185h-47v41h29q18 0 18 19v37h54v-56h60v-41h-60v-141h60v-44h-114zM476 -80v306h49v-26q19 30 64 30q38 0 62.5 -25t24.5 -67v-51q0 -41 -24 -65t-63 -24q-40 0 -59 21v-99h-54z
M815 -2q-44 0 -71 26.5t-27 70.5v38q0 44 27 70.5t71 26.5q45 0 72 -26.5t27 -70.5v-32h-142v-17q0 -21 12.5 -33t32.5 -12q36 0 43 33h54q-3 -34 -30.5 -54t-68.5 -20zM242 -80v42h53v60l-90 204h60l57 -149l60 149h59l-91 -204v-102h-108zM576 40q19 0 31.5 12t12.5 34v56
q0 21 -12 33.5t-34 12.5q-20 0 -32 -12.5t-12 -33.5v-56q0 -21 12.5 -33.5t33.5 -12.5zM772 141h87v2q0 21 -12 33t-32 12q-19 0 -31 -12.5t-12 -32.5v-2z" />
    <glyph glyph-name="i.loclTRK" horiz-adv-x="266" 
d="M133 563q-36 0 -61 26t-25 62t25 61.5t61 25.5q37 0 63 -25.5t26 -61.5t-26 -62t-63 -26zM65 0v490h137v-490h-137z" />
    <glyph glyph-name="germandbls.calt" horiz-adv-x="636" 
d="M391 -10q-61 0 -107 18l18 116q28 -13 59 -13q41 0 69.5 26.5t28.5 72.5q0 89 -113 89h-44v120l126 160h-113q-52 0 -82 -31.5t-30 -84.5v-463h-141v463q0 108 68 172.5t185 64.5h285v-94l-167 -207q82 -20 125.5 -73t43.5 -129q0 -94 -59.5 -150.5t-151.5 -56.5z" />
    <glyph glyph-name="a.ss01" horiz-adv-x="615" 
d="M417 490h137v-490h-137v53q-55 -63 -153 -63q-102 0 -171 72t-69 183q0 112 69.5 183.5t172.5 71.5q95 0 151 -62v52zM293 109q53 0 88.5 37.5t35.5 98.5t-35.5 98.5t-88.5 37.5q-54 0 -90.5 -37.5t-36.5 -98.5t36.5 -98.5t90.5 -37.5z" />
    <glyph glyph-name="aacute.ss01" horiz-adv-x="615" 
d="M452 724l-96 -160h-101l68 160h129zM417 490h137v-490h-137v53q-55 -63 -153 -63q-102 0 -171 72t-69 183q0 112 69.5 183.5t172.5 71.5q95 0 151 -62v52zM293 109q53 0 88.5 37.5t35.5 98.5t-35.5 98.5t-88.5 37.5q-54 0 -90.5 -37.5t-36.5 -98.5t36.5 -98.5t90.5 -37.5
z" />
    <glyph glyph-name="abreve.ss01" horiz-adv-x="615" 
d="M308 550q-73 0 -117.5 44t-44.5 115h98q0 -33 17.5 -53.5t46.5 -20.5t47 20.5t18 53.5h98q0 -71 -45 -115t-118 -44zM417 490h137v-490h-137v53q-55 -63 -153 -63q-102 0 -171 72t-69 183q0 112 69.5 183.5t172.5 71.5q95 0 151 -62v52zM293 109q53 0 88.5 37.5
t35.5 98.5t-35.5 98.5t-88.5 37.5q-54 0 -90.5 -37.5t-36.5 -98.5t36.5 -98.5t90.5 -37.5z" />
    <glyph glyph-name="acircumflex.ss01" horiz-adv-x="615" 
d="M307 661l-69 -97h-115l120 160h128l121 -160h-115zM417 490h137v-490h-137v53q-55 -63 -153 -63q-102 0 -171 72t-69 183q0 112 69.5 183.5t172.5 71.5q95 0 151 -62v52zM293 109q53 0 88.5 37.5t35.5 98.5t-35.5 98.5t-88.5 37.5q-54 0 -90.5 -37.5t-36.5 -98.5
t36.5 -98.5t90.5 -37.5z" />
    <glyph glyph-name="adieresis.ss01" horiz-adv-x="615" 
d="M199 568q-34 0 -58.5 24.5t-24.5 59.5q0 34 24.5 58.5t58.5 24.5q35 0 59 -24.5t24 -58.5q0 -35 -24 -59.5t-59 -24.5zM416 568q-34 0 -58.5 24.5t-24.5 59.5q0 34 24.5 58.5t58.5 24.5q35 0 59 -24.5t24 -58.5q0 -35 -24 -59.5t-59 -24.5zM417 490h137v-490h-137v53
q-55 -63 -153 -63q-102 0 -171 72t-69 183q0 112 69.5 183.5t172.5 71.5q95 0 151 -62v52zM293 109q53 0 88.5 37.5t35.5 98.5t-35.5 98.5t-88.5 37.5q-54 0 -90.5 -37.5t-36.5 -98.5t36.5 -98.5t90.5 -37.5z" />
    <glyph glyph-name="agrave.ss01" horiz-adv-x="615" 
d="M362 564h-101l-96 160h129zM417 490h137v-490h-137v53q-55 -63 -153 -63q-102 0 -171 72t-69 183q0 112 69.5 183.5t172.5 71.5q95 0 151 -62v52zM293 109q53 0 88.5 37.5t35.5 98.5t-35.5 98.5t-88.5 37.5q-54 0 -90.5 -37.5t-36.5 -98.5t36.5 -98.5t90.5 -37.5z" />
    <glyph glyph-name="amacron.ss01" horiz-adv-x="615" 
d="M472 662v-98h-329v98h329zM417 490h137v-490h-137v53q-55 -63 -153 -63q-102 0 -171 72t-69 183q0 112 69.5 183.5t172.5 71.5q95 0 151 -62v52zM293 109q53 0 88.5 37.5t35.5 98.5t-35.5 98.5t-88.5 37.5q-54 0 -90.5 -37.5t-36.5 -98.5t36.5 -98.5t90.5 -37.5z" />
    <glyph glyph-name="aogonek.ss01" horiz-adv-x="615" 
d="M567 -98l40 -68q-62 -48 -135 -48q-55 0 -95 27.5t-40 81.5q0 72 80 108v50q-55 -63 -153 -63q-102 0 -171 72t-69 183q0 112 69.5 183.5t172.5 71.5q95 0 151 -62v52h137v-490h-15q-109 -25 -109 -82q0 -22 15 -35t41 -13q49 0 81 32zM293 109q53 0 88.5 37.5t35.5 98.5
t-35.5 98.5t-88.5 37.5q-54 0 -90.5 -37.5t-36.5 -98.5t36.5 -98.5t90.5 -37.5z" />
    <glyph glyph-name="aring.ss01" horiz-adv-x="615" 
d="M308 539q-49 0 -81.5 31.5t-32.5 76.5t32 76t82 31t82.5 -31t32.5 -76t-32.5 -76.5t-82.5 -31.5zM308 686q-16 0 -28 -11t-12 -28q0 -18 12 -29t28 -11q17 0 29 11t12 29q0 17 -12 28t-29 11zM417 490h137v-490h-137v53q-55 -63 -153 -63q-102 0 -171 72t-69 183
q0 112 69.5 183.5t172.5 71.5q95 0 151 -62v52zM293 109q53 0 88.5 37.5t35.5 98.5t-35.5 98.5t-88.5 37.5q-54 0 -90.5 -37.5t-36.5 -98.5t36.5 -98.5t90.5 -37.5z" />
    <glyph glyph-name="aringacute.ss01" horiz-adv-x="615" 
d="M420 874l-66 -94h-94l42 94h118zM308 539q-49 0 -81.5 31.5t-32.5 76.5t32 76t82 31t83 -31t33 -76t-33 -76.5t-83 -31.5zM308 686q-16 0 -27.5 -11t-11.5 -28q0 -18 11.5 -29t27.5 -11q17 0 29 11t12 29q0 17 -12 28t-29 11zM417 490h137v-490h-137v53q-55 -63 -153 -63
q-102 0 -171 72t-69 183q0 112 69.5 183.5t172.5 71.5q95 0 151 -62v52zM293 109q53 0 88.5 37.5t35.5 98.5t-35.5 98.5t-88.5 37.5q-54 0 -90.5 -37.5t-36.5 -98.5t36.5 -98.5t90.5 -37.5z" />
    <glyph glyph-name="atilde.ss01" horiz-adv-x="615" 
d="M238 604q-34 0 -41 -38h-80q0 55 33.5 86.5t83.5 31.5q39 0 82.5 -22.5t61.5 -22.5q34 0 41 37h80q0 -55 -33.5 -86.5t-83.5 -31.5q-39 0 -82.5 23t-61.5 23zM417 490h137v-490h-137v53q-55 -63 -153 -63q-102 0 -171 72t-69 183q0 112 69.5 183.5t172.5 71.5
q95 0 151 -62v52zM293 109q53 0 88.5 37.5t35.5 98.5t-35.5 98.5t-88.5 37.5q-54 0 -90.5 -37.5t-36.5 -98.5t36.5 -98.5t90.5 -37.5z" />
    <glyph glyph-name="k.ss02" horiz-adv-x="535" 
d="M57 0v700h137v-394h78l101 184h140l-129 -237l151 -253h-152l-111 186h-78v-186h-137z" />
    <glyph glyph-name="kcommaaccent.ss02" horiz-adv-x="535" 
d="M57 0v700h137v-394h78l101 184h140l-129 -237l151 -253h-152l-111 186h-78v-186h-137zM150 -214l68 159h129l-96 -159h-101z" />
    <glyph glyph-name="t.ss03" horiz-adv-x="352" 
d="M107 0v373h-92v117h92v140h137v-140h93v-117h-93v-373h-137z" />
    <glyph glyph-name="tbar.ss03" horiz-adv-x="352" 
d="M107 0v208h-92v107h92v58h-92v117h92v140h137v-140h93v-117h-93v-58h93v-107h-93v-208h-137z" />
    <glyph glyph-name="tcaron.ss03" horiz-adv-x="352" 
d="M109 704l-120 160h115l69 -97l70 97h115l-121 -160h-128zM107 0v373h-92v117h92v140h137v-140h93v-117h-93v-373h-137z" />
    <glyph glyph-name="uni0163.ss03" horiz-adv-x="352" 
d="M337 373h-93v-367q77 -36 77 -108q0 -54 -40 -81.5t-95 -27.5q-73 0 -135 48l40 68q32 -32 82 -32q25 0 40 13t15 35q0 54 -97 79h-24v373h-92v117h92v140h137v-140h93v-117z" />
    <glyph glyph-name="uni021B.ss03" horiz-adv-x="352" 
d="M107 0v373h-92v117h92v140h137v-140h93v-117h-93v-373h-137zM59 -214l68 159h129l-96 -159h-101z" />
    <glyph glyph-name="longs_t" horiz-adv-x="837" 
d="M103 0v373h-88v117h88v39q0 91 55.5 136t138.5 45q61 0 120 -17l-18 -107q-38 13 -76 13q-83 0 -83 -80v-519h-137zM725 -10q-83 0 -138 45t-55 140v198h-92v117h66q26 29 26 140h137v-140h149v-117h-149v-192q0 -76 82 -76q33 0 62 12l18 -109q-47 -18 -106 -18z" />
    <glyph glyph-name="zero.tf" horiz-adv-x="600" 
d="M300 -10q-123 0 -197.5 96.5t-74.5 263.5t74.5 263.5t196.5 96.5q123 0 198.5 -96.5t75.5 -263.5t-75 -263.5t-198 -96.5zM300 114q63 0 99.5 62.5t36.5 173.5t-37 174t-100 63q-61 0 -97.5 -63t-36.5 -174t36.5 -173.5t98.5 -62.5z" />
    <glyph glyph-name="one.tf" horiz-adv-x="600" 
d="M37 0v120h193v436q-80 -30 -165 -30v121q98 0 186 53h119v-580h192v-120h-525z" />
    <glyph glyph-name="two.tf" horiz-adv-x="600" 
d="M33 0v83l187 178q12 12 37.5 36t38 36t32.5 32.5t29.5 34t21 30.5t16 32.5t4.5 30.5q0 40 -31 67t-82 27q-46 0 -78.5 -23t-40.5 -65l-120 36q17 85 85 130t162 45q107 0 177 -55.5t70 -141.5q0 -38 -15.5 -76.5t-47.5 -77t-50.5 -58t-55.5 -53.5l-136 -128h309v-120
h-512z" />
    <glyph glyph-name="three.tf" horiz-adv-x="600" 
d="M284 -10q-98 0 -165.5 45.5t-84.5 129.5l121 36q7 -43 40 -65.5t84 -22.5q52 0 88.5 24.5t36.5 71.5t-37 71.5t-94 24.5h-71v109h71q53 0 87 21.5t34 62.5q0 43 -35 66t-85 23q-46 0 -78.5 -23.5t-40.5 -64.5l-121 36q18 84 84.5 129.5t163.5 45.5q112 0 182.5 -58.5
t70.5 -150.5q0 -95 -89 -144q99 -52 99 -155q0 -95 -73.5 -153.5t-187.5 -58.5z" />
    <glyph glyph-name="four.tf" horiz-adv-x="600" 
d="M356 0v135h-343v117l344 448h136v-445h89v-120h-89v-135h-137zM159 255h197v253z" />
    <glyph glyph-name="five.tf" horiz-adv-x="600" 
d="M301 -10q-90 0 -157.5 44t-83.5 124l120 36q7 -38 38 -59.5t75 -21.5q54 0 89.5 34t35.5 89q0 54 -35 88t-88 34q-43 0 -71.5 -20t-38.5 -57l-113 37v382h452v-120h-333v-134q46 34 111 34q111 0 183.5 -68.5t72.5 -176.5t-72.5 -176.5t-184.5 -68.5z" />
    <glyph glyph-name="six.tf" horiz-adv-x="600" 
d="M331 479q101 0 168.5 -70.5t67.5 -172.5q0 -108 -77 -177t-190 -69q-112 0 -188.5 68.5t-76.5 174.5q0 55 30 124l160 343h138l-102 -231q34 10 70 10zM301 113q52 0 88.5 34t36.5 87q0 55 -36.5 89.5t-88.5 34.5q-53 0 -89.5 -34.5t-36.5 -89.5q0 -54 36.5 -87.5
t89.5 -33.5z" />
    <glyph glyph-name="seven.tf" horiz-adv-x="600" 
d="M104 0l285 573h-352v127h528v-83l-302 -617h-159z" />
    <glyph glyph-name="eight.tf" horiz-adv-x="600" 
d="M300 -10q-116 0 -186 59.5t-70 149.5q0 107 100 158q-87 50 -87 148q0 88 65.5 146.5t177.5 58.5t177 -58.5t65 -146.5q0 -99 -86 -148q100 -51 100 -158q0 -90 -70 -149.5t-186 -59.5zM300 414q44 0 73.5 23t29.5 62q0 40 -29.5 64t-73.5 24t-73.5 -24t-29.5 -64
q0 -39 29.5 -62t73.5 -23zM300 113q50 0 83 26t33 70t-33 70t-83 26t-83 -26t-33 -70t33 -70t83 -26z" />
    <glyph glyph-name="nine.tf" horiz-adv-x="600" 
d="M299 710q113 0 189.5 -68t76.5 -174q0 -63 -30 -125l-160 -343h-138l102 231q-34 -10 -70 -10q-101 0 -168.5 70.5t-67.5 172.5q0 108 76.5 177t189.5 69zM299 342q52 0 89 34.5t37 89.5q0 53 -37 87t-89 34t-88.5 -33.5t-36.5 -87.5q0 -55 36.5 -89.5t88.5 -34.5z" />
    <glyph glyph-name="zero.dnom" horiz-adv-x="447" 
d="M224 -6q-90 0 -144.5 64t-54.5 176t54.5 176.5t144.5 64.5t144 -64.5t54 -176.5t-54 -176t-144 -64zM224 91q41 0 64 37.5t23 105.5q0 67 -23 105.5t-64 38.5t-64 -38t-23 -106q0 -67 23 -105t64 -38z" />
    <glyph glyph-name="one.dnom" horiz-adv-x="270" 
d="M107 0v355q-50 -18 -96 -18v94q59 0 115 37h93v-468h-112z" />
    <glyph glyph-name="two.dnom" horiz-adv-x="376" 
d="M13 0v63l119 120q39 38 54 53t32 41t17 46q0 22 -16 38.5t-42 16.5q-53 0 -62 -53l-95 27q11 60 56 91t106 31q72 0 118.5 -38t46.5 -95q0 -74 -95 -169l-78 -78h175v-94h-336z" />
    <glyph glyph-name="three.dnom" horiz-adv-x="383" 
d="M182 -6q-65 0 -110.5 31t-56.5 91l95 27q9 -53 67 -53q27 0 47 14t20 40q0 25 -20 39t-51 14h-41v85h41q28 0 46 12.5t18 34.5q0 23 -19 36t-45 13q-24 0 -41.5 -14t-21.5 -39l-95 27q12 60 56.5 91t109.5 31q77 0 122 -40t45 -103q0 -60 -50 -93q57 -36 57 -101
q0 -63 -48 -103t-125 -40z" />
    <glyph glyph-name="four.dnom" horiz-adv-x="418" 
d="M237 0v85h-227v94l227 289h111v-289h56v-94h-56v-85h-111zM118 179h119v146z" />
    <glyph glyph-name="five.dnom" horiz-adv-x="391" 
d="M201 318q69 0 118 -45.5t49 -116.5q0 -70 -49.5 -116t-123.5 -46q-59 0 -104.5 30t-56.5 86l95 27q4 -22 20.5 -34.5t40.5 -12.5q28 0 47.5 19.5t19.5 49.5t-19.5 49t-47.5 19q-50 0 -59 -44l-89 30v255h302v-94h-208v-70q30 14 65 14z" />
    <glyph glyph-name="six.dnom" horiz-adv-x="386" 
d="M210 323q74 0 117.5 -47t43.5 -116q0 -73 -51 -119.5t-127 -46.5q-75 0 -126 45.5t-51 117.5q0 35 20 84l104 227h106l-64 -149q13 4 28 4zM193 90q29 0 48 19t19 49q0 31 -19 50t-48 19q-28 0 -46.5 -19t-18.5 -50q0 -30 19 -49t46 -19z" />
    <glyph glyph-name="seven.dnom" horiz-adv-x="353" 
d="M39 0l167 368h-195v100h334v-65l-181 -403h-125z" />
    <glyph glyph-name="eight.dnom" horiz-adv-x="405" 
d="M202 -6q-79 0 -127.5 40.5t-48.5 100.5q0 66 63 103q-55 34 -55 96q0 60 45.5 100t122.5 40q78 0 123.5 -40t45.5 -100q0 -62 -55 -96q62 -36 62 -103q0 -60 -48 -100.5t-128 -40.5zM202 282q26 0 42 13t16 34q0 22 -16 35.5t-42 13.5q-25 0 -40.5 -13.5t-15.5 -35.5
q0 -21 15.5 -34t40.5 -13zM202 90q29 0 47 14.5t18 39.5q0 23 -18 38t-47 15t-46.5 -15t-17.5 -38q0 -25 17.5 -39.5t46.5 -14.5z" />
    <glyph glyph-name="nine.dnom" horiz-adv-x="386" 
d="M194 474q75 0 125.5 -46t50.5 -118q0 -41 -19 -84l-104 -226h-106l64 149q-13 -4 -29 -4q-73 0 -116.5 47t-43.5 116q0 73 51 119.5t127 46.5zM193 240q28 0 47 19t19 50q0 30 -19 49.5t-47 19.5t-47.5 -19.5t-19.5 -49.5q0 -31 19.5 -50t47.5 -19z" />
    <glyph glyph-name="zero.numr" horiz-adv-x="447" 
d="M224 225q-90 0 -144.5 64t-54.5 176t54.5 176.5t144.5 64.5t144 -64.5t54 -176.5t-54 -176t-144 -64zM224 322q41 0 64 37.5t23 105.5t-23 106t-64 38t-64 -38t-23 -106t23 -105.5t64 -37.5z" />
    <glyph glyph-name="one.numr" horiz-adv-x="270" 
d="M107 232v355q-54 -18 -96 -18v95q60 0 115 36h93v-468h-112z" />
    <glyph glyph-name="two.numr" horiz-adv-x="376" 
d="M13 232v63l119 119q71 70 87 95q16 26 16 46q0 22 -16 38.5t-42 16.5q-53 0 -62 -54l-95 27q11 61 56 92t106 31q72 0 118.5 -38t46.5 -95q0 -75 -95 -170l-78 -77h175v-94h-336z" />
    <glyph glyph-name="three.numr" horiz-adv-x="383" 
d="M182 225q-65 0 -110.5 31t-56.5 91l95 27q9 -52 67 -52q28 0 47.5 14t19.5 40q0 25 -20 38.5t-51 13.5h-41v86h41q28 0 46 12t18 34q0 24 -19 37t-45 13q-24 0 -41.5 -14t-21.5 -40l-95 27q12 61 56.5 92t109.5 31q76 0 121.5 -40.5t45.5 -102.5q0 -61 -50 -93
q57 -36 57 -101q0 -63 -48 -103.5t-125 -40.5z" />
    <glyph glyph-name="four.numr" horiz-adv-x="418" 
d="M237 232v85h-227v94l227 289h111v-288h56v-95h-56v-85h-111zM118 412h119v146z" />
    <glyph glyph-name="five.numr" horiz-adv-x="391" 
d="M201 550q69 0 118 -45.5t49 -115.5t-49.5 -116.5t-123.5 -46.5q-59 0 -104.5 30.5t-56.5 86.5l95 27q4 -22 20.5 -35t40.5 -13q28 0 47.5 19.5t19.5 49.5q0 31 -19.5 50t-47.5 19q-50 0 -59 -45l-89 30v255h302v-94h-208v-70q30 14 65 14z" />
    <glyph glyph-name="six.numr" horiz-adv-x="386" 
d="M210 555q74 0 117.5 -47t43.5 -116q0 -73 -51 -119.5t-127 -46.5q-75 0 -126 46t-51 118q0 35 20 84l104 226h102l-64 -150q18 5 32 5zM193 322q29 0 48 19.5t19 49.5q0 31 -19 50t-48 19q-28 0 -46.5 -19t-18.5 -50q0 -30 19 -49.5t46 -19.5z" />
    <glyph glyph-name="seven.numr" horiz-adv-x="353" 
d="M39 232l167 368h-195v100h334v-64l-181 -404h-125z" />
    <glyph glyph-name="eight.numr" horiz-adv-x="405" 
d="M202 225q-79 0 -127.5 41t-48.5 101q0 66 63 103q-55 33 -55 96q0 59 45.5 99.5t122.5 40.5q78 0 123.5 -40.5t45.5 -99.5q0 -64 -55 -96q62 -36 62 -103q0 -60 -48 -101t-128 -41zM202 514q26 0 42 13t16 33q0 23 -16 36.5t-42 13.5q-25 0 -40.5 -14t-15.5 -36
q0 -20 15.5 -33t40.5 -13zM202 322q29 0 47 14.5t18 39.5q0 23 -18 37.5t-47 14.5t-46.5 -14.5t-17.5 -37.5q0 -25 17.5 -39.5t46.5 -14.5z" />
    <glyph glyph-name="nine.numr" horiz-adv-x="386" 
d="M194 706q75 0 125.5 -46t50.5 -118q0 -41 -19 -84l-104 -226h-103l64 150q-18 -5 -32 -5q-73 0 -116.5 46.5t-43.5 115.5q0 73 51 120t127 47zM193 472q28 0 47 19t19 50q0 30 -19 49.5t-47 19.5t-47.5 -19.5t-19.5 -49.5q0 -31 19.5 -50t47.5 -19z" />
    <glyph glyph-name="periodcentered.case" horiz-adv-x="313" 
d="M156 277q-35 0 -59.5 24t-24.5 59t24.5 59t59.5 24t59.5 -24t24.5 -59t-24.5 -59t-59.5 -24z" />
    <glyph glyph-name="exclamdown.case" horiz-adv-x="308" 
d="M151 665q35 0 60 -24.5t25 -58.5t-25 -58.5t-60 -24.5q-34 0 -59 24.5t-25 58.5t24.5 58.5t59.5 24.5zM213 433l13 -473h-147l11 473h123z" />
    <glyph glyph-name="questiondown.case" horiz-adv-x="527" 
d="M278 667q36 0 60.5 -24t24.5 -59t-24.5 -59t-60.5 -24q-35 0 -59.5 24.5t-24.5 58.5t24.5 58.5t59.5 24.5zM340 434v-179h-33q-55 0 -97 -22t-42 -70q0 -39 27.5 -61t72.5 -22q94 0 116 92l128 -42q-18 -87 -85.5 -132.5t-157.5 -45.5q-112 0 -178 54.5t-66 139.5
q1 69 51 119.5t141 72.5v96h123z" />
    <glyph glyph-name="braceleft.case" horiz-adv-x="368" 
d="M295 -54q-97 0 -149.5 44.5t-52.5 125.5v125q0 34 -23.5 53.5t-62.5 19.5v95q40 0 63 19t23 53v125q0 82 52.5 126.5t149.5 44.5h53v-119h-53q-61 0 -61 -64v-113q0 -76 -75 -119q75 -45 75 -121v-113q0 -64 61 -64h53v-118h-53z" />
    <glyph glyph-name="braceright.case" horiz-adv-x="368" 
d="M72 -54h-53v118h53q61 0 61 64v113q0 76 75 121q-75 43 -75 119v113q0 64 -61 64h-53v119h53q96 0 149 -44.5t53 -126.5v-125q0 -34 23 -53t63 -19v-95q-40 0 -63 -19.5t-23 -53.5v-125q0 -81 -53 -125.5t-149 -44.5z" />
    <glyph glyph-name="bracketleft.case" horiz-adv-x="382" 
d="M75 -55v832h287v-119h-147v-594h147v-119h-287z" />
    <glyph glyph-name="bracketright.case" horiz-adv-x="382" 
d="M320 -55h-287v119h147v594h-147v119h287v-832z" />
    <glyph glyph-name="parenleft.case" horiz-adv-x="314" 
d="M192 -89q-157 171 -157 437q0 264 157 437l116 -47q-136 -167 -136 -390q0 -224 136 -391z" />
    <glyph glyph-name="parenright.case" horiz-adv-x="314" 
d="M134 -89l-116 46q136 167 136 391q0 223 -136 390l116 47q157 -173 157 -437q0 -266 -157 -437z" />
    <glyph glyph-name="emdash.case" horiz-adv-x="959" 
d="M62 270v119h834v-119h-834z" />
    <glyph glyph-name="endash.case" horiz-adv-x="615" 
d="M62 270v119h490v-119h-490z" />
    <glyph glyph-name="hyphen.case" horiz-adv-x="425" 
d="M62 270v119h301v-119h-301z" />
    <glyph glyph-name="guillemotleft.case" horiz-adv-x="541" 
d="M272 497l-123 -196l123 -196h-134l-131 196l131 196h134zM513 497l-123 -196l123 -196h-133l-131 196l131 196h133z" />
    <glyph glyph-name="guillemotright.case" horiz-adv-x="541" 
d="M41 497h133l131 -196l-131 -196h-133l123 196zM282 497h133l132 -196l-132 -196h-133l123 196z" />
    <glyph glyph-name="guilsinglleft.case" horiz-adv-x="300" 
d="M283 497l-123 -196l123 -196h-133l-131 196l131 196h133z" />
    <glyph glyph-name="guilsinglright.case" horiz-adv-x="300" 
d="M29 497h133l131 -196l-131 -196h-133l123 196z" />
    <glyph glyph-name="at.case" horiz-adv-x="920" 
d="M403 -97q-162 0 -273 111.5t-111 298.5q0 197 122.5 319t308.5 122q177 0 290.5 -111.5t113.5 -293.5q0 -133 -62 -199t-143 -66q-49 0 -85 26.5t-45 80.5q-52 -76 -144 -76q-67 0 -115.5 52t-48.5 139q0 104 62.5 177.5t146.5 73.5q87 0 125 -75l8 65h93l-39 -293
q-5 -42 8 -70.5t49 -28.5q52 0 83 48t31 135q0 166 -93.5 254.5t-234.5 88.5q-155 0 -255 -99t-100 -267q0 -159 88.5 -249.5t221.5 -90.5q65 0 127.5 19.5t102.5 50.5l42 -60q-51 -37 -126 -59.5t-148 -22.5zM403 196q52 0 88 47.5t36 115.5q0 56 -25.5 86t-67.5 30
q-55 0 -91 -46t-36 -114q0 -55 26 -87t70 -32z" />
    <glyph glyph-name="bar.case" horiz-adv-x="307" 
d="M199 775v-928h-120v928h120z" />
    <glyph glyph-name="uni0337.001" 
d="M-162 213v111l323 100v-111z" />
    <glyph glyph-name="uni030A0301.case" 
d="M-50 780l42 94h118l-66 -94h-94zM-2 539q-49 0 -81.5 31.5t-32.5 76.5t32 76t82 31t83 -31t33 -76t-33 -76.5t-83 -31.5zM-2 607q17 0 29 11t12 29q0 17 -12 28t-29 11q-16 0 -27.5 -11t-11.5 -28q0 -18 11.5 -29t27.5 -11z" />
    <glyph glyph-name="brevecombcy" 
d="M-1 550q-73 0 -117.5 44t-44.5 115h98q0 -33 17.5 -53.5t46.5 -20.5t47 20.5t18 53.5h98q0 -71 -45 -115t-118 -44z" />
    <glyph glyph-name="NULL" horiz-adv-x="600" 
 />
    </font>
</defs>
</svg>
